{
.appVersion = "1192";
DisplayStrings = (
""
);
classes = (
{
automatic = 1;

glyphs = (
{
glyphname = A;
lastChange = "2019-01-16 15:38:45 +0000";
layers = (
{
anchors = (
{
name = bottom;
position = "{360.903, 0}";
},
{
name = ogonek;
position = "{686.204, 10}";
},
{
name = top;
position = "{361.019, 712}";
}
);
layerId = "46D6449F-D991-45BF-8D03-34744F3491AE";
paths = (
{
closed = 1;
nodes = (
"373.087 686.835 LINE",
"347.369 686.835 LINE",
"642.029 0 LINE",
"686.913 0 LINE",
"381.359 712 LINE",
"339.563 712 LINE",
"33.893 0 LINE",
"78.544 0 LINE"
);
},
{
closed = 1;
nodes = (
"566.99 197.311 LINE",
"554.117 236.573 LINE",
"170.087 236.573 LINE",
"159.447 197.311 LINE"
);
}
);
width = 720.80583;
},
{
anchors = (
{
name = bottom;
position = "{385.194, 0}";
},
{
name = ogonek;
position = "{718.592, 10}";
},
{
name = top;
position = "{383.961, 712}";
}
);
layerId = "6790C309-8F5A-452B-8BE0-8B8CBBA8D07C";
paths = (
{
closed = 1;
nodes = (
"406.825 561.33 LINE",
"366.262 561.33 LINE",
"606.942 0 LINE",
"792.175 0 LINE",
"458.282 712 LINE",
"309.874 712 LINE",
"-22.786 0 LINE",
"164.913 0 LINE"
);
},
{
closed = 1;
nodes = (
"625.019 147.379 LINE",
"552.767 287.854 LINE",
"203.825 287.854 LINE",
"131.107 147.379 LINE"
);
}
);
width = 769.38835;
},
{
anchors = (
{
name = bottom;
position = "{367.718, 0}";
},
{
name = ogonek;
position = "{695.291, 10}";
},
{
name = top;
position = "{367.456, 712}";
}
);
layerId = "A299C91D-11CD-42B0-B8D6-5EC4BEC07D9B";
paths = (
{
closed = 1;
nodes = (
"382.553 651.621 LINE",
"352.67 651.621 LINE",
"632.184 0 LINE",
"716.447 0 LINE",
"402.942 712 LINE",
"331.233 712 LINE",
"17.99 0 LINE",
"102.777 0 LINE"
);
},
{
closed = 1;
nodes = (
"583.272 183.301 LINE",
"553.738 250.961 LINE",
"179.553 250.961 LINE",
"151.495 183.301 LINE"
);
}
);
width = 734.4369;
}
);
leftKerningGroup = A;
rightKerningGroup = A;
unicode = 0041;
userData = {
anchors = (
);
b = {
};
com.typemytype.robofont.layerData = {
b = {
anchors = (
);
components = (
);
contours = (
{
points = (
{
segmentType = line;
smooth = 0;
x = 403;
y = 502;
},
{
segmentType = line;
smooth = 0;
x = 703;
y = 1275;
},
{
segmentType = line;
smooth = 0;
x = 705;
y = 1275;
},
{
segmentType = line;
smooth = 0;
x = 1004;
y = 502;
}
);
},
{
points = (
{
segmentType = curve;
smooth = 1;
x = 150;
y = 0;
},
{
smooth = 0;
x = 181;
y = 0;
},
{
smooth = 0;
x = 214;
y = 15;
},
{
segmentType = curve;
smooth = 1;
x = 229;
y = 53;
},
{
segmentType = line;
smooth = 0;
x = 356;
y = 373;
},
{
segmentType = line;
smooth = 0;
x = 1051;
y = 373;
},
{
segmentType = line;
smooth = 1;
x = 1179;
y = 53;
},
{
smooth = 0;
x = 1193;
y = 17;
},
{
smooth = 0;
x = 1228;
y = 0;
},
{
segmentType = curve;
smooth = 1;
x = 1260;
y = 0;
},
{
smooth = 0;
x = 1306;
y = 0;
},
{
smooth = 0;
x = 1354;
y = 31;
},
{
segmentType = curve;
smooth = 1;
x = 1354;
y = 80;
},
{
smooth = 0;
x = 1354;
y = 87;
},
{
smooth = 0;
x = 1352;
y = 97;
},
{
segmentType = curve;
smooth = 0;
x = 1349;
y = 108;
},
{
segmentType = line;
smooth = 1;
x = 871;
y = 1288;
},
{
smooth = 0;
x = 817;
y = 1420;
},
{
smooth = 0;
x = 777;
y = 1430;
},
{
segmentType = curve;
smooth = 1;
x = 710;
y = 1430;
},
{
smooth = 0;
x = 644;
y = 1430;
},
{
smooth = 0;
x = 596;
y = 1413;
},
{
segmentType = curve;
smooth = 1;
x = 542;
y = 1280;
},
{
segmentType = line;
smooth = 1;
x = 66;
y = 108;
},
{
smooth = 0;
x = 62;
y = 97;
},
{
smooth = 0;
x = 60;
y = 87;
},
{
segmentType = curve;
smooth = 1;
x = 60;
y = 78;
},
{
smooth = 0;
x = 60;
y = 32;
},
{
smooth = 0;
x = 106;
y = 0;
}
);
}
);
lib = {
};
name = A;
unicodes = (
);
width = 1414;
};
};
components = (
);
contours = {
};
lib = {
};
name = A;
points = {
};
segmentType = line;
unicodes = (
);
width = 1445;
x = 718;
y = 1232;
};
},
{
glyphname = Aogonek;
lastChange = "2019-01-16 15:38:45 +0000";
layers = (
{
layerId = "46D6449F-D991-45BF-8D03-34744F3491AE";
paths = (
{
closed = 1;
nodes = (
"566.99 197.311 LINE",
"554.117 236.573 LINE",
"170.087 236.573 LINE",
"159.447 197.311 LINE"
);
},
{
closed = 1;
nodes = (
"698.689 -146.379 OFFCURVE",
"676.223 -152.612 OFFCURVE",
"660.34 -152.612 CURVE SMOOTH",
"618.99 -152.612 OFFCURVE",
"590.291 -129.029 OFFCURVE",
"590.291 -85.097 CURVE SMOOTH",
"590.291 -39.282 OFFCURVE",
"618.058 0 OFFCURVE",
"685.388 0 CURVE SMOOTH",
"686.913 0 LINE",
"381.359 712 LINE",
"339.563 712 LINE",
"33.893 0 LINE",
"78.544 0 LINE",
"373.087 686.835 LINE",
"347.369 686.835 LINE",
"642.029 0 LINE",
"666.379 38.583 LINE",
"587.049 22.165 OFFCURVE",
"545 -27.184 OFFCURVE",
"545 -89.117 CURVE SMOOTH",
"545 -148.184 OFFCURVE",
"589.718 -192.301 OFFCURVE",
"658.252 -192.301 CURVE SMOOTH",
"690.903 -192.301 OFFCURVE",
"718.087 -181.951 OFFCURVE",
"735.689 -168.951 CURVE",
"719.806 -133.913 LINE"
);
}
);
width = 720.80583;
},
{
layerId = "6790C309-8F5A-452B-8BE0-8B8CBBA8D07C";
paths = (
{
closed = 1;
nodes = (
"625.019 147.379 LINE",
"552.767 287.854 LINE",
"203.825 287.854 LINE",
"131.107 147.379 LINE"
);
},
{
closed = 1;
nodes = (
"748.621 -107.243 OFFCURVE",
"731.553 -110.777 OFFCURVE",
"714.32 -110.777 CURVE SMOOTH",
"677.019 -110.777 OFFCURVE",
"656.417 -93.942 OFFCURVE",
"656.417 -60.806 CURVE SMOOTH",
"656.417 -24.437 OFFCURVE",
"686.883 0 OFFCURVE",
"727.223 0 CURVE SMOOTH",
"792.175 0 LINE",
"458.282 712 LINE",
"309.874 712 LINE",
"-22.786 0 LINE",
"164.913 0 LINE",
"406.825 561.33 LINE",
"366.262 561.33 LINE",
"606.942 0 LINE",
"627.243 31.835 LINE",
"574.903 8.67 OFFCURVE",
"545 -36.631 OFFCURVE",
"545 -87.767 CURVE SMOOTH",
"545 -157.631 OFFCURVE",
"604.563 -200.398 OFFCURVE",
"678.495 -200.398 CURVE SMOOTH",
"715.194 -200.398 OFFCURVE",
"751.825 -194.097 OFFCURVE",
"785.621 -181.097 CURVE",
"768.388 -100.175 LINE"
);
}
);
width = 769.38835;
},
{
layerId = "A299C91D-11CD-42B0-B8D6-5EC4BEC07D9B";
paths = (
{
closed = 1;
nodes = (
"583.272 183.301 LINE",
"553.738 250.961 LINE",
"179.553 250.961 LINE",
"151.495 183.301 LINE"
);
},
{
closed = 1;
nodes = (
"712.699 -135.398 OFFCURVE",
"691.747 -140.874 OFFCURVE",
"675.485 -140.874 CURVE SMOOTH",
"635.272 -140.874 OFFCURVE",
"608.844 -119.184 OFFCURVE",
"608.844 -78.282 CURVE SMOOTH",
"608.844 -35.117 OFFCURVE",
"637.369 0 OFFCURVE",
"697.126 0 CURVE SMOOTH",
"716.447 0 LINE",
"402.942 712 LINE",
"331.233 712 LINE",
"17.99 0 LINE",
"102.777 0 LINE",
"382.553 651.621 LINE",
"352.67 651.621 LINE",
"632.184 0 LINE",
"655.398 36.69 LINE",
"583.641 18.379 OFFCURVE",
"545 -29.835 OFFCURVE",
"545 -88.738 CURVE SMOOTH",
"545 -150.835 OFFCURVE",
"593.883 -194.573 OFFCURVE",
"663.932 -194.573 CURVE SMOOTH",
"697.718 -194.573 OFFCURVE",
"727.553 -185.359 OFFCURVE",
"749.699 -172.359 CURVE",
"733.437 -124.447 LINE"
);
}
);
width = 734.4369;
}
);
leftKerningGroup = A;
rightKerningGroup = A;
unicode = 0104;
},
{
glyphname = Aring;
lastChange = "2019-01-16 15:38:45 +0000";
layers = (
{
layerId = "46D6449F-D991-45BF-8D03-34744F3491AE";
paths = (
{
closed = 1;
nodes = (
"414.087 682.583 OFFCURVE",
"458.505 724 OFFCURVE",
"458.505 778.184 CURVE SMOOTH",
"458.505 831.369 OFFCURVE",
"414.087 873.786 OFFCURVE",
"360.903 873.786 CURVE SMOOTH",
"306.718 873.786 OFFCURVE",
"263.301 831.369 OFFCURVE",
"263.301 778.184 CURVE SMOOTH",
"263.301 724 OFFCURVE",
"306.718 682.583 OFFCURVE",
"360.903 682.583 CURVE SMOOTH"
);
},
{
closed = 1;
nodes = (
"330.32 724.369 OFFCURVE",
"309.087 747.602 OFFCURVE",
"309.087 778.184 CURVE SMOOTH",
"309.087 807.65 OFFCURVE",
"330.32 831 OFFCURVE",
"360.903 831 CURVE SMOOTH",
"390.369 831 OFFCURVE",
"411.718 807.65 OFFCURVE",
"411.718 778.184 CURVE SMOOTH",
"411.718 747.602 OFFCURVE",
"390.369 724.369 OFFCURVE",
"360.903 724.369 CURVE SMOOTH"
);
},
{
closed = 1;
nodes = (
"373.087 686.835 LINE",
"347.369 686.835 LINE",
"642.029 0 LINE",
"686.913 0 LINE",
"381.359 712 LINE",
"339.563 712 LINE",
"33.893 0 LINE",
"78.544 0 LINE"
);
},
{
closed = 1;
nodes = (
"566.99 197.311 LINE",
"554.117 236.573 LINE",
"170.087 236.573 LINE",
"159.447 197.311 LINE"
);
}
);
width = 720.80583;
},
{
layerId = "6790C309-8F5A-452B-8BE0-8B8CBBA8D07C";
paths = (
{
closed = 1;
nodes = (
"447.825 675.835 OFFCURVE",
"498.99 724 OFFCURVE",
"498.99 787.631 CURVE SMOOTH",
"498.99 850.262 OFFCURVE",
"447.825 899.427 OFFCURVE",
"385.194 899.427 CURVE SMOOTH",
"321.563 899.427 OFFCURVE",
"271.398 850.262 OFFCURVE",
"271.398 787.631 CURVE SMOOTH",
"271.398 724 OFFCURVE",
"321.563 675.835 OFFCURVE",
"385.194 675.835 CURVE SMOOTH"
);
},
{
closed = 1;
nodes = (
"361.359 743.262 OFFCURVE",
"342.825 763.796 OFFCURVE",
"342.825 787.631 CURVE SMOOTH",
"342.825 811.699 OFFCURVE",
"361.359 831 OFFCURVE",
"385.194 831 CURVE SMOOTH",
"409.262 831 OFFCURVE",
"426.563 811.699 OFFCURVE",
"426.563 787.631 CURVE SMOOTH",
"426.563 763.796 OFFCURVE",
"409.262 743.262 OFFCURVE",
"385.194 743.262 CURVE SMOOTH"
);
},
{
closed = 1;
nodes = (
"406.825 561.33 LINE",
"366.262 561.33 LINE",
"606.942 0 LINE",
"792.175 0 LINE",
"458.282 712 LINE",
"309.874 712 LINE",
"-22.786 0 LINE",
"164.913 0 LINE"
);
},
{
closed = 1;
nodes = (
"625.019 147.379 LINE",
"552.767 287.854 LINE",
"203.825 287.854 LINE",
"131.107 147.379 LINE"
);
}
);
width = 769.38835;
},
{
layerId = "A299C91D-11CD-42B0-B8D6-5EC4BEC07D9B";
paths = (
{
closed = 1;
nodes = (
"423.553 680.69 OFFCURVE",
"469.864 724 OFFCURVE",
"469.864 780.835 CURVE SMOOTH",
"469.864 836.67 OFFCURVE",
"423.553 880.98 OFFCURVE",
"367.718 880.98 CURVE SMOOTH",
"310.883 880.98 OFFCURVE",
"265.573 836.67 OFFCURVE",
"265.573 780.835 CURVE SMOOTH",
"265.573 724 OFFCURVE",
"310.883 680.69 OFFCURVE",
"367.718 680.69 CURVE SMOOTH"
);
},
{
closed = 1;
nodes = (
"339.029 729.67 OFFCURVE",
"318.553 752.146 OFFCURVE",
"318.553 780.835 CURVE SMOOTH",
"318.553 808.786 OFFCURVE",
"339.029 831 OFFCURVE",
"367.718 831 CURVE SMOOTH",
"395.67 831 OFFCURVE",
"415.883 808.786 OFFCURVE",
"415.883 780.835 CURVE SMOOTH",
"415.883 752.146 OFFCURVE",
"395.67 729.67 OFFCURVE",
"367.718 729.67 CURVE SMOOTH"
);
},
{
closed = 1;
nodes = (
"382.553 651.621 LINE",
"352.67 651.621 LINE",
"632.184 0 LINE",
"716.447 0 LINE",
"402.942 712 LINE",
"331.233 712 LINE",
"17.99 0 LINE",
"102.777 0 LINE"
);
},
{
closed = 1;
nodes = (
"583.272 183.301 LINE",
"553.738 250.961 LINE",
"179.553 250.961 LINE",
"151.495 183.301 LINE"
);
}
);
width = 734.4369;
}
);
leftKerningGroup = A;
rightKerningGroup = A;
unicode = 00C5;
},
{
glyphname = Aringacute;
lastChange = "2019-01-16 15:38:45 +0000";
layers = (
{
layerId = "46D6449F-D991-45BF-8D03-34744F3491AE";
paths = (
{
closed = 1;
nodes = (
"78.544 0 LINE",
"373.087 686.835 LINE",
"347.369 686.835 LINE",
"642.029 0 LINE",
"686.913 0 LINE",
"381.359 712 LINE",
"339.563 712 LINE",
"33.893 0 LINE"
);
},
{
closed = 1;
nodes = (
"566.99 197.311 LINE",
"554.117 236.573 LINE",
"170.087 236.573 LINE",
"159.447 197.311 LINE"
);
},
{
closed = 1;
nodes = (
"414.087 682.583 OFFCURVE",
"458.505 724 OFFCURVE",
"458.505 778.184 CURVE SMOOTH",
"458.505 831.369 OFFCURVE",
"414.087 873.786 OFFCURVE",
"360.903 873.786 CURVE SMOOTH",
"306.718 873.786 OFFCURVE",
"263.301 831.369 OFFCURVE",
"263.301 778.184 CURVE SMOOTH",
"263.301 724 OFFCURVE",
"306.718 682.583 OFFCURVE",
"360.903 682.583 CURVE SMOOTH"
);
},
{
closed = 1;
nodes = (
"330.32 724.369 OFFCURVE",
"309.087 747.602 OFFCURVE",
"309.087 778.184 CURVE SMOOTH",
"309.087 807.65 OFFCURVE",
"330.32 831 OFFCURVE",
"360.903 831 CURVE SMOOTH",
"390.369 831 OFFCURVE",
"411.718 807.65 OFFCURVE",
"411.718 778.184 CURVE SMOOTH",
"411.718 747.602 OFFCURVE",
"390.369 724.369 OFFCURVE",
"360.903 724.369 CURVE SMOOTH"
);
},
{
closed = 1;
nodes = (
"571.359 947.184 LINE",
"505.515 947.184 LINE",
"400.951 840.087 LINE",
"430.34 826.466 LINE"
);
}
);
width = 720.80583;
},
{
layerId = "6790C309-8F5A-452B-8BE0-8B8CBBA8D07C";
paths = (
{
closed = 1;
nodes = (
"164.913 0 LINE",
"406.825 561.33 LINE",
"366.262 561.33 LINE",
"606.942 0 LINE",
"792.175 0 LINE",
"458.282 712 LINE",
"309.874 712 LINE",
"-22.786 0 LINE"
);
},
{
closed = 1;
nodes = (
"625.019 147.379 LINE",
"552.767 287.854 LINE",
"203.825 287.854 LINE",
"131.107 147.379 LINE"
);
},
{
closed = 1;
nodes = (
"447.825 675.835 OFFCURVE",
"498.99 724 OFFCURVE",
"498.99 787.631 CURVE SMOOTH",
"498.99 850.262 OFFCURVE",
"447.825 899.427 OFFCURVE",
"385.194 899.427 CURVE SMOOTH",
"321.563 899.427 OFFCURVE",
"271.398 850.262 OFFCURVE",
"271.398 787.631 CURVE SMOOTH",
"271.398 724 OFFCURVE",
"321.563 675.835 OFFCURVE",
"385.194 675.835 CURVE SMOOTH"
);
},
{
closed = 1;
nodes = (
"361.359 743.262 OFFCURVE",
"342.825 763.796 OFFCURVE",
"342.825 787.631 CURVE SMOOTH",
"342.825 811.699 OFFCURVE",
"361.359 831 OFFCURVE",
"385.194 831 CURVE SMOOTH",
"409.262 831 OFFCURVE",
"426.563 811.699 OFFCURVE",
"426.563 787.631 CURVE SMOOTH",
"426.563 763.796 OFFCURVE",
"409.262 743.262 OFFCURVE",
"385.194 743.262 CURVE SMOOTH"
);
},
{
closed = 1;
nodes = (
"648.282 956.631 LINE",
"487.971 956.631 LINE",
"413.097 873.825 LINE",
"484.32 821.068 LINE"
);
}
);
width = 769.38835;
},
{
layerId = "A299C91D-11CD-42B0-B8D6-5EC4BEC07D9B";
paths = (
{
closed = 1;
nodes = (
"102.777 0 LINE",
"382.553 651.621 LINE",
"352.67 651.621 LINE",
"632.184 0 LINE",
"716.447 0 LINE",
"402.942 712 LINE",
"331.233 712 LINE",
"17.99 0 LINE"
);
},
{
closed = 1;
nodes = (
"583.272 183.301 LINE",
"553.738 250.961 LINE",
"179.553 250.961 LINE",
"151.495 183.301 LINE"
);
},
{
closed = 1;
nodes = (
"423.553 680.69 OFFCURVE",
"469.864 724 OFFCURVE",
"469.864 780.835 CURVE SMOOTH",
"469.864 836.67 OFFCURVE",
"423.553 880.98 OFFCURVE",
"367.718 880.98 CURVE SMOOTH",
"310.883 880.98 OFFCURVE",
"265.573 836.67 OFFCURVE",
"265.573 780.835 CURVE SMOOTH",
"265.573 724 OFFCURVE",
"310.883 680.69 OFFCURVE",
"367.718 680.69 CURVE SMOOTH"
);
},
{
closed = 1;
nodes = (
"339.029 729.67 OFFCURVE",
"318.553 752.146 OFFCURVE",
"318.553 780.835 CURVE SMOOTH",
"318.553 808.786 OFFCURVE",
"339.029 831 OFFCURVE",
"367.718 831 CURVE SMOOTH",
"395.67 831 OFFCURVE",
"415.883 808.786 OFFCURVE",
"415.883 780.835 CURVE SMOOTH",
"415.883 752.146 OFFCURVE",
"395.67 729.67 OFFCURVE",
"367.718 729.67 CURVE SMOOTH"
);
},
{
closed = 1;
nodes = (
"592.942 949.835 LINE",
"500.593 949.835 LINE",
"404.359 849.553 LINE",
"445.485 824.951 LINE"
);
}
);
width = 734.4369;
}
);
leftKerningGroup = A;
rightKerningGroup = A;
unicode = 01FA;
},
{
glyphname = AE;
lastChange = "2019-01-16 15:38:45 +0000";
layers = (
{
anchors = (
{
name = bottom;
position = "{501.068, 0}";
},
{
name = top;
position = "{499.951, 712}";
}
);
layerId = "46D6449F-D991-45BF-8D03-34744F3491AE";
paths = (
{
closed = 1;
nodes = (
"59.262 0 LINE",
"461.689 679.573 LINE",
"437.388 671.971 LINE",
"939.272 671.971 LINE",
"939.272 712 LINE",
"438.33 712 LINE",
"13.893 0 LINE"
);
},
{
closed = 1;
nodes = (
"573.019 197.311 LINE",
"567.165 236.573 LINE",
"159.806 236.573 LINE",
"148.165 197.311 LINE"
);
},
{
closed = 1;
nodes = (
"939.272 0 LINE",
"939.272 40.029 LINE",
"597.68 40.029 LINE",
"533.767 693.709 LINE",
"497.184 693.709 LINE",
"564.748 0 LINE"
);
},
{
closed = 1;
nodes = (
"919.388 341.427 LINE",
"919.388 381.456 LINE",
"562.951 381.456 LINE",
"562.951 341.427 LINE"
);
}
);
width = 996.48544;
},
{
anchors = (
{
name = bottom;
position = "{511.864, 0}";
},
{
name = top;
position = "{512.097, 712}";
}
);
layerId = "6790C309-8F5A-452B-8BE0-8B8CBBA8D07C";
paths = (
{
closed = 1;
nodes = (
"160.476 0 LINE",
"511.621 591.854 LINE",
"479.223 568.058 LINE",
"982.456 568.058 LINE",
"982.456 712 LINE",
"411.34 712 LINE",
"-42.786 0 LINE"
);
},
{
closed = 1;
nodes = (
"595.961 147.379 LINE",
"553.67 287.854 LINE",
"208.388 287.854 LINE",
"134.67 147.379 LINE"
);
},
{
closed = 1;
nodes = (
"982.456 0 LINE",
"982.456 143.942 LINE",
"705.641 143.942 LINE",
"675.466 627.583 LINE",
"506.631 627.583 LINE",
"544.505 0 LINE"
);
},
{
closed = 1;
nodes = (
"961.223 290.146 LINE",
"961.223 434.087 LINE",
"575.097 434.087 LINE",
"575.097 290.146 LINE"
);
}
);
width = 1014.02913;
},
{
anchors = (
{
name = bottom;
position = "{504.097, 0}";
},
{
name = top;
position = "{503.359, 712}";
}
);
layerId = "A299C91D-11CD-42B0-B8D6-5EC4BEC07D9B";
paths = (
{
closed = 1;
nodes = (
"87.66 0 LINE",
"475.699 654.961 LINE",
"449.126 642.816 LINE",
"951.388 642.816 LINE",
"951.388 712 LINE",
"430.757 712 LINE",
"-2.01 0 LINE"
);
},
{
closed = 1;
nodes = (
"579.456 183.301 LINE",
"563.379 250.961 LINE",
"173.437 250.961 LINE",
"144.379 183.301 LINE"
);
},
{
closed = 1;
nodes = (
"951.388 0 LINE",
"951.388 69.184 LINE",
"627.971 69.184 LINE",
"573.524 675.156 LINE",
"499.835 675.156 LINE",
"559.068 0 LINE"
);
},
{
closed = 1;
nodes = (
"931.126 327.039 LINE",
"931.126 396.223 LINE",
"566.359 396.223 LINE",
"566.359 327.039 LINE"
);
}
);
width = 1001.40777;
}
);
leftKerningGroup = A;
rightKerningGroup = E;
unicode = 00C6;
userData = {
com.typemytype.robofont.layerData = {
b = {
anchors = (
);
components = (
);
contours = (
);
lib = {
};
name = AE;
unicodes = (
);
width = 1976;
};
};
};
},
{
glyphname = B;
lastChange = "2019-01-16 15:38:45 +0000";
layers = (
{
anchors = (
{
name = bottom;
position = "{339.718, 0}";
},
{
name = top;
position = "{338.602, 712}";
}
);
layerId = "46D6449F-D991-45BF-8D03-34744F3491AE";
paths = (
{
closed = 1;
nodes = (
"370.806 0 LINE SMOOTH",
"517.99 0 OFFCURVE",
"600.709 66.068 OFFCURVE",
"600.709 192.767 CURVE SMOOTH",
"600.709 288.117 OFFCURVE",
"546.476 351 OFFCURVE",
"457.825 367.534 CURVE",
"457.825 359.534 LINE",
"535.709 383.65 OFFCURVE",
"585.058 441.301 OFFCURVE",
"585.058 524.767 CURVE SMOOTH",
"585.058 646.583 OFFCURVE",
"503.223 712 OFFCURVE",
"359.689 712 CURVE SMOOTH",
"96.796 712 LINE",
"96.796 0 LINE"
);
},
{
closed = 1;
nodes = (
"138.68 341.311 LINE",
"369.67 341.311 LINE SMOOTH",
"494.097 341.311 OFFCURVE",
"556.01 288.631 OFFCURVE",
"556.01 187.553 CURVE SMOOTH",
"556.01 87.476 OFFCURVE",
"496.33 39.146 OFFCURVE",
"369.67 39.146 CURVE SMOOTH",
"138.68 39.146 LINE"
);
},
{
closed = 1;
nodes = (
"138.68 672.854 LINE",
"355.019 672.854 LINE SMOOTH",
"479.913 672.854 OFFCURVE",
"540.359 624.524 OFFCURVE",
"540.359 530.68 CURVE SMOOTH",
"540.359 434.369 OFFCURVE",
"476.563 381.573 OFFCURVE",
"355.019 381.573 CURVE SMOOTH",
"138.68 381.573 LINE"
);
}
);
width = 672.43689;
},
{
anchors = (
{
name = bottom;
position = "{354.563, 0}";
},
{
name = top;
position = "{354.796, 712}";
}
);
layerId = "6790C309-8F5A-452B-8BE0-8B8CBBA8D07C";
paths = (
{
closed = 1;
nodes = (
"419.388 0 LINE SMOOTH",
"576.019 0 OFFCURVE",
"673.583 76.864 OFFCURVE",
"673.583 195.466 CURVE SMOOTH",
"673.583 286.767 OFFCURVE",
"622.049 351 OFFCURVE",
"529.35 372.932 CURVE",
"529.35 364.932 LINE",
"608.583 387.699 OFFCURVE",
"653.883 449.398 OFFCURVE",
"653.883 527.466 CURVE SMOOTH",
"653.883 639.835 OFFCURVE",
"558.553 712 OFFCURVE",
"409.621 712 CURVE SMOOTH",
"64.408 712 LINE",
"64.408 0 LINE"
);
},
{
closed = 1;
nodes = (
"246.641 291.379 LINE",
"396.66 291.379 LINE SMOOTH",
"469.806 291.379 OFFCURVE",
"497.981 269.738 OFFCURVE",
"497.981 215.893 CURVE SMOOTH",
"497.981 163.049 OFFCURVE",
"469.34 141.709 OFFCURVE",
"396.66 141.709 CURVE SMOOTH",
"246.641 141.709 LINE"
);
},
{
closed = 1;
nodes = (
"246.641 570.291 LINE",
"377.961 570.291 LINE SMOOTH",
"446.175 570.291 OFFCURVE",
"478.282 548.951 OFFCURVE",
"478.282 499.641 CURVE SMOOTH",
"478.282 453.262 OFFCURVE",
"446.874 432.854 OFFCURVE",
"377.961 432.854 CURVE SMOOTH",
"246.641 432.854 LINE"
);
}
);
width = 702.12621;
},
{
anchors = (
{
name = bottom;
position = "{343.883, 0}";
},
{
name = top;
position = "{343.146, 712}";
}
);
layerId = "A299C91D-11CD-42B0-B8D6-5EC4BEC07D9B";
paths = (
{
closed = 1;
nodes = (
"384.437 0 LINE SMOOTH",
"534.272 0 OFFCURVE",
"621.156 69.097 OFFCURVE",
"621.156 193.524 CURVE SMOOTH",
"621.156 287.738 OFFCURVE",
"567.68 351 OFFCURVE",
"477.893 369.049 CURVE",
"477.893 361.049 LINE",
"556.156 384.786 OFFCURVE",
"604.369 443.573 OFFCURVE",
"604.369 525.524 CURVE SMOOTH",
"604.369 644.69 OFFCURVE",
"518.747 712 OFFCURVE",
"373.699 712 CURVE SMOOTH",
"87.709 712 LINE",
"87.709 0 LINE"
);
},
{
closed = 1;
nodes = (
"168.971 327.301 LINE",
"377.243 327.301 LINE SMOOTH",
"487.282 327.301 OFFCURVE",
"539.728 283.33 OFFCURVE",
"539.728 195.505 CURVE SMOOTH",
"539.728 108.68 OFFCURVE",
"488.757 67.923 OFFCURVE",
"377.243 67.923 CURVE SMOOTH",
"168.971 67.923 LINE"
);
},
{
closed = 1;
nodes = (
"168.971 644.077 LINE",
"361.456 644.077 LINE SMOOTH",
"470.447 644.077 OFFCURVE",
"522.942 603.32 OFFCURVE",
"522.942 521.971 CURVE SMOOTH",
"522.942 439.67 OFFCURVE",
"468.233 395.961 OFFCURVE",
"361.456 395.961 CURVE SMOOTH",
"168.971 395.961 LINE"
);
}
);
width = 680.76699;
}
);
leftKerningGroup = H;
rightKerningGroup = B;
unicode = 0042;
userData = {
anchors = (
);
b = {
};
com.typemytype.robofont.layerData = {
b = {
anchors = (
);
components = (
);
contours = (
{
points = (
{
segmentType = curve;
smooth = 1;
x = 266;
y = 0;
},
{
segmentType = line;
smooth = 1;
x = 1035;
y = 0;
},
{
smooth = 0;
x = 1084;
y = 0;
},
{
smooth = 0;
x = 1108;
y = 36;
},
{
segmentType = curve;
smooth = 1;
x = 1108;
y = 73;
},
{
smooth = 0;
x = 1108;
y = 109;
},
{
smooth = 0;
x = 1084;
y = 145;
},
{
segmentType = curve;
smooth = 1;
x = 1035;
y = 145;
},
{
segmentType = line;
smooth = 0;
x = 353;
y = 145;
},
{
segmentType = line;
smooth = 0;
x = 353;
y = 662;
},
{
segmentType = line;
smooth = 1;
x = 975;
y = 662;
},
{
smooth = 0;
x = 1024;
y = 662;
},
{
smooth = 0;
x = 1049;
y = 698;
},
{
segmentType = curve;
smooth = 1;
x = 1049;
y = 734;
},
{
smooth = 0;
x = 1049;
y = 770;
},
{
smooth = 0;
x = 1026;
y = 806;
},
{
segmentType = curve;
smooth = 1;
x = 975;
y = 806;
},
{
segmentType = line;
smooth = 0;
x = 353;
y = 806;
},
{
segmentType = line;
smooth = 0;
x = 353;
y = 1281;
},
{
segmentType = line;
smooth = 1;
x = 1007;
y = 1281;
},
{
smooth = 0;
x = 1056;
y = 1281;
},
{
smooth = 0;
x = 1080;
y = 1317;
},
{
segmentType = curve;
smooth = 1;
x = 1080;
y = 1354;
},
{
smooth = 0;
x = 1080;
y = 1390;
},
{
smooth = 0;
x = 1056;
y = 1426;
},
{
segmentType = curve;
smooth = 1;
x = 1007;
y = 1426;
},
{
segmentType = line;
smooth = 1;
x = 261;
y = 1426;
},
{
smooth = 0;
x = 213;
y = 1426;
},
{
smooth = 0;
x = 178;
y = 1383;
},
{
segmentType = curve;
smooth = 1;
x = 178;
y = 1340;
},
{
segmentType = line;
smooth = 1;
x = 178;
y = 86;
},
{
smooth = 0;
x = 178;
y = 41;
},
{
smooth = 0;
x = 222;
y = 0;
}
);
}
);
lib = {
};
name = B;
unicodes = (
);
width = 1292;
};
};
components = (
);
contours = {
};
lib = {
};
name = B;
points = {
};
segmentType = curve;
unicodes = (
);
width = 1395;
x = 676;
y = 1260;
};
},
{
glyphname = C;
lastChange = "2019-01-16 15:38:45 +0000";
layers = (
{
anchors = (
{
name = bottom;
position = "{384.485, 0}";
},
{
name = top;
position = "{385.602, 712}";
}
);
layerId = "46D6449F-D991-45BF-8D03-34744F3491AE";
paths = (
{
closed = 1;
nodes = (
"483.252 -7.883 OFFCURVE",
"565.204 23.233 OFFCURVE",
"626.903 87.631 CURVE",
"606.049 123.243 LINE",
"535.233 58.379 OFFCURVE",
"470.65 32.796 OFFCURVE",
"384.437 32.796 CURVE SMOOTH",
"211.311 32.796 OFFCURVE",
"112.282 151.757 OFFCURVE",
"112.282 357 CURVE SMOOTH",
"112.282 561.243 OFFCURVE",
"212.427 679.204 OFFCURVE",
"384.437 679.204 CURVE SMOOTH",
"470.65 679.204 OFFCURVE",
"535.233 653.621 OFFCURVE",
"606.049 588.757 CURVE",
"626.903 624.369 LINE",
"565.204 688.767 OFFCURVE",
"483.252 719.883 OFFCURVE",
"384.786 719.883 CURVE SMOOTH",
"189.35 719.883 OFFCURVE",
"67.981 584.816 OFFCURVE",
"67.981 357 CURVE SMOOTH",
"67.981 128.184 OFFCURVE",
"189.35 -7.883 OFFCURVE",
"384.786 -7.883 CURVE SMOOTH"
);
}
);
width = 683.8835;
},
{
anchors = (
{
name = bottom;
position = "{402.029, 0}";
},
{
name = top;
position = "{401.796, 712}";
}
);
layerId = "6790C309-8F5A-452B-8BE0-8B8CBBA8D07C";
paths = (
{
closed = 1;
nodes = (
"503.495 -9.233 OFFCURVE",
"597.592 20.534 OFFCURVE",
"651.194 68.738 CURVE",
"593.903 201.515 LINE",
"532.534 158.243 OFFCURVE",
"474.699 139.408 OFFCURVE",
"414.126 139.408 CURVE SMOOTH",
"300.379 139.408 OFFCURVE",
"236.437 212.485 OFFCURVE",
"236.437 357 CURVE SMOOTH",
"236.437 500.515 OFFCURVE",
"300.146 572.592 OFFCURVE",
"414.126 572.592 CURVE SMOOTH",
"474.699 572.592 OFFCURVE",
"532.534 553.757 OFFCURVE",
"593.903 510.485 CURVE",
"651.194 643.262 LINE",
"597.592 691.466 OFFCURVE",
"503.495 721.233 OFFCURVE",
"410.427 721.233 CURVE SMOOTH",
"185.301 721.233 OFFCURVE",
"45.039 575.369 OFFCURVE",
"45.039 357 CURVE SMOOTH",
"45.039 137.631 OFFCURVE",
"185.301 -9.233 OFFCURVE",
"410.427 -9.233 CURVE SMOOTH"
);
}
);
width = 685.23301;
},
{
anchors = (
{
name = bottom;
position = "{389.407, 0}";
},
{
name = top;
position = "{390.146, 712}";
}
);
layerId = "A299C91D-11CD-42B0-B8D6-5EC4BEC07D9B";
paths = (
{
closed = 1;
nodes = (
"488.932 -8.262 OFFCURVE",
"574.291 22.476 OFFCURVE",
"633.718 82.33 CURVE",
"602.641 145.204 LINE",
"534.476 86.398 OFFCURVE",
"471.786 62.709 OFFCURVE",
"392.767 62.709 CURVE SMOOTH",
"236.301 62.709 OFFCURVE",
"147.117 168.796 OFFCURVE",
"147.117 357 CURVE SMOOTH",
"147.117 544.204 OFFCURVE",
"237.039 649.291 OFFCURVE",
"392.767 649.291 CURVE SMOOTH",
"471.786 649.291 OFFCURVE",
"534.476 625.602 OFFCURVE",
"602.641 566.796 CURVE",
"633.718 629.67 LINE",
"574.291 689.524 OFFCURVE",
"488.932 720.262 OFFCURVE",
"391.98 720.262 CURVE SMOOTH",
"188.214 720.262 OFFCURVE",
"61.544 582.165 OFFCURVE",
"61.544 357 CURVE SMOOTH",
"61.544 130.835 OFFCURVE",
"188.214 -8.262 OFFCURVE",
"391.98 -8.262 CURVE SMOOTH"
);
}
);
width = 684.26214;
}
);
leftKerningGroup = O;
rightKerningGroup = C;
unicode = 0043;
userData = {
anchors = (
);
b = {
};
com.typemytype.robofont.layerData = {
b = {
anchors = (
);
components = (
);
contours = (
);
lib = {
};
name = C;
unicodes = (
);
width = 1353.89;
};
};
components = (
);
contours = (
);
lib = {
};
name = C;
unicodes = (
);
width = 1354;
};
},
{
glyphname = D;
lastChange = "2019-01-16 15:38:45 +0000";
layers = (
{
anchors = (
{
name = bottom;
position = "{367.019, 0}";
},
{
name = center;
position = "{367.019, 357}";
},
{
name = top;
position = "{365.903, 712}";
}
);
layerId = "46D6449F-D991-45BF-8D03-34744F3491AE";
paths = (
{
closed = 1;
nodes = (
"315.621 0 LINE SMOOTH",
"538.107 0 OFFCURVE",
"664.942 127.534 OFFCURVE",
"664.942 357 CURVE SMOOTH",
"664.942 585.583 OFFCURVE",
"539.34 712 OFFCURVE",
"315.621 712 CURVE SMOOTH",
"96.796 712 LINE",
"96.796 0 LINE"
);
},
{
closed = 1;
nodes = (
"138.214 673.67 LINE",
"314.67 673.67 LINE SMOOTH",
"517.146 673.67 OFFCURVE",
"619.058 567.291 OFFCURVE",
"619.058 357 CURVE SMOOTH",
"619.058 146.825 OFFCURVE",
"516.029 38.33 OFFCURVE",
"314.67 38.33 CURVE SMOOTH",
"138.214 38.33 LINE"
);
}
);
width = 732.80583;
},
{
anchors = (
{
name = bottom;
position = "{389.961, 0}";
},
{
name = center;
position = "{389.961, 357}";
},
{
name = top;
position = "{390.194, 712}";
}
);
layerId = "6790C309-8F5A-452B-8BE0-8B8CBBA8D07C";
paths = (
{
closed = 1;
nodes = (
"354.757 0 LINE SMOOTH",
"594.786 0 OFFCURVE",
"735.117 132.932 OFFCURVE",
"735.117 357 CURVE SMOOTH",
"735.117 578.835 OFFCURVE",
"593.32 712 OFFCURVE",
"354.757 712 CURVE SMOOTH",
"64.408 712 LINE",
"64.408 0 LINE"
);
},
{
closed = 1;
nodes = (
"251.573 561.66 LINE",
"341.66 561.66 LINE SMOOTH",
"480.709 561.66 OFFCURVE",
"548.883 494.417 OFFCURVE",
"548.883 357 CURVE SMOOTH",
"548.883 218.35 OFFCURVE",
"480.942 150.34 OFFCURVE",
"341.66 150.34 CURVE SMOOTH",
"251.573 150.34 LINE"
);
}
);
width = 781.38835;
},
{
anchors = (
{
name = bottom;
position = "{373.456, 0}";
},
{
name = center;
position = "{373.456, 357}";
},
{
name = top;
position = "{372.718, 712}";
}
);
layerId = "A299C91D-11CD-42B0-B8D6-5EC4BEC07D9B";
paths = (
{
closed = 1;
nodes = (
"326.602 0 LINE SMOOTH",
"554.01 0 OFFCURVE",
"684.631 129.049 OFFCURVE",
"684.631 357 CURVE SMOOTH",
"684.631 583.69 OFFCURVE",
"554.485 712 OFFCURVE",
"326.602 712 CURVE SMOOTH",
"87.709 712 LINE",
"87.709 0 LINE"
);
},
{
closed = 1;
nodes = (
"170.02 642.243 LINE",
"322.243 642.243 LINE SMOOTH",
"506.923 642.243 OFFCURVE",
"599.369 546.844 OFFCURVE",
"599.369 357 CURVE SMOOTH",
"599.369 166.893 OFFCURVE",
"506.184 69.757 OFFCURVE",
"322.243 69.757 CURVE SMOOTH",
"170.02 69.757 LINE"
);
}
);
width = 746.4369;
}
);
leftKerningGroup = H;
rightKerningGroup = O;
unicode = 0044;
userData = {
anchors = (
);
b = {
};
com.typemytype.robofont.layerData = {
b = {
anchors = (
);
components = (
);
contours = (
{
points = (
{
segmentType = curve;
smooth = 1;
x = 266;
y = 0;
},
{
segmentType = line;
smooth = 1;
x = 1035;
y = 0;
},
{
smooth = 0;
x = 1084;
y = 0;
},
{
smooth = 0;
x = 1108;
y = 34;
},
{
segmentType = curve;
smooth = 1;
x = 1108;
y = 71;
},
{
smooth = 0;
x = 1108;
y = 107;
},
{
smooth = 0;
x = 1084;
y = 141;
},
{
segmentType = curve;
smooth = 1;
x = 1035;
y = 141;
},
{
segmentType = line;
smooth = 0;
x = 356;
y = 141;
},
{
segmentType = line;
smooth = 0;
x = 356;
y = 665;
},
{
segmentType = line;
smooth = 1;
x = 975;
y = 665;
},
{
smooth = 0;
x = 1024;
y = 665;
},
{
smooth = 0;
x = 1049;
y = 698;
},
{
segmentType = curve;
smooth = 1;
x = 1049;
y = 734;
},
{
smooth = 0;
x = 1049;
y = 770;
},
{
smooth = 0;
x = 1026;
y = 803;
},
{
segmentType = curve;
smooth = 1;
x = 975;
y = 803;
},
{
segmentType = line;
smooth = 0;
x = 356;
y = 803;
},
{
segmentType = line;
smooth = 0;
x = 356;
y = 1285;
},
{
segmentType = line;
smooth = 1;
x = 1007;
y = 1285;
},
{
smooth = 0;
x = 1056;
y = 1285;
},
{
smooth = 0;
x = 1080;
y = 1319;
},
{
segmentType = curve;
smooth = 1;
x = 1080;
y = 1356;
},
{
smooth = 0;
x = 1080;
y = 1392;
},
{
smooth = 0;
x = 1056;
y = 1426;
},
{
segmentType = curve;
smooth = 1;
x = 1007;
y = 1426;
},
{
segmentType = line;
smooth = 1;
x = 261;
y = 1426;
},
{
smooth = 0;
x = 213;
y = 1426;
},
{
smooth = 0;
x = 178;
y = 1383;
},
{
segmentType = curve;
smooth = 1;
x = 178;
y = 1340;
},
{
segmentType = line;
smooth = 1;
x = 178;
y = 86;
},
{
smooth = 0;
x = 178;
y = 41;
},
{
smooth = 0;
x = 222;
y = 0;
}
);
}
);
lib = {
};
name = D;
unicodes = (
);
width = 1499;
};
};
components = (
);
contours = (
);
lib = {
};
name = D;
unicodes = (
);
width = 1535;
};
},
{
glyphname = Eth;
lastChange = "2019-01-16 15:38:45 +0000";
layers = (
{
layerId = "46D6449F-D991-45BF-8D03-34744F3491AE";
paths = (
{
closed = 1;
nodes = (
"340.583 342.66 LINE",
"340.583 380.806 LINE",
"3.835 380.806 LINE",
"3.835 342.66 LINE"
);
},
{
closed = 1;
nodes = (
"319.709 0 LINE SMOOTH",
"542.311 0 OFFCURVE",
"669.146 127.534 OFFCURVE",
"669.146 357 CURVE SMOOTH",
"669.146 585.583 OFFCURVE",
"543.544 712 OFFCURVE",
"319.709 712 CURVE SMOOTH",
"101 712 LINE",
"101 0 LINE"
);
},
{
closed = 1;
nodes = (
"143.417 673.67 LINE",
"318.757 673.67 LINE SMOOTH",
"521.35 673.67 OFFCURVE",
"623.262 567.291 OFFCURVE",
"623.262 357 CURVE SMOOTH",
"623.262 146.825 OFFCURVE",
"520.233 38.33 OFFCURVE",
"318.757 38.33 CURVE SMOOTH",
"143.417 38.33 LINE"
);
}
);
width = 737.00971;
},
{
layerId = "6790C309-8F5A-452B-8BE0-8B8CBBA8D07C";
paths = (
{
closed = 1;
nodes = (
"472.835 288.68 LINE",
"472.835 429.388 LINE",
"17.33 429.388 LINE",
"17.33 288.68 LINE"
);
},
{
closed = 1;
nodes = (
"392.583 0 LINE SMOOTH",
"631.379 0 OFFCURVE",
"771.709 132.932 OFFCURVE",
"771.709 357 CURVE SMOOTH",
"771.709 578.835 OFFCURVE",
"629.913 712 OFFCURVE",
"392.583 712 CURVE SMOOTH",
"101 712 LINE",
"101 0 LINE"
);
},
{
closed = 1;
nodes = (
"289.165 561.66 LINE",
"379.485 561.66 LINE SMOOTH",
"517.301 561.66 OFFCURVE",
"585.476 494.417 OFFCURVE",
"585.476 357 CURVE SMOOTH",
"585.476 218.35 OFFCURVE",
"517.534 150.34 OFFCURVE",
"379.485 150.34 CURVE SMOOTH",
"289.165 150.34 LINE"
);
}
);
width = 817.98058;
},
{
layerId = "A299C91D-11CD-42B0-B8D6-5EC4BEC07D9B";
paths = (
{
closed = 1;
nodes = (
"377.69 327.515 LINE",
"377.69 394.437 LINE",
"7.621 394.437 LINE",
"7.621 327.515 LINE"
);
},
{
closed = 1;
nodes = (
"340.156 0 LINE SMOOTH",
"567.301 0 OFFCURVE",
"697.923 129.049 OFFCURVE",
"697.923 357 CURVE SMOOTH",
"697.923 583.69 OFFCURVE",
"567.777 712 OFFCURVE",
"340.156 712 CURVE SMOOTH",
"101 712 LINE",
"101 0 LINE"
);
},
{
closed = 1;
nodes = (
"184.31 642.243 LINE",
"335.796 642.243 LINE SMOOTH",
"520.214 642.243 OFFCURVE",
"612.66 546.844 OFFCURVE",
"612.66 357 CURVE SMOOTH",
"612.66 166.893 OFFCURVE",
"519.476 69.757 OFFCURVE",
"335.796 69.757 CURVE SMOOTH",
"184.31 69.757 LINE"
);
}
);
width = 759.72816;
}
);
leftKerningGroup = H;
rightKerningGroup = O;
unicode = 00D0;
},
{
glyphname = E;
lastChange = "2019-01-16 15:38:45 +0000";
layers = (
{
anchors = (
{
name = bottom;
position = "{322.835, 0}";
},
{
name = ogonek;
position = "{506.388, 10}";
},
{
name = top;
position = "{322.835, 712}";
},
{
name = topleft;
position = "{26.583, 712}";
}
);
layerId = "46D6449F-D991-45BF-8D03-34744F3491AE";
paths = (
{
closed = 1;
nodes = (
"524.922 0 LINE",
"524.922 38.913 LINE",
"138.68 38.913 LINE",
"138.68 341.427 LINE",
"505.039 341.427 LINE",
"505.039 381.456 LINE",
"138.68 381.456 LINE",
"138.68 673.087 LINE",
"524.922 673.087 LINE",
"524.922 712 LINE",
"96.796 712 LINE",
"96.796 0 LINE"
);
}
);
width = 582.13592;
},
{
anchors = (
{
name = bottom;
position = "{336.33, 0}";
},
{
name = ogonek;
position = "{548.223, 10}";
},
{
name = top;
position = "{336.33, 712}";
},
{
name = topleft;
position = "{19.835, 712}";
}
);
layerId = "6790C309-8F5A-452B-8BE0-8B8CBBA8D07C";
paths = (
{
closed = 1;
nodes = (
"572.155 0 LINE",
"572.155 144.175 LINE",
"246.641 144.175 LINE",
"246.641 290.146 LINE",
"550.922 290.146 LINE",
"550.922 434.087 LINE",
"246.641 434.087 LINE",
"246.641 567.825 LINE",
"572.155 567.825 LINE",
"572.155 712 LINE",
"64.408 712 LINE",
"64.408 0 LINE"
);
}
);
width = 603.72816;
},
{
anchors = (
{
name = bottom;
position = "{326.621, 0}";
},
{
name = ogonek;
position = "{518.126, 10}";
},
{
name = top;
position = "{326.621, 712}";
},
{
name = topleft;
position = "{24.69, 712}";
}
);
layerId = "A299C91D-11CD-42B0-B8D6-5EC4BEC07D9B";
paths = (
{
closed = 1;
nodes = (
"538.174 0 LINE",
"538.174 68.447 LINE",
"168.971 68.447 LINE",
"168.971 327.039 LINE",
"517.913 327.039 LINE",
"517.913 396.223 LINE",
"168.971 396.223 LINE",
"168.971 643.553 LINE",
"538.174 643.553 LINE",
"538.174 712 LINE",
"87.709 712 LINE",
"87.709 0 LINE"
);
}
);
width = 588.19417;
}
);
leftKerningGroup = H;
rightKerningGroup = E;
unicode = 0045;
userData = {
anchors = (
);
b = {
};
com.typemytype.robofont.layerData = {
b = {
anchors = (
);
components = (
);
contours = (
);
lib = {
};
name = E;
unicodes = (
);
width = 1234;
};
};
components = (
);
contours = (
);
lib = {
};
name = E;
unicodes = (
);
width = 1258;
};
},
{
glyphname = Eogonek;
lastChange = "2019-01-16 15:38:45 +0000";
layers = (
{
anchors = (
{
name = top;
position = "{322.835, 712}";
}
);
layerId = "46D6449F-D991-45BF-8D03-34744F3491AE";
paths = (
{
closed = 1;
nodes = (
"518.99 -146.379 OFFCURVE",
"496.641 -152.612 OFFCURVE",
"480.757 -152.612 CURVE SMOOTH",
"439.408 -152.612 OFFCURVE",
"410.592 -129.029 OFFCURVE",
"410.592 -85.097 CURVE SMOOTH",
"410.592 -37.282 OFFCURVE",
"443.175 0 OFFCURVE",
"513.087 0 CURVE SMOOTH",
"524.922 0 LINE",
"524.922 38.913 LINE",
"138.68 38.913 LINE",
"138.68 341.427 LINE",
"505.039 341.427 LINE",
"505.039 381.456 LINE",
"138.68 381.456 LINE",
"138.68 673.087 LINE",
"524.922 673.087 LINE",
"524.922 712 LINE",
"96.796 712 LINE",
"96.796 0 LINE",
"451.417 0 LINE",
"435.767 18.883 LINE",
"390.65 -5 OFFCURVE",
"366.417 -42 OFFCURVE",
"366.417 -89.117 CURVE SMOOTH",
"366.417 -148.534 OFFCURVE",
"410.485 -192.301 OFFCURVE",
"478.67 -192.301 CURVE SMOOTH",
"511.32 -192.301 OFFCURVE",
"538.388 -181.951 OFFCURVE",
"557.223 -168.951 CURVE",
"540.223 -133.913 LINE"
);
}
);
width = 582.13592;
},
{
anchors = (
{
name = top;
position = "{336.33, 712}";
}
);
layerId = "6790C309-8F5A-452B-8BE0-8B8CBBA8D07C";
paths = (
{
closed = 1;
nodes = (
"577.019 -107.243 OFFCURVE",
"558.718 -110.777 OFFCURVE",
"541.485 -110.777 CURVE SMOOTH",
"504.184 -110.777 OFFCURVE",
"484.816 -93.942 OFFCURVE",
"484.816 -60.806 CURVE SMOOTH",
"484.816 -22.437 OFFCURVE",
"510.65 0 OFFCURVE",
"546.825 0 CURVE SMOOTH",
"572.155 0 LINE",
"572.155 144.175 LINE",
"246.641 144.175 LINE",
"246.641 290.146 LINE",
"550.922 290.146 LINE",
"550.922 434.087 LINE",
"246.641 434.087 LINE",
"246.641 567.825 LINE",
"572.155 567.825 LINE",
"572.155 712 LINE",
"64.408 712 LINE",
"64.408 0 LINE",
"458.165 0 LINE",
"438.466 20.233 LINE",
"394.699 -5 OFFCURVE",
"373.165 -42 OFFCURVE",
"373.165 -87.767 CURVE SMOOTH",
"373.165 -153.932 OFFCURVE",
"428.029 -200.398 OFFCURVE",
"505.66 -200.398 CURVE SMOOTH",
"542.359 -200.398 OFFCURVE",
"580.223 -194.097 OFFCURVE",
"612.553 -181.097 CURVE",
"595.553 -100.175 LINE"
);
}
);
width = 603.72816;
},
{
anchors = (
{
name = top;
position = "{326.621, 712}";
}
);
layerId = "A299C91D-11CD-42B0-B8D6-5EC4BEC07D9B";
paths = (
{
closed = 1;
nodes = (
"535.272 -135.398 OFFCURVE",
"514.058 -140.874 OFFCURVE",
"497.796 -140.874 CURVE SMOOTH",
"457.583 -140.874 OFFCURVE",
"431.417 -119.184 OFFCURVE",
"431.417 -78.282 CURVE SMOOTH",
"431.417 -33.117 OFFCURVE",
"462.107 0 OFFCURVE",
"522.553 0 CURVE SMOOTH",
"538.174 0 LINE",
"538.174 68.447 LINE",
"168.971 68.447 LINE",
"168.971 327.039 LINE",
"517.913 327.039 LINE",
"517.913 396.223 LINE",
"168.971 396.223 LINE",
"168.971 643.553 LINE",
"538.174 643.553 LINE",
"538.174 712 LINE",
"87.709 712 LINE",
"87.709 0 LINE",
"453.31 0 LINE",
"436.524 19.262 LINE",
"391.786 -5 OFFCURVE",
"368.31 -42 OFFCURVE",
"368.31 -88.738 CURVE SMOOTH",
"368.31 -150.049 OFFCURVE",
"415.407 -194.573 OFFCURVE",
"486.243 -194.573 CURVE SMOOTH",
"520.029 -194.573 OFFCURVE",
"550.126 -185.359 OFFCURVE",
"572.747 -172.359 CURVE",
"555.747 -124.447 LINE"
);
}
);
width = 588.19417;
}
);
leftKerningGroup = H;
rightKerningGroup = E;
unicode = 0118;
userData = {
com.typemytype.robofont.layerData = {
b = {
anchors = (
);
components = (
);
contours = (
);
lib = {
};
name = Eogonek;
unicodes = (
);
width = 1234;
};
};
};
},
{
glyphname = F;
lastChange = "2019-01-16 15:38:45 +0000";
layers = (
{
anchors = (
{
name = bottom;
position = "{307.835, 0}";
},
{
name = top;
position = "{287.65, 712}";
}
);
layerId = "46D6449F-D991-45BF-8D03-34744F3491AE";
paths = (
{
closed = 1;
nodes = (
"138.447 0 LINE",
"138.447 341.544 LINE",
"495.039 341.544 LINE",
"495.039 381.34 LINE",
"138.447 381.34 LINE",
"138.447 673.32 LINE",
"515.039 673.32 LINE",
"515.039 712 LINE",
"96.796 712 LINE",
"96.796 0 LINE"
);
}
);
width = 554.43689;
},
{
anchors = (
{
name = bottom;
position = "{321.33, 0}";
},
{
name = top;
position = "{291.699, 712}";
}
);
layerId = "6790C309-8F5A-452B-8BE0-8B8CBBA8D07C";
paths = (
{
closed = 1;
nodes = (
"249.107 0 LINE",
"249.107 288.913 LINE",
"540.922 288.913 LINE",
"540.922 435.32 LINE",
"249.107 435.32 LINE",
"249.107 565.359 LINE",
"560.922 565.359 LINE",
"560.922 712 LINE",
"64.408 712 LINE",
"64.408 0 LINE"
);
}
);
width = 584.12621;
},
{
anchors = (
{
name = bottom;
position = "{311.621, 0}";
},
{
name = top;
position = "{288.786, 712}";
}
);
layerId = "A299C91D-11CD-42B0-B8D6-5EC4BEC07D9B";
paths = (
{
closed = 1;
nodes = (
"169.495 0 LINE",
"169.495 326.777 LINE",
"507.913 326.777 LINE",
"507.913 396.485 LINE",
"169.495 396.485 LINE",
"169.495 643.029 LINE",
"527.913 643.029 LINE",
"527.913 712 LINE",
"87.709 712 LINE",
"87.709 0 LINE"
);
}
);
width = 562.76699;
}
);
leftKerningGroup = H;
rightKerningGroup = F;
unicode = 0046;
userData = {
anchors = (
);
b = {
};
com.typemytype.robofont.layerData = {
b = {
anchors = (
);
components = (
);
contours = (
{
points = (
{
segmentType = curve;
smooth = 1;
x = 266;
y = 0;
},
{
segmentType = line;
smooth = 1;
x = 1035;
y = 0;
},
{
smooth = 0;
x = 1084;
y = 0;
},
{
smooth = 0;
x = 1108;
y = 34;
},
{
segmentType = curve;
smooth = 1;
x = 1108;
y = 71;
},
{
smooth = 0;
x = 1108;
y = 107;
},
{
smooth = 0;
x = 1084;
y = 141;
},
{
segmentType = curve;
smooth = 1;
x = 1035;
y = 141;
},
{
segmentType = line;
smooth = 0;
x = 353;
y = 141;
},
{
segmentType = line;
smooth = 0;
x = 353;
y = 665;
},
{
segmentType = line;
smooth = 1;
x = 975;
y = 665;
},
{
smooth = 0;
x = 1024;
y = 665;
},
{
smooth = 0;
x = 1049;
y = 698;
},
{
segmentType = curve;
smooth = 1;
x = 1049;
y = 734;
},
{
smooth = 0;
x = 1049;
y = 770;
},
{
smooth = 0;
x = 1026;
y = 803;
},
{
segmentType = curve;
smooth = 1;
x = 975;
y = 803;
},
{
segmentType = line;
smooth = 0;
x = 353;
y = 803;
},
{
segmentType = line;
smooth = 0;
x = 353;
y = 1285;
},
{
segmentType = line;
smooth = 1;
x = 1007;
y = 1285;
},
{
smooth = 0;
x = 1056;
y = 1285;
},
{
smooth = 0;
x = 1080;
y = 1319;
},
{
segmentType = curve;
smooth = 1;
x = 1080;
y = 1356;
},
{
smooth = 0;
x = 1080;
y = 1392;
},
{
smooth = 0;
x = 1056;
y = 1426;
},
{
segmentType = curve;
smooth = 1;
x = 1007;
y = 1426;
},
{
segmentType = line;
smooth = 1;
x = 261;
y = 1426;
},
{
smooth = 0;
x = 213;
y = 1426;
},
{
smooth = 0;
x = 178;
y = 1383;
},
{
segmentType = curve;
smooth = 1;
x = 178;
y = 1340;
},
{
segmentType = line;
smooth = 1;
x = 178;
y = 86;
},
{
smooth = 0;
x = 178;
y = 41;
},
{
smooth = 0;
x = 222;
y = 0;
}
);
}
);
lib = {
};
name = F;
unicodes = (
);
width = 1142;
};
};
components = (
);
contours = (
);
lib = {
};
name = F;
unicodes = (
);
width = 1175;
};
},
{
glyphname = G;
lastChange = "2019-01-16 15:38:45 +0000";
layers = (
{
anchors = (
{
name = bottom;
position = "{394.437, 0}";
},
{
name = top;
position = "{387.437, 712}";
}
);
layerId = "46D6449F-D991-45BF-8D03-34744F3491AE";
paths = (
{
closed = 1;
nodes = (
"485.854 -7.883 OFFCURVE",
"584.971 12.233 OFFCURVE",
"633.641 39.534 CURVE",
"633.641 359.272 LINE",
"397.534 359.272 LINE",
"397.534 317.728 LINE",
"594.825 317.728 LINE",
"594.825 35.408 LINE",
"606.262 74.126 LINE",
"551.68 49.194 OFFCURVE",
"473.883 32.262 OFFCURVE",
"393.621 32.262 CURVE SMOOTH",
"212.544 32.262 OFFCURVE",
"112.398 148.107 OFFCURVE",
"112.398 357 CURVE SMOOTH",
"112.398 562.01 OFFCURVE",
"212.777 679.087 OFFCURVE",
"386.854 679.087 CURVE SMOOTH",
"473.369 679.087 OFFCURVE",
"538.068 653.388 OFFCURVE",
"608.417 588.524 CURVE",
"629.155 624.136 LINE",
"567.806 688.65 OFFCURVE",
"486.087 719.883 OFFCURVE",
"389.67 719.883 CURVE SMOOTH",
"189.883 719.883 OFFCURVE",
"67.981 586.583 OFFCURVE",
"67.981 357 CURVE SMOOTH",
"67.981 126.883 OFFCURVE",
"188.883 -7.883 OFFCURVE",
"394.437 -7.883 CURVE SMOOTH"
);
}
);
width = 722.5534;
},
{
anchors = (
{
name = bottom;
position = "{424.126, 0}";
},
{
name = top;
position = "{417.126, 712}";
}
);
layerId = "6790C309-8F5A-452B-8BE0-8B8CBBA8D07C";
paths = (
{
closed = 1;
nodes = (
"522.291 -9.233 OFFCURVE",
"620.058 9.534 OFFCURVE",
"695.718 44.932 CURVE",
"695.718 402.456 LINE",
"402.932 402.456 LINE",
"402.932 274.544 LINE",
"527.35 274.544 LINE",
"527.35 100.184 LINE",
"568.476 153.748 LINE",
"520.641 139.612 OFFCURVE",
"475.233 133.476 OFFCURVE",
"432.757 133.476 CURVE SMOOTH",
"298.913 133.476 OFFCURVE",
"235.204 204.786 OFFCURVE",
"235.204 357 CURVE SMOOTH",
"235.204 503.981 OFFCURVE",
"296.447 573.825 OFFCURVE",
"423.291 573.825 CURVE SMOOTH",
"492.262 573.825 OFFCURVE",
"548.864 556.223 OFFCURVE",
"615.165 512.951 CURVE",
"673.689 645.728 LINE",
"616.388 692.699 OFFCURVE",
"519.825 721.233 OFFCURVE",
"416.66 721.233 CURVE SMOOTH",
"191.233 721.233 OFFCURVE",
"45.039 579.835 OFFCURVE",
"45.039 357 CURVE SMOOTH",
"45.039 128.233 OFFCURVE",
"190.233 -9.233 OFFCURVE",
"424.126 -9.233 CURVE SMOOTH"
);
}
);
width = 750.8932;
},
{
anchors = (
{
name = bottom;
position = "{402.767, 0}";
},
{
name = top;
position = "{395.767, 712}";
}
);
layerId = "A299C91D-11CD-42B0-B8D6-5EC4BEC07D9B";
paths = (
{
closed = 1;
nodes = (
"496.077 -8.262 OFFCURVE",
"594.816 11.476 OFFCURVE",
"651.058 41.049 CURVE",
"651.058 371.388 LINE",
"399.049 371.388 LINE",
"399.049 305.612 LINE",
"575.893 305.612 LINE",
"575.893 53.583 LINE",
"595.66 96.466 LINE",
"542.971 74.563 OFFCURVE",
"474.262 60.66 OFFCURVE",
"404.602 60.66 CURVE SMOOTH",
"236.777 60.66 OFFCURVE",
"146.854 164.01 OFFCURVE",
"146.854 357 CURVE SMOOTH",
"146.854 545.728 OFFCURVE",
"236.253 649.553 OFFCURVE",
"397.077 649.553 CURVE SMOOTH",
"478.67 649.553 OFFCURVE",
"541.097 626.126 OFFCURVE",
"610.31 567.32 CURVE",
"641.65 630.194 LINE",
"581.437 689.786 OFFCURVE",
"495.553 720.262 OFFCURVE",
"397.243 720.262 CURVE SMOOTH",
"190.262 720.262 OFFCURVE",
"61.544 584.69 OFFCURVE",
"61.544 357 CURVE SMOOTH",
"61.544 127.262 OFFCURVE",
"189.262 -8.262 OFFCURVE",
"402.767 -8.262 CURVE SMOOTH"
);
}
);
width = 730.50485;
}
);
leftKerningGroup = O;
rightKerningGroup = G;
unicode = 0047;
userData = {
anchors = (
);
b = {
};
com.typemytype.robofont.layerData = {
b = {
anchors = (
);
components = (
);
contours = (
{
points = (
{
segmentType = curve;
smooth = 1;
x = 783;
y = "-22";
},
{
smooth = 0;
x = 965;
y = "-22";
},
{
smooth = 0;
x = 1086;
y = 34;
},
{
segmentType = curve;
smooth = 1;
x = 1166;
y = 86;
},
{
smooth = 0;
x = 1270;
y = 154;
},
{
smooth = 0;
x = 1186;
y = 258;
},
{
segmentType = curve;
smooth = 1;
x = 1112;
y = 214;
},
{
smooth = 0;
x = 1024;
y = 162;
},
{
smooth = 0;
x = 939;
y = 120;
},
{
segmentType = curve;
smooth = 1;
x = 806;
y = 120;
},
{
smooth = 0;
x = 446;
y = 120;
},
{
smooth = 0;
x = 316;
y = 406;
},
{
segmentType = curve;
smooth = 1;
x = 316;
y = 706;
},
{
smooth = 0;
x = 316;
y = 1005;
},
{
smooth = 0;
x = 450;
y = 1296;
},
{
segmentType = curve;
smooth = 1;
x = 801;
y = 1296;
},
{
smooth = 0;
x = 980;
y = 1296;
},
{
smooth = 0;
x = 1053;
y = 1246;
},
{
segmentType = curve;
smooth = 1;
x = 1094;
y = 1225;
},
{
smooth = 0;
x = 1174;
y = 1184;
},
{
smooth = 0;
x = 1231;
y = 1300;
},
{
segmentType = curve;
smooth = 1;
x = 1156;
y = 1343;
},
{
smooth = 0;
x = 1106;
y = 1372;
},
{
smooth = 0;
x = 995;
y = 1438;
},
{
segmentType = curve;
smooth = 1;
x = 797;
y = 1438;
},
{
smooth = 0;
x = 359;
y = 1438;
},
{
smooth = 0;
x = 128;
y = 1093;
},
{
segmentType = curve;
smooth = 1;
x = 128;
y = 704;
},
{
smooth = 0;
x = 128;
y = 307;
},
{
smooth = 0;
x = 350;
y = "-22";
}
);
}
);
lib = {
};
name = G;
unicodes = (
);
width = 1448;
};
};
components = (
);
contours = (
);
lib = {
};
name = G;
unicodes = (
);
width = 1538;
};
},
{
glyphname = H;
lastChange = "2019-01-16 15:38:45 +0000";
layers = (
{
anchors = (
{
name = bottom;
position = "{379.951, 0}";
},
{
name = center;
position = "{379.951, 362}";
},
{
name = top;
position = "{378.835, 712}";
},
{
name = topleft;
position = "{26.583, 712}";
}
);
layerId = "46D6449F-D991-45BF-8D03-34744F3491AE";
paths = (
{
closed = 1;
nodes = (
"661.99 0 LINE",
"661.99 712 LINE",
"619.223 712 LINE",
"619.223 0 LINE"
);
},
{
closed = 1;
nodes = (
"138.563 0 LINE",
"138.563 712 LINE",
"96.796 712 LINE",
"96.796 0 LINE"
);
},
{
closed = 1;
nodes = (
"640.417 341.66 LINE",
"640.417 381.34 LINE",
"128.816 381.34 LINE",
"128.816 341.66 LINE"
);
}
);
width = 758.78641;
},
{
anchors = (
{
name = bottom;
position = "{392.097, 0}";
},
{
name = center;
position = "{392.097, 362}";
},
{
name = top;
position = "{392.33, 712}";
},
{
name = topleft;
position = "{19.835, 712}";
}
);
layerId = "6790C309-8F5A-452B-8BE0-8B8CBBA8D07C";
paths = (
{
closed = 1;
nodes = (
"720.019 0 LINE",
"720.019 712 LINE",
"535.553 712 LINE",
"535.553 0 LINE"
);
},
{
closed = 1;
nodes = (
"247.874 0 LINE",
"247.874 712 LINE",
"64.408 712 LINE",
"64.408 0 LINE"
);
},
{
closed = 1;
nodes = (
"647.165 287.68 LINE",
"647.165 435.32 LINE",
"119.369 435.32 LINE",
"119.369 287.68 LINE"
);
}
);
width = 784.42718;
},
{
anchors = (
{
name = bottom;
position = "{383.359, 0}";
},
{
name = center;
position = "{383.359, 362}";
},
{
name = top;
position = "{382.621, 712}";
},
{
name = topleft;
position = "{24.69, 712}";
}
);
layerId = "A299C91D-11CD-42B0-B8D6-5EC4BEC07D9B";
paths = (
{
closed = 1;
nodes = (
"678.272 0 LINE",
"678.272 712 LINE",
"595.747 712 LINE",
"595.747 0 LINE"
);
},
{
closed = 1;
nodes = (
"169.233 0 LINE",
"169.233 712 LINE",
"87.709 712 LINE",
"87.709 0 LINE"
);
},
{
closed = 1;
nodes = (
"642.31 326.515 LINE",
"642.31 396.485 LINE",
"126.165 396.485 LINE",
"126.165 326.515 LINE"
);
}
);
width = 765.98058;
}
);
leftKerningGroup = H;
rightKerningGroup = H;
unicode = 0048;
userData = {
anchors = (
);
b = {
};
com.typemytype.robofont.layerData = {
b = {
anchors = (
);
components = (
);
contours = (
);
lib = {
};
name = H;
unicodes = (
);
width = 1464;
};
};
components = (
);
contours = (
);
lib = {
};
name = H;
unicodes = (
);
width = 1524;
};
},
{
glyphname = Hbar;
lastChange = "2019-01-16 15:38:45 +0000";
layers = (
{
layerId = "46D6449F-D991-45BF-8D03-34744F3491AE";
paths = (
{
closed = 1;
nodes = (
"763.359 532.097 LINE",
"763.359 570.709 LINE",
"3.835 570.709 LINE",
"3.835 532.097 LINE"
);
},
{
closed = 1;
nodes = (
"666.194 0 LINE",
"666.194 712 LINE",
"623.311 712 LINE",
"623.311 0 LINE"
);
},
{
closed = 1;
nodes = (
"143.767 0 LINE",
"143.767 712 LINE",
"101 712 LINE",
"101 0 LINE"
);
},
{
closed = 1;
nodes = (
"623.291 341.66 LINE",
"623.291 381.34 LINE",
"134.019 381.34 LINE",
"134.019 341.66 LINE"
);
}
);
width = 767.19417;
},
{
layerId = "6790C309-8F5A-452B-8BE0-8B8CBBA8D07C";
paths = (
{
closed = 1;
nodes = (
"840.282 507.806 LINE",
"840.282 643.583 LINE",
"17.33 643.583 LINE",
"17.33 507.806 LINE"
);
},
{
closed = 1;
nodes = (
"756.612 0 LINE",
"756.612 712 LINE",
"573.379 712 LINE",
"573.379 0 LINE"
);
},
{
closed = 1;
nodes = (
"285.466 0 LINE",
"285.466 712 LINE",
"101 712 LINE",
"101 0 LINE"
);
},
{
closed = 1;
nodes = (
"689.417 287.68 LINE",
"689.417 435.32 LINE",
"156.961 435.32 LINE",
"156.961 287.68 LINE"
);
}
);
width = 857.61165;
},
{
layerId = "A299C91D-11CD-42B0-B8D6-5EC4BEC07D9B";
paths = (
{
closed = 1;
nodes = (
"784.942 525.282 LINE",
"784.942 591.156 LINE",
"7.621 591.156 LINE",
"7.621 525.282 LINE"
);
},
{
closed = 1;
nodes = (
"691.563 0 LINE",
"691.563 712 LINE",
"609.301 712 LINE",
"609.301 0 LINE"
);
},
{
closed = 1;
nodes = (
"183.524 0 LINE",
"183.524 712 LINE",
"101 712 LINE",
"101 0 LINE"
);
},
{
closed = 1;
nodes = (
"641.844 326.515 LINE",
"641.844 396.485 LINE",
"140.456 396.485 LINE",
"140.456 326.515 LINE"
);
}
);
width = 792.5631;
}
);
leftKerningGroup = H;
rightKerningGroup = H;
unicode = 0126;
userData = {
com.typemytype.robofont.layerData = {
b = {
anchors = (
);
components = (
);
contours = (
);
lib = {
};
name = Hbar;
unicodes = (
);
width = 1464;
};
};
};
},
{
glyphname = I;
lastChange = "2019-01-16 15:38:45 +0000";
layers = (
{
anchors = (
{
name = bottom;
position = "{117.621, 0}";
},
{
name = ogonek;
position = "{138.359, 10}";
},
{
name = top;
position = "{117.621, 712}";
},
{
name = topleft;
position = "{26.583, 712}";
}
);
layerId = "46D6449F-D991-45BF-8D03-34744F3491AE";
paths = (
{
closed = 1;
nodes = (
"138.214 0 LINE",
"138.214 712 LINE",
"96.796 712 LINE",
"96.796 0 LINE"
);
}
);
width = 235.00971;
},
{
anchors = (
{
name = bottom;
position = "{156.757, 0}";
},
{
name = ogonek;
position = "{215.282, 10}";
},
{
name = top;
position = "{156.757, 712}";
},
{
name = topleft;
position = "{19.835, 712}";
}
);
layerId = "6790C309-8F5A-452B-8BE0-8B8CBBA8D07C";
paths = (
{
closed = 1;
nodes = (
"251.573 0 LINE",
"251.573 712 LINE",
"64.408 712 LINE",
"64.408 0 LINE"
);
}
);
width = 315.98058;
},
{
anchors = (
{
name = bottom;
position = "{128.602, 0}";
},
{
name = ogonek;
position = "{159.942, 10}";
},
{
name = top;
position = "{128.602, 712}";
},
{
name = topleft;
position = "{24.69, 712}";
}
);
layerId = "A299C91D-11CD-42B0-B8D6-5EC4BEC07D9B";
paths = (
{
closed = 1;
nodes = (
"170.02 0 LINE",
"170.02 712 LINE",
"87.709 712 LINE",
"87.709 0 LINE"
);
}
);
width = 257.72816;
}
);
leftKerningGroup = H;
rightKerningGroup = H;
unicode = 0049;
userData = {
anchors = (
);
b = {
};
com.typemytype.robofont.layerData = {
b = {
anchors = (
);
components = (
);
contours = (
);
lib = {
};
name = I;
unicodes = (
);
width = 592;
};
};
components = (
);
contours = (
);
lib = {
};
name = I;
unicodes = (
);
width = 637;
};
},
{
glyphname = Iogonek;
lastChange = "2019-01-16 15:38:45 +0000";
layers = (
{
layerId = "46D6449F-D991-45BF-8D03-34744F3491AE";
paths = (
{
closed = 1;
nodes = (
"142.058 -192.301 OFFCURVE",
"170.359 -181.951 OFFCURVE",
"187.961 -168.951 CURVE",
"172.194 -133.913 LINE",
"150.961 -146.379 OFFCURVE",
"127.379 -152.612 OFFCURVE",
"111.495 -152.612 CURVE SMOOTH",
"71.262 -152.612 OFFCURVE",
"42.563 -129.029 OFFCURVE",
"42.563 -85.097 CURVE SMOOTH",
"42.563 -39.282 OFFCURVE",
"75.563 0 OFFCURVE",
"135.495 0 CURVE SMOOTH",
"138.214 0 LINE",
"138.214 712 LINE",
"96.796 712 LINE",
"96.796 0 LINE",
"110.534 0 LINE",
"131.35 38.117 LINE",
"43.903 25.515 OFFCURVE",
"-2.728 -26.068 OFFCURVE",
"-2.728 -89.35 CURVE SMOOTH",
"-2.728 -148.184 OFFCURVE",
"40.874 -192.301 OFFCURVE",
"109.408 -192.301 CURVE SMOOTH"
);
}
);
width = 235.00971;
},
{
layerId = "6790C309-8F5A-452B-8BE0-8B8CBBA8D07C";
paths = (
{
closed = 1;
nodes = (
"210.883 -200.398 OFFCURVE",
"247.282 -194.097 OFFCURVE",
"281.078 -181.097 CURVE",
"262.612 -100.175 LINE",
"244.078 -107.243 OFFCURVE",
"227.243 -110.777 OFFCURVE",
"210.01 -110.777 CURVE SMOOTH",
"172.476 -110.777 OFFCURVE",
"151.874 -93.942 OFFCURVE",
"151.874 -60.806 CURVE SMOOTH",
"151.874 -24.437 OFFCURVE",
"184.874 0 OFFCURVE",
"234.01 0 CURVE SMOOTH",
"251.573 0 LINE",
"251.573 712 LINE",
"64.408 712 LINE",
"64.408 0 LINE",
"115.932 0 LINE",
"127.301 36.767 LINE",
"68.194 7.971 OFFCURVE",
"40.456 -36.864 OFFCURVE",
"40.456 -85.301 CURVE SMOOTH",
"40.456 -157.631 OFFCURVE",
"100.252 -200.398 OFFCURVE",
"174.184 -200.398 CURVE SMOOTH"
);
}
);
width = 315.98058;
},
{
layerId = "A299C91D-11CD-42B0-B8D6-5EC4BEC07D9B";
paths = (
{
closed = 1;
nodes = (
"161.369 -194.573 OFFCURVE",
"191.942 -185.359 OFFCURVE",
"214.087 -172.359 CURVE",
"197.563 -124.447 LINE",
"177.087 -135.398 OFFCURVE",
"155.398 -140.874 OFFCURVE",
"139.136 -140.874 CURVE SMOOTH",
"99.66 -140.874 OFFCURVE",
"73.233 -119.184 OFFCURVE",
"73.233 -78.282 CURVE SMOOTH",
"73.233 -35.117 OFFCURVE",
"106.233 0 OFFCURVE",
"163.136 0 CURVE SMOOTH",
"170.02 0 LINE",
"170.02 712 LINE",
"87.709 712 LINE",
"87.709 0 LINE",
"112.049 0 LINE",
"130.214 37.738 LINE",
"50.718 20.593 OFFCURVE",
"9.388 -29.097 OFFCURVE",
"9.388 -88.214 CURVE SMOOTH",
"9.388 -150.835 OFFCURVE",
"57.534 -194.573 OFFCURVE",
"127.583 -194.573 CURVE SMOOTH"
);
}
);
width = 257.72816;
}
);
leftKerningGroup = H;
rightKerningGroup = H;
unicode = 012E;
},
{
glyphname = J;
lastChange = "2019-01-16 15:38:45 +0000";
layers = (
{
anchors = (
{
name = bottom;
position = "{182.757, 0}";
},
{
name = top;
position = "{182.757, 712}";
}
);
layerId = "46D6449F-D991-45BF-8D03-34744F3491AE";
paths = (
{
closed = 1;
nodes = (
"141.748 -205.068 OFFCURVE",
"203.35 -164.447 OFFCURVE",
"203.35 -7.476 CURVE SMOOTH",
"203.35 712 LINE",
"162.049 712 LINE",
"162.049 -5.01 LINE SMOOTH",
"162.049 -136.854 OFFCURVE",
"115.951 -163.369 OFFCURVE",
"-7.816 -137.32 CURVE",
"-7.816 -177.883 LINE"
);
}
);
width = 300.14563;
},
{
anchors = (
{
name = bottom;
position = "{243.485, 0}";
},
{
name = top;
position = "{243.485, 712}";
}
);
layerId = "6790C309-8F5A-452B-8BE0-8B8CBBA8D07C";
paths = (
{
closed = 1;
nodes = (
"260.505 -215.864 OFFCURVE",
"338.301 -136.107 OFFCURVE",
"338.301 55.951 CURVE SMOOTH",
"338.301 712 LINE",
"149.903 712 LINE",
"149.903 53.019 LINE SMOOTH",
"149.903 -34.291 OFFCURVE",
"128.097 -43.262 OFFCURVE",
"1.631 -29.359 CURVE",
"1.631 -179.233 LINE"
);
}
);
width = 402.70874;
},
{
anchors = (
{
name = bottom;
position = "{199.796, 0}";
},
{
name = top;
position = "{199.796, 712}";
}
);
layerId = "A299C91D-11CD-42B0-B8D6-5EC4BEC07D9B";
paths = (
{
closed = 1;
nodes = (
"175.068 -208.097 OFFCURVE",
"241.214 -156.495 OFFCURVE",
"241.214 10.32 CURVE SMOOTH",
"241.214 712 LINE",
"158.641 712 LINE",
"158.641 11.272 LINE SMOOTH",
"158.641 -108.077 OFFCURVE",
"119.359 -129.67 OFFCURVE",
"-5.165 -107.029 CURVE",
"-5.165 -178.262 LINE"
);
}
);
width = 328.92233;
}
);
leftKerningGroup = J;
rightKerningGroup = J;
unicode = 004A;
userData = {
anchors = (
);
b = {
};
com.typemytype.robofont.layerData = {
b = {
anchors = (
);
components = (
);
contours = (
);
lib = {
};
name = J;
unicodes = (
);
width = 1003;
};
};
components = (
);
contours = (
);
lib = {
};
name = J;
unicodes = (
);
width = 1126;
};
},
{
glyphname = K;
lastChange = "2019-01-16 15:38:45 +0000";
layers = (
{
anchors = (
{
name = bottom;
position = "{304.689, 0}";
},
{
name = top;
position = "{303.573, 712}";
}
);
layerId = "46D6449F-D991-45BF-8D03-34744F3491AE";
paths = (
{
closed = 1;
nodes = (
"599.136 0 LINE",
"160.379 379.971 LINE",
"159.66 344.097 LINE",
"576.087 712 LINE",
"515.835 712 LINE",
"117.612 360.65 LINE",
"537 0 LINE"
);
},
{
closed = 1;
nodes = (
"138.214 0 LINE",
"138.214 712 LINE",
"96.796 712 LINE",
"96.796 0 LINE"
);
}
);
width = 605.26214;
},
{
anchors = (
{
name = bottom;
position = "{354.621, 0}";
},
{
name = top;
position = "{354.854, 712}";
}
);
layerId = "6790C309-8F5A-452B-8BE0-8B8CBBA8D07C";
paths = (
{
closed = 1;
nodes = (
"759.728 0 LINE",
"399.243 415.058 LINE",
"383.68 319.806 LINE",
"748.825 712 LINE",
"529.33 712 LINE",
"214.777 364.699 LINE",
"537 0 LINE"
);
},
{
closed = 1;
nodes = (
"251.573 0 LINE",
"251.573 712 LINE",
"64.408 712 LINE",
"64.408 0 LINE"
);
}
);
width = 706.47573;
},
{
anchors = (
{
name = bottom;
position = "{318.699, 0}";
},
{
name = top;
position = "{317.961, 712}";
}
);
layerId = "A299C91D-11CD-42B0-B8D6-5EC4BEC07D9B";
paths = (
{
closed = 1;
nodes = (
"644.194 0 LINE",
"227.398 389.816 LINE",
"222.515 337.282 LINE",
"624.553 712 LINE",
"519.621 712 LINE",
"144.874 361.786 LINE",
"537 0 LINE"
);
},
{
closed = 1;
nodes = (
"170.02 0 LINE",
"170.02 712 LINE",
"87.709 712 LINE",
"87.709 0 LINE"
);
}
);
width = 633.6602;
}
);
leftKerningGroup = H;
rightKerningGroup = K;
unicode = 004B;
userData = {
anchors = (
);
b = {
};
com.typemytype.robofont.layerData = {
b = {
anchors = (
);
components = (
);
contours = (
);
lib = {
};
name = K;
unicodes = (
);
width = 1210;
};
};
components = (
);
contours = (
);
lib = {
};
name = K;
unicodes = (
);
width = 1329;
};
},
{
glyphname = L;
lastChange = "2019-01-16 15:38:45 +0000";
layers = (
{
anchors = (
{
name = bottom;
position = "{309.301, 0}";
},
{
name = center;
position = "{329.893, 357}";
},
{
name = top;
position = "{117.621, 712}";
},
{
name = topright;
position = "{229.214, 712}";
}
);
layerId = "46D6449F-D991-45BF-8D03-34744F3491AE";
paths = (
{
closed = 1;
nodes = (
"516.854 0 LINE",
"516.854 38.214 LINE",
"138.214 38.214 LINE",
"138.214 712 LINE",
"96.796 712 LINE",
"96.796 0 LINE"
);
}
);
width = 531.92233;
},
{
anchors = (
{
name = bottom;
position = "{317.398, 0}";
},
{
name = center;
position = "{412.214, 357}";
},
{
name = top;
position = "{156.757, 712}";
},
{
name = topright;
position = "{342.573, 712}";
}
);
layerId = "6790C309-8F5A-452B-8BE0-8B8CBBA8D07C";
paths = (
{
closed = 1;
nodes = (
"553.291 0 LINE",
"553.291 151.573 LINE",
"251.573 151.573 LINE",
"251.573 712 LINE",
"64.408 712 LINE",
"64.408 0 LINE"
);
}
);
width = 579.15534;
},
{
anchors = (
{
name = bottom;
position = "{311.573, 0}";
},
{
name = center;
position = "{352.99, 357}";
},
{
name = top;
position = "{128.602, 712}";
},
{
name = topright;
position = "{261.02, 712}";
}
);
layerId = "A299C91D-11CD-42B0-B8D6-5EC4BEC07D9B";
paths = (
{
closed = 1;
nodes = (
"527.077 0 LINE",
"527.077 70.02 LINE",
"170.02 70.02 LINE",
"170.02 712 LINE",
"87.709 712 LINE",
"87.709 0 LINE"
);
}
);
width = 545.17476;
}
);
leftKerningGroup = H;
rightKerningGroup = L;
unicode = 004C;
userData = {
anchors = (
);
b = {
};
com.typemytype.robofont.layerData = {
b = {
anchors = (
);
components = (
);
contours = (
{
points = (
{
segmentType = curve;
smooth = 1;
x = 266;
y = 0;
},
{
segmentType = line;
smooth = 1;
x = 1035;
y = 0;
},
{
smooth = 0;
x = 1084;
y = 0;
},
{
smooth = 0;
x = 1108;
y = 34;
},
{
segmentType = curve;
smooth = 1;
x = 1108;
y = 71;
},
{
smooth = 0;
x = 1108;
y = 107;
},
{
smooth = 0;
x = 1084;
y = 141;
},
{
segmentType = curve;
smooth = 1;
x = 1035;
y = 141;
},
{
segmentType = line;
smooth = 0;
x = 356;
y = 141;
},
{
segmentType = line;
smooth = 0;
x = 356;
y = 665;
},
{
segmentType = line;
smooth = 1;
x = 975;
y = 665;
},
{
smooth = 0;
x = 1024;
y = 665;
},
{
smooth = 0;
x = 1049;
y = 698;
},
{
segmentType = curve;
smooth = 1;
x = 1049;
y = 734;
},
{
smooth = 0;
x = 1049;
y = 770;
},
{
smooth = 0;
x = 1026;
y = 803;
},
{
segmentType = curve;
smooth = 1;
x = 975;
y = 803;
},
{
segmentType = line;
smooth = 0;
x = 356;
y = 803;
},
{
segmentType = line;
smooth = 0;
x = 356;
y = 1285;
},
{
segmentType = line;
smooth = 1;
x = 1007;
y = 1285;
},
{
smooth = 0;
x = 1056;
y = 1285;
},
{
smooth = 0;
x = 1080;
y = 1319;
},
{
segmentType = curve;
smooth = 1;
x = 1080;
y = 1356;
},
{
smooth = 0;
x = 1080;
y = 1392;
},
{
smooth = 0;
x = 1056;
y = 1426;
},
{
segmentType = curve;
smooth = 1;
x = 1007;
y = 1426;
},
{
segmentType = line;
smooth = 1;
x = 261;
y = 1426;
},
{
smooth = 0;
x = 213;
y = 1426;
},
{
smooth = 0;
x = 178;
y = 1383;
},
{
segmentType = curve;
smooth = 1;
x = 178;
y = 1340;
},
{
segmentType = line;
smooth = 1;
x = 178;
y = 86;
},
{
smooth = 0;
x = 178;
y = 41;
},
{
smooth = 0;
x = 222;
y = 0;
}
);
}
);
lib = {
};
name = L;
unicodes = (
);
width = 1095;
};
};
components = (
);
contours = (
);
lib = {
};
name = L;
unicodes = (
);
width = 1169;
};
},
{
glyphname = LJ;
lastChange = "2019-01-16 15:38:45 +0000";
layers = (
{
layerId = "46D6449F-D991-45BF-8D03-34744F3491AE";
paths = (
{
closed = 1;
nodes = (
"486.854 0 LINE",
"486.854 38.214 LINE",
"138.214 38.214 LINE",
"138.214 712 LINE",
"96.796 712 LINE",
"96.796 0 LINE"
);
},
{
closed = 1;
nodes = (
"580.777 -205.068 OFFCURVE",
"643.612 -164.447 OFFCURVE",
"643.612 -7.476 CURVE SMOOTH",
"643.612 712 LINE",
"601.194 712 LINE",
"601.194 -5.01 LINE SMOOTH",
"601.194 -136.854 OFFCURVE",
"556.214 -163.369 OFFCURVE",
"431.33 -137.32 CURVE",
"431.33 -177.883 LINE"
);
}
);
width = 740.40777;
},
{
layerId = "6790C309-8F5A-452B-8BE0-8B8CBBA8D07C";
paths = (
{
closed = 1;
nodes = (
"523.291 0 LINE",
"523.291 151.573 LINE",
"251.573 151.573 LINE",
"251.573 712 LINE",
"64.408 712 LINE",
"64.408 0 LINE"
);
},
{
closed = 1;
nodes = (
"803.447 -215.864 OFFCURVE",
"879.777 -136.107 OFFCURVE",
"879.777 55.951 CURVE SMOOTH",
"879.777 712 LINE",
"691.612 712 LINE",
"691.612 53.019 LINE SMOOTH",
"691.612 -34.291 OFFCURVE",
"669.573 -43.262 OFFCURVE",
"543.34 -29.359 CURVE",
"543.34 -179.233 LINE"
);
}
);
width = 944.18447;
},
{
layerId = "A299C91D-11CD-42B0-B8D6-5EC4BEC07D9B";
paths = (
{
closed = 1;
nodes = (
"497.077 0 LINE",
"497.077 70.02 LINE",
"170.02 70.02 LINE",
"170.02 712 LINE",
"87.709 712 LINE",
"87.709 0 LINE"
);
},
{
closed = 1;
nodes = (
"643.253 -208.097 OFFCURVE",
"709.874 -156.495 OFFCURVE",
"709.874 10.32 CURVE SMOOTH",
"709.874 712 LINE",
"626.563 712 LINE",
"626.563 11.272 LINE SMOOTH",
"626.563 -108.077 OFFCURVE",
"588.02 -129.67 OFFCURVE",
"462.757 -107.029 CURVE",
"462.757 -178.262 LINE"
);
}
);
width = 797.58253;
}
);
leftKerningGroup = H;
rightKerningGroup = J;
unicode = 01C7;
},
{
glyphname = Lslash;
lastChange = "2019-01-16 15:38:45 +0000";
layers = (
{
layerId = "46D6449F-D991-45BF-8D03-34744F3491AE";
paths = (
{
closed = 1;
nodes = (
"334.117 460.864 LINE",
"334.117 506.078 LINE",
"7.767 317.835 LINE",
"7.767 272.505 LINE"
);
},
{
closed = 1;
nodes = (
"520.942 0 LINE",
"520.942 38.214 LINE",
"143.417 38.214 LINE",
"143.417 712 LINE",
"101 712 LINE",
"101 0 LINE"
);
}
);
width = 536.00971;
},
{
layerId = "6790C309-8F5A-452B-8BE0-8B8CBBA8D07C";
paths = (
{
closed = 1;
nodes = (
"471.767 439.272 LINE",
"471.767 597.845 LINE",
"10.466 331.33 LINE",
"10.466 173.99 LINE"
);
},
{
closed = 1;
nodes = (
"591.117 0 LINE",
"591.117 151.573 LINE",
"289.165 151.573 LINE",
"289.165 712 LINE",
"101 712 LINE",
"101 0 LINE"
);
}
);
width = 616.98058;
},
{
layerId = "A299C91D-11CD-42B0-B8D6-5EC4BEC07D9B";
paths = (
{
closed = 1;
nodes = (
"372.738 454.806 LINE",
"372.738 531.826 LINE",
"8.524 321.621 LINE",
"8.524 244.864 LINE"
);
},
{
closed = 1;
nodes = (
"540.631 0 LINE",
"540.631 70.02 LINE",
"184.31 70.02 LINE",
"184.31 712 LINE",
"101 712 LINE",
"101 0 LINE"
);
}
);
width = 558.72816;
}
);
leftKerningGroup = L;
rightKerningGroup = L;
unicode = 0141;
},
{
glyphname = M;
lastChange = "2019-01-16 15:38:45 +0000";
layers = (
{
anchors = (
{
name = bottom;
position = "{423.883, 0}";
},
{
name = top;
position = "{423.883, 712}";
}
);
layerId = "46D6449F-D991-45BF-8D03-34744F3491AE";
paths = (
{
closed = 1;
nodes = (
"138.078 0 LINE",
"136.961 673.204 LINE",
"106.777 672.019 LINE",
"407.612 0 LINE",
"442.272 0 LINE",
"737.874 670.903 LINE",
"710.806 673.204 LINE",
"709.689 0 LINE",
"751.087 0 LINE",
"751.087 712 LINE",
"714.524 712 LINE",
"411.282 16 LINE",
"440.485 16 LINE",
"133.01 712 LINE",
"96.563 712 LINE",
"96.563 0 LINE"
);
}
);
width = 847.65049;
},
{
anchors = (
{
name = bottom;
position = "{425.233, 0}";
},
{
name = top;
position = "{425.233, 712}";
}
);
layerId = "6790C309-8F5A-452B-8BE0-8B8CBBA8D07C";
paths = (
{
closed = 1;
nodes = (
"229.845 0 LINE",
"230.078 427.592 LINE",
"190.447 416.961 LINE",
"365.777 0 LINE",
"485.456 0 LINE",
"658.252 417.194 LINE",
"620.388 427.592 LINE",
"620.621 0 LINE",
"784.825 0 LINE",
"784.825 712 LINE",
"638.951 712 LINE",
"396.437 155 LINE",
"458.029 155 LINE",
"213.981 712 LINE",
"66.874 712 LINE",
"66.874 0 LINE"
);
}
);
width = 851.69903;
},
{
anchors = (
{
name = bottom;
position = "{424.262, 0}";
},
{
name = top;
position = "{424.262, 712}";
}
);
layerId = "A299C91D-11CD-42B0-B8D6-5EC4BEC07D9B";
paths = (
{
closed = 1;
nodes = (
"163.826 0 LINE",
"163.087 604.291 LINE",
"130.253 600.456 LINE",
"395.874 0 LINE",
"454.388 0 LINE",
"715.534 599.718 LINE",
"685.437 604.291 LINE",
"684.699 0 LINE",
"760.553 0 LINE",
"760.553 712 LINE",
"693.32 712 LINE",
"407.117 55 LINE",
"445.407 55 LINE",
"155.728 712 LINE",
"88.233 712 LINE",
"88.233 0 LINE"
);
}
);
width = 848.78641;
}
);
leftKerningGroup = H;
rightKerningGroup = H;
unicode = 004D;
userData = {
anchors = (
);
b = {
};
com.typemytype.robofont.layerData = {
b = {
anchors = (
);
components = (
);
contours = (
);
lib = {
};
name = M;
unicodes = (
);
width = 1899;
};
};
components = (
);
contours = (
);
lib = {
};
name = M;
unicodes = (
);
width = 1984;
};
},
{
glyphname = N;
lastChange = "2019-01-16 15:38:45 +0000";
layers = (
{
anchors = (
{
name = bottom;
position = "{369.835, 0}";
},
{
name = top;
position = "{369.951, 712}";
}
);
layerId = "46D6449F-D991-45BF-8D03-34744F3491AE";
paths = (
{
closed = 1;
nodes = (
"136.146 0 LINE",
"136.146 667.476 LINE",
"114.728 668.806 LINE",
"607.961 0 LINE",
"641.874 0 LINE",
"641.874 712 LINE",
"602.757 712 LINE",
"602.757 44.524 LINE",
"625.058 43.311 LINE",
"132.058 712 LINE",
"96.796 712 LINE",
"96.796 0 LINE"
);
}
);
width = 738.6699;
},
{
anchors = (
{
name = bottom;
position = "{383.33, 0}";
},
{
name = top;
position = "{382.097, 712}";
}
);
layerId = "6790C309-8F5A-452B-8BE0-8B8CBBA8D07C";
paths = (
{
closed = 1;
nodes = (
"238.709 0 LINE",
"238.709 465.049 LINE",
"210.544 439.388 LINE",
"562.078 0 LINE",
"701.252 0 LINE",
"701.252 712 LINE",
"524.485 712 LINE",
"524.485 246.951 LINE",
"554.883 271.379 LINE",
"200.883 712 LINE",
"64.408 712 LINE",
"64.408 0 LINE"
);
}
);
width = 765.66019;
},
{
anchors = (
{
name = bottom;
position = "{373.621, 0}";
},
{
name = top;
position = "{373.359, 712}";
}
);
layerId = "A299C91D-11CD-42B0-B8D6-5EC4BEC07D9B";
paths = (
{
closed = 1;
nodes = (
"164.923 0 LINE",
"164.923 610.68 LINE",
"141.612 604.437 LINE",
"595.087 0 LINE",
"658.534 0 LINE",
"658.534 712 LINE",
"580.796 712 LINE",
"580.796 101.32 LINE",
"605.369 107.301 LINE",
"151.369 712 LINE",
"87.709 712 LINE",
"87.709 0 LINE"
);
}
);
width = 746.24272;
}
);
leftKerningGroup = H;
rightKerningGroup = H;
unicode = 004E;
userData = {
anchors = (
);
b = {
};
com.typemytype.robofont.layerData = {
b = {
anchors = (
);
components = (
);
contours = (
);
lib = {
};
name = N;
unicodes = (
);
width = 1499;
};
};
components = (
);
contours = (
);
lib = {
};
name = N;
unicodes = (
);
width = 1557;
};
},
{
glyphname = Eng;
lastChange = "2019-01-16 15:38:45 +0000";
layers = (
{
layerId = "46D6449F-D991-45BF-8D03-34744F3491AE";
paths = (
{
closed = 1;
nodes = (
"602.757 44.524 LINE",
"625.058 43.311 LINE",
"132.058 712 LINE",
"96.796 712 LINE",
"96.796 0 LINE",
"136.146 0 LINE",
"136.146 667.476 LINE",
"114.728 668.806 LINE",
"608.544 -0.816 LINE",
"602.874 31.709 LINE",
"602.874 -17.311 LINE SMOOTH",
"602.874 -98.456 OFFCURVE",
"558.592 -138.155 OFFCURVE",
"480.262 -144.505 CURVE SMOOTH",
"428.942 -148.388 LINE",
"432.243 -187.767 LINE",
"483.699 -183.883 LINE SMOOTH",
"597.786 -175.883 OFFCURVE",
"641.874 -109.466 OFFCURVE",
"641.874 -13.544 CURVE SMOOTH",
"641.874 712 LINE",
"602.757 712 LINE"
);
}
);
width = 738.6699;
},
{
layerId = "6790C309-8F5A-452B-8BE0-8B8CBBA8D07C";
paths = (
{
closed = 1;
nodes = (
"524.485 246.951 LINE",
"554.883 271.379 LINE",
"200.883 712 LINE",
"64.408 712 LINE",
"64.408 0 LINE",
"238.709 0 LINE",
"238.709 465.049 LINE",
"210.544 439.388 LINE",
"555.913 8.631 LINE",
"523.252 104.583 LINE",
"523.252 32.621 LINE SMOOTH",
"523.252 -12.087 OFFCURVE",
"493.816 -43.689 OFFCURVE",
"442.476 -45.99 CURVE SMOOTH",
"360.117 -51.223 LINE",
"371.515 -190.466 LINE",
"475.602 -185.233 LINE SMOOTH",
"623.427 -177.233 OFFCURVE",
"701.252 -104.068 OFFCURVE",
"701.252 39.087 CURVE SMOOTH",
"701.252 712 LINE",
"524.485 712 LINE"
);
}
);
width = 765.66019;
},
{
layerId = "A299C91D-11CD-42B0-B8D6-5EC4BEC07D9B";
paths = (
{
closed = 1;
nodes = (
"580.796 101.32 LINE",
"605.369 107.301 LINE",
"151.369 712 LINE",
"87.709 712 LINE",
"87.709 0 LINE",
"164.923 0 LINE",
"164.923 610.68 LINE",
"141.612 604.437 LINE",
"593.777 1.835 LINE",
"580.534 52.156 LINE",
"580.534 -3.301 LINE SMOOTH",
"580.534 -74.223 OFFCURVE",
"540.417 -111.65 OFFCURVE",
"469.66 -116.864 CURVE SMOOTH",
"409.631 -121.126 LINE",
"415.204 -188.524 LINE",
"481.427 -184.262 LINE SMOOTH",
"604.98 -176.262 OFFCURVE",
"658.534 -107.951 OFFCURVE",
"658.534 1.223 CURVE SMOOTH",
"658.534 712 LINE",
"580.796 712 LINE"
);
}
);
width = 746.24272;
}
);
leftKerningGroup = H;
rightKerningGroup = H;
unicode = 014A;
userData = {
com.typemytype.robofont.layerData = {
b = {
anchors = (
);
components = (
);
contours = (
);
lib = {
};
name = Eng;
unicodes = (
);
width = 1495;
};
};
};
},
{
glyphname = O;
lastChange = "2019-01-16 15:38:45 +0000";
layers = (
{
anchors = (
{
name = bottom;
position = "{378.903, 0}";
},
{
name = center;
position = "{380.019, 357}";
},
{
name = ogonek;
position = "{483.388, 10}";
},
{
name = top;
position = "{379.019, 712}";
},
{
name = topleft;
position = "{26.466, 712}";
},
{
name = topright;
position = "{408.903, 712}";
}
);
layerId = "46D6449F-D991-45BF-8D03-34744F3491AE";
paths = (
{
closed = 1;
nodes = (
"571.573 -7.883 OFFCURVE",
"691.175 130.767 OFFCURVE",
"691.175 357 CURVE SMOOTH",
"691.175 582.233 OFFCURVE",
"572.689 719.883 OFFCURVE",
"378.903 719.883 CURVE SMOOTH",
"185.117 719.883 OFFCURVE",
"67.981 582.233 OFFCURVE",
"67.981 355.883 CURVE SMOOTH",
"67.981 130.767 OFFCURVE",
"187.35 -7.883 OFFCURVE",
"378.903 -7.883 CURVE SMOOTH"
);
},
{
closed = 1;
nodes = (
"210.311 33.262 OFFCURVE",
"112.631 153.34 OFFCURVE",
"112.631 357 CURVE SMOOTH",
"112.631 560.777 OFFCURVE",
"210.311 678.738 OFFCURVE",
"378.903 678.738 CURVE SMOOTH",
"548.612 678.738 OFFCURVE",
"645.175 562.01 OFFCURVE",
"645.175 357 CURVE SMOOTH",
"645.175 152.107 OFFCURVE",
"547.495 33.262 OFFCURVE",
"378.903 33.262 CURVE SMOOTH"
);
}
);
width = 759.03883;
},
{
anchors = (
{
name = bottom;
position = "{403.194, 0}";
},
{
name = center;
position = "{402.961, 357}";
},
{
name = ogonek;
position = "{525.223, 10}";
},
{
name = top;
position = "{401.961, 712}";
},
{
name = topleft;
position = "{21.068, 712}";
},
{
name = topright;
position = "{433.194, 712}";
}
);
layerId = "6790C309-8F5A-452B-8BE0-8B8CBBA8D07C";
paths = (
{
closed = 1;
nodes = (
"622.854 -9.233 OFFCURVE",
"758.65 133.466 OFFCURVE",
"758.65 357 CURVE SMOOTH",
"758.65 579.534 OFFCURVE",
"622.621 721.233 OFFCURVE",
"403.194 721.233 CURVE SMOOTH",
"183.767 721.233 OFFCURVE",
"45.039 579.534 OFFCURVE",
"45.039 357.233 CURVE SMOOTH",
"45.039 133.466 OFFCURVE",
"183.301 -9.233 OFFCURVE",
"403.194 -9.233 CURVE SMOOTH"
);
},
{
closed = 1;
nodes = (
"299.379 134.476 OFFCURVE",
"232.738 207.32 OFFCURVE",
"232.738 357 CURVE SMOOTH",
"232.738 505.447 OFFCURVE",
"299.379 577.524 OFFCURVE",
"403.194 577.524 CURVE SMOOTH",
"506.777 577.524 OFFCURVE",
"573.65 503.981 OFFCURVE",
"573.65 357 CURVE SMOOTH",
"573.65 208.786 OFFCURVE",
"507.01 134.476 OFFCURVE",
"403.194 134.476 CURVE SMOOTH"
);
}
);
width = 804.92233;
},
{
anchors = (
{
name = bottom;
position = "{385.718, 0}";
},
{
name = center;
position = "{386.456, 357}";
},
{
name = ogonek;
position = "{495.126, 10}";
},
{
name = top;
position = "{385.456, 712}";
},
{
name = topleft;
position = "{24.951, 712}";
},
{
name = topright;
position = "{415.718, 712}";
}
);
layerId = "A299C91D-11CD-42B0-B8D6-5EC4BEC07D9B";
paths = (
{
closed = 1;
nodes = (
"585.961 -8.262 OFFCURVE",
"710.107 131.524 OFFCURVE",
"710.107 357 CURVE SMOOTH",
"710.107 581.476 OFFCURVE",
"586.699 720.262 OFFCURVE",
"385.718 720.262 CURVE SMOOTH",
"184.738 720.262 OFFCURVE",
"61.544 581.476 OFFCURVE",
"61.544 356.262 CURVE SMOOTH",
"61.544 131.524 OFFCURVE",
"186.214 -8.262 OFFCURVE",
"385.718 -8.262 CURVE SMOOTH"
);
},
{
closed = 1;
nodes = (
"235.301 61.66 OFFCURVE",
"146.33 168.485 OFFCURVE",
"146.33 357 CURVE SMOOTH",
"146.33 545.253 OFFCURVE",
"235.301 650.34 OFFCURVE",
"385.718 650.34 CURVE SMOOTH",
"536.874 650.34 OFFCURVE",
"625.107 545.728 OFFCURVE",
"625.107 357 CURVE SMOOTH",
"625.107 168.01 OFFCURVE",
"536.136 61.66 OFFCURVE",
"385.718 61.66 CURVE SMOOTH"
);
}
);
width = 771.91262;
}
);
leftKerningGroup = O;
rightKerningGroup = O;
unicode = 004F;
userData = {
anchors = (
);
b = {
};
com.typemytype.robofont.guides = (
);
com.typemytype.robofont.layerData = {
b = {
anchors = (
);
components = (
);
contours = (
);
lib = {
};
name = O;
unicodes = (
);
width = 1597;
};
};
components = (
);
contours = (
);
lib = {
};
name = O;
unicodes = (
);
width = 1604;
};
},
{
glyphname = Ohorn;
lastChange = "2019-01-16 15:38:45 +0000";
layers = (
{
anchors = (
{
name = bottom;
position = "{380.019, 0}";
},
{
name = top;
position = "{379.019, 712}";
}
);
layerId = "46D6449F-D991-45BF-8D03-34744F3491AE";
paths = (
{
closed = 1;
nodes = (
"570.456 -7.883 OFFCURVE",
"691.175 130.767 OFFCURVE",
"691.175 357 CURVE SMOOTH",
"691.175 515.447 OFFCURVE",
"631.777 630.612 OFFCURVE",
"525.146 685.913 CURVE",
"533.709 673.961 LINE",
"633.757 673.961 OFFCURVE",
"691.175 726.563 OFFCURVE",
"691.175 819.563 CURVE SMOOTH",
"691.175 839.583 LINE",
"649.961 839.583 LINE",
"649.961 827.398 LINE SMOOTH",
"649.961 744.583 OFFCURVE",
"616.913 713.117 OFFCURVE",
"527.233 712 CURVE SMOOTH",
"487.699 712 OFFCURVE",
"431.136 719.883 OFFCURVE",
"383.136 719.883 CURVE SMOOTH",
"185.117 719.883 OFFCURVE",
"67.981 582.233 OFFCURVE",
"67.981 355.883 CURVE SMOOTH",
"67.981 130.767 OFFCURVE",
"188.466 -7.883 OFFCURVE",
"378.903 -7.883 CURVE SMOOTH"
);
},
{
closed = 1;
nodes = (
"210.311 33.262 OFFCURVE",
"112.631 153.34 OFFCURVE",
"112.631 357 CURVE SMOOTH",
"112.631 560.777 OFFCURVE",
"210.311 678.738 OFFCURVE",
"378.903 678.738 CURVE SMOOTH",
"548.612 678.738 OFFCURVE",
"645.175 562.01 OFFCURVE",
"645.175 357 CURVE SMOOTH",
"645.175 152.107 OFFCURVE",
"547.495 33.262 OFFCURVE",
"378.903 33.262 CURVE SMOOTH"
);
}
);
width = 759.03883;
},
{
anchors = (
{
name = bottom;
position = "{402.961, 0}";
},
{
name = top;
position = "{401.961, 712}";
}
);
layerId = "6790C309-8F5A-452B-8BE0-8B8CBBA8D07C";
paths = (
{
closed = 1;
nodes = (
"623.087 -9.233 OFFCURVE",
"758.65 133.466 OFFCURVE",
"758.65 357 CURVE SMOOTH",
"758.65 487.107 OFFCURVE",
"715.447 588.777 OFFCURVE",
"627.709 652.175 CURVE",
"606.583 628.078 LINE",
"694.485 628.078 OFFCURVE",
"758.65 696.874 OFFCURVE",
"758.65 789.874 CURVE SMOOTH",
"758.65 832.835 LINE",
"604.078 832.835 LINE",
"604.078 811.204 LINE SMOOTH",
"604.078 737.835 OFFCURVE",
"583.175 711.767 OFFCURVE",
"524.534 712 CURVE SMOOTH",
"479.602 712 OFFCURVE",
"452.728 721.233 OFFCURVE",
"404.728 721.233 CURVE SMOOTH",
"183.767 721.233 OFFCURVE",
"45.039 579.534 OFFCURVE",
"45.039 357.233 CURVE SMOOTH",
"45.039 133.466 OFFCURVE",
"183.068 -9.233 OFFCURVE",
"403.194 -9.233 CURVE SMOOTH"
);
},
{
closed = 1;
nodes = (
"299.379 134.476 OFFCURVE",
"232.738 207.32 OFFCURVE",
"232.738 357 CURVE SMOOTH",
"232.738 505.447 OFFCURVE",
"299.379 577.524 OFFCURVE",
"403.194 577.524 CURVE SMOOTH",
"506.777 577.524 OFFCURVE",
"573.65 503.981 OFFCURVE",
"573.65 357 CURVE SMOOTH",
"573.65 208.786 OFFCURVE",
"507.01 134.476 OFFCURVE",
"403.194 134.476 CURVE SMOOTH"
);
}
);
width = 804.92233;
},
{
anchors = (
{
name = bottom;
position = "{386.456, 0}";
},
{
name = top;
position = "{385.456, 712}";
}
);
layerId = "A299C91D-11CD-42B0-B8D6-5EC4BEC07D9B";
paths = (
{
closed = 1;
nodes = (
"585.223 -8.262 OFFCURVE",
"710.107 131.524 OFFCURVE",
"710.107 357 CURVE SMOOTH",
"710.107 507.495 OFFCURVE",
"655.253 618.874 OFFCURVE",
"553.923 676.447 CURVE",
"554.156 661.087 LINE",
"650.796 661.087 OFFCURVE",
"710.107 718.233 OFFCURVE",
"710.107 811.233 CURVE SMOOTH",
"710.107 837.69 LINE",
"637.087 837.69 LINE",
"637.087 822.854 LINE SMOOTH",
"637.087 742.69 OFFCURVE",
"607.447 712.738 OFFCURVE",
"526.476 712 CURVE SMOOTH",
"485.427 712 OFFCURVE",
"437.194 720.262 OFFCURVE",
"389.194 720.262 CURVE SMOOTH",
"184.738 720.262 OFFCURVE",
"61.544 581.476 OFFCURVE",
"61.544 356.262 CURVE SMOOTH",
"61.544 131.524 OFFCURVE",
"186.951 -8.262 OFFCURVE",
"385.718 -8.262 CURVE SMOOTH"
);
},
{
closed = 1;
nodes = (
"235.301 61.66 OFFCURVE",
"146.33 168.485 OFFCURVE",
"146.33 357 CURVE SMOOTH",
"146.33 545.253 OFFCURVE",
"235.301 650.34 OFFCURVE",
"385.718 650.34 CURVE SMOOTH",
"536.874 650.34 OFFCURVE",
"625.107 545.728 OFFCURVE",
"625.107 357 CURVE SMOOTH",
"625.107 168.01 OFFCURVE",
"536.136 61.66 OFFCURVE",
"385.718 61.66 CURVE SMOOTH"
);
}
);
width = 771.91262;
}
);
leftKerningGroup = O;
rightKerningGroup = O;
unicode = 01A0;
},
{
glyphname = Oogonek;
lastChange = "2019-01-16 15:38:45 +0000";
layers = (
{
anchors = (
{
name = top;
position = "{379.019, 712}";
}
);
layerId = "46D6449F-D991-45BF-8D03-34744F3491AE";
paths = (
{
closed = 1;
nodes = (
"609.524 42.301 OFFCURVE",
"691.175 169.184 OFFCURVE",
"691.175 357 CURVE SMOOTH",
"691.175 582.233 OFFCURVE",
"571.573 719.883 OFFCURVE",
"378.903 719.883 CURVE SMOOTH",
"186.233 719.883 OFFCURVE",
"67.981 582.233 OFFCURVE",
"67.981 355.883 CURVE SMOOTH",
"67.981 119.301 OFFCURVE",
"200.932 -21.583 OFFCURVE",
"407.184 -6.767 CURVE",
"399.767 10.883 LINE",
"364.65 -11 OFFCURVE",
"342.417 -48 OFFCURVE",
"342.417 -89.117 CURVE SMOOTH",
"342.417 -149.65 OFFCURVE",
"388.602 -192.301 OFFCURVE",
"455.67 -192.301 CURVE SMOOTH",
"486.087 -192.301 OFFCURVE",
"513.272 -184.184 OFFCURVE",
"533.107 -168.951 CURVE",
"517.223 -133.913 LINE",
"496.107 -145.262 OFFCURVE",
"474.757 -152.612 OFFCURVE",
"457.757 -152.612 CURVE SMOOTH",
"414.175 -152.612 OFFCURVE",
"387.709 -126.796 OFFCURVE",
"387.709 -85.097 CURVE SMOOTH",
"387.709 -41.049 OFFCURVE",
"414.175 -11.35 OFFCURVE",
"466.223 2.767 CURVE SMOOTH"
);
},
{
closed = 1;
nodes = (
"112.631 560.777 OFFCURVE",
"210.311 678.738 OFFCURVE",
"378.903 678.738 CURVE SMOOTH",
"548.612 678.738 OFFCURVE",
"645.175 562.01 OFFCURVE",
"645.175 357 CURVE SMOOTH",
"645.175 152.107 OFFCURVE",
"547.495 33.262 OFFCURVE",
"378.903 33.262 CURVE SMOOTH",
"210.311 33.262 OFFCURVE",
"112.631 153.34 OFFCURVE",
"112.631 357 CURVE SMOOTH"
);
}
);
width = 759.03883;
},
{
anchors = (
{
name = top;
position = "{401.961, 712}";
}
);
layerId = "6790C309-8F5A-452B-8BE0-8B8CBBA8D07C";
paths = (
{
closed = 1;
nodes = (
"672.951 50.398 OFFCURVE",
"758.65 178.631 OFFCURVE",
"758.65 357 CURVE SMOOTH",
"758.65 579.534 OFFCURVE",
"622.854 721.233 OFFCURVE",
"403.194 721.233 CURVE SMOOTH",
"183.534 721.233 OFFCURVE",
"45.039 579.534 OFFCURVE",
"45.039 357.233 CURVE SMOOTH",
"45.039 127.398 OFFCURVE",
"190.136 -14.835 OFFCURVE",
"416.631 -9.466 CURVE",
"402.466 12.233 LINE",
"368.699 -11 OFFCURVE",
"349.165 -48 OFFCURVE",
"349.165 -87.767 CURVE SMOOTH",
"349.165 -153.699 OFFCURVE",
"404.796 -200.398 OFFCURVE",
"482.66 -200.398 CURVE SMOOTH",
"519.825 -200.398 OFFCURVE",
"556.456 -193.631 OFFCURVE",
"589.786 -181.097 CURVE",
"572.553 -100.175 LINE",
"552.786 -107.476 OFFCURVE",
"535.485 -110.777 OFFCURVE",
"518.485 -110.777 CURVE SMOOTH",
"481.65 -110.777 OFFCURVE",
"460.583 -94.408 OFFCURVE",
"460.583 -60.806 CURVE SMOOTH",
"460.583 -28.903 OFFCURVE",
"481.65 -7.301 OFFCURVE",
"521.553 5.466 CURVE SMOOTH"
);
},
{
closed = 1;
nodes = (
"232.738 505.447 OFFCURVE",
"299.379 577.524 OFFCURVE",
"403.194 577.524 CURVE SMOOTH",
"506.777 577.524 OFFCURVE",
"573.65 503.981 OFFCURVE",
"573.65 357 CURVE SMOOTH",
"573.65 208.786 OFFCURVE",
"507.01 134.476 OFFCURVE",
"403.194 134.476 CURVE SMOOTH",
"299.379 134.476 OFFCURVE",
"232.738 207.32 OFFCURVE",
"232.738 357 CURVE SMOOTH"
);
}
);
width = 804.92233;
},
{
anchors = (
{
name = top;
position = "{385.456, 712}";
}
);
layerId = "A299C91D-11CD-42B0-B8D6-5EC4BEC07D9B";
paths = (
{
closed = 1;
nodes = (
"627.32 44.573 OFFCURVE",
"710.107 171.835 OFFCURVE",
"710.107 357 CURVE SMOOTH",
"710.107 581.476 OFFCURVE",
"585.961 720.262 OFFCURVE",
"385.718 720.262 CURVE SMOOTH",
"185.476 720.262 OFFCURVE",
"61.544 581.476 OFFCURVE",
"61.544 356.262 CURVE SMOOTH",
"61.544 121.573 OFFCURVE",
"197.903 -19.69 OFFCURVE",
"409.835 -7.524 CURVE",
"400.524 11.262 LINE",
"365.786 -11 OFFCURVE",
"344.31 -48 OFFCURVE",
"344.31 -88.738 CURVE SMOOTH",
"344.31 -150.786 OFFCURVE",
"393.146 -194.573 OFFCURVE",
"463.243 -194.573 CURVE SMOOTH",
"495.553 -194.573 OFFCURVE",
"525.388 -186.835 OFFCURVE",
"549.01 -172.359 CURVE",
"532.747 -124.447 LINE",
"512.01 -134.66 OFFCURVE",
"491.796 -140.874 OFFCURVE",
"474.796 -140.874 CURVE SMOOTH",
"433.107 -140.874 OFFCURVE",
"408.156 -117.709 OFFCURVE",
"408.156 -78.282 CURVE SMOOTH",
"408.156 -37.641 OFFCURVE",
"433.107 -10.214 OFFCURVE",
"481.747 3.524 CURVE SMOOTH"
);
},
{
closed = 1;
nodes = (
"146.33 545.253 OFFCURVE",
"235.301 650.34 OFFCURVE",
"385.718 650.34 CURVE SMOOTH",
"536.874 650.34 OFFCURVE",
"625.107 545.728 OFFCURVE",
"625.107 357 CURVE SMOOTH",
"625.107 168.01 OFFCURVE",
"536.136 61.66 OFFCURVE",
"385.718 61.66 CURVE SMOOTH",
"235.301 61.66 OFFCURVE",
"146.33 168.485 OFFCURVE",
"146.33 357 CURVE SMOOTH"
);
}
);
width = 771.91262;
}
);
leftKerningGroup = O;
rightKerningGroup = O;
unicode = 01EA;
},
{
glyphname = Oslash;
lastChange = "2019-01-16 15:38:45 +0000";
layers = (
{
anchors = (
{
name = bottom;
position = "{378.903, 0}";
},
{
name = top;
position = "{379.019, 712}";
}
);
layerId = "46D6449F-D991-45BF-8D03-34744F3491AE";
paths = (
{
closed = 1;
nodes = (
"571.573 -7.883 OFFCURVE",
"691.175 130.767 OFFCURVE",
"691.175 357 CURVE SMOOTH",
"691.175 582.233 OFFCURVE",
"572.689 719.883 OFFCURVE",
"378.903 719.883 CURVE SMOOTH",
"185.117 719.883 OFFCURVE",
"67.981 582.233 OFFCURVE",
"67.981 355.883 CURVE SMOOTH",
"67.981 130.767 OFFCURVE",
"187.35 -7.883 OFFCURVE",
"378.903 -7.883 CURVE SMOOTH"
);
},
{
closed = 1;
nodes = (
"618.592 728.932 LINE",
"585.932 747.388 LINE",
"139.33 -16.932 LINE",
"173.107 -35.388 LINE"
);
},
{
closed = 1;
nodes = (
"210.311 33.262 OFFCURVE",
"112.631 153.34 OFFCURVE",
"112.631 357 CURVE SMOOTH",
"112.631 560.777 OFFCURVE",
"210.311 678.738 OFFCURVE",
"378.903 678.738 CURVE SMOOTH",
"548.612 678.738 OFFCURVE",
"645.175 562.01 OFFCURVE",
"645.175 357 CURVE SMOOTH",
"645.175 152.107 OFFCURVE",
"547.495 33.262 OFFCURVE",
"378.903 33.262 CURVE SMOOTH"
);
}
);
width = 759.03883;
},
{
anchors = (
{
name = bottom;
position = "{403.194, 0}";
},
{
name = top;
position = "{401.961, 712}";
}
);
layerId = "6790C309-8F5A-452B-8BE0-8B8CBBA8D07C";
paths = (
{
closed = 1;
nodes = (
"622.854 -9.233 OFFCURVE",
"758.65 133.466 OFFCURVE",
"758.65 357 CURVE SMOOTH",
"758.65 579.534 OFFCURVE",
"622.621 721.233 OFFCURVE",
"403.194 721.233 CURVE SMOOTH",
"183.767 721.233 OFFCURVE",
"45.039 579.534 OFFCURVE",
"45.039 357.233 CURVE SMOOTH",
"45.039 133.466 OFFCURVE",
"183.301 -9.233 OFFCURVE",
"403.194 -9.233 CURVE SMOOTH"
);
},
{
closed = 1;
nodes = (
"692.816 718.136 LINE",
"575.136 789.223 LINE",
"112.34 -6.136 LINE",
"229.786 -77.223 LINE"
);
},
{
closed = 1;
nodes = (
"299.379 134.476 OFFCURVE",
"232.738 207.32 OFFCURVE",
"232.738 357 CURVE SMOOTH",
"232.738 505.447 OFFCURVE",
"299.379 577.524 OFFCURVE",
"403.194 577.524 CURVE SMOOTH",
"506.777 577.524 OFFCURVE",
"573.65 503.981 OFFCURVE",
"573.65 357 CURVE SMOOTH",
"573.65 208.786 OFFCURVE",
"507.01 134.476 OFFCURVE",
"403.194 134.476 CURVE SMOOTH"
);
}
);
width = 804.92233;
},
{
anchors = (
{
name = bottom;
position = "{385.718, 0}";
},
{
name = top;
position = "{385.456, 712}";
}
);
layerId = "A299C91D-11CD-42B0-B8D6-5EC4BEC07D9B";
paths = (
{
closed = 1;
nodes = (
"585.961 -8.262 OFFCURVE",
"710.107 131.524 OFFCURVE",
"710.107 357 CURVE SMOOTH",
"710.107 581.476 OFFCURVE",
"586.699 720.262 OFFCURVE",
"385.718 720.262 CURVE SMOOTH",
"184.738 720.262 OFFCURVE",
"61.544 581.476 OFFCURVE",
"61.544 356.262 CURVE SMOOTH",
"61.544 131.524 OFFCURVE",
"186.214 -8.262 OFFCURVE",
"385.718 -8.262 CURVE SMOOTH"
);
},
{
closed = 1;
nodes = (
"639.417 725.903 LINE",
"582.903 759.126 LINE",
"131.757 -13.903 LINE",
"189.01 -47.126 LINE"
);
},
{
closed = 1;
nodes = (
"235.301 61.66 OFFCURVE",
"146.33 168.485 OFFCURVE",
"146.33 357 CURVE SMOOTH",
"146.33 545.253 OFFCURVE",
"235.301 650.34 OFFCURVE",
"385.718 650.34 CURVE SMOOTH",
"536.874 650.34 OFFCURVE",
"625.107 545.728 OFFCURVE",
"625.107 357 CURVE SMOOTH",
"625.107 168.01 OFFCURVE",
"536.136 61.66 OFFCURVE",
"385.718 61.66 CURVE SMOOTH"
);
}
);
width = 771.91262;
}
);
leftKerningGroup = O;
rightKerningGroup = O;
unicode = 00D8;
userData = {
com.typemytype.robofont.layerData = {
b = {
anchors = (
);
components = (
);
contours = (
);
lib = {
};
name = Oslash;
unicodes = (
);
width = 1597;
};
};
};
},
{
glyphname = OE;
lastChange = "2019-01-16 15:38:45 +0000";
layers = (
{
anchors = (
{
name = bottom;
position = "{537.35, 0}";
},
{
name = top;
position = "{536.233, 712}";
}
);
layerId = "46D6449F-D991-45BF-8D03-34744F3491AE";
paths = (
{
closed = 1;
nodes = (
"1000.136 0 LINE",
"1000.136 38.913 LINE",
"613.777 38.913 LINE",
"613.777 341.427 LINE",
"980.136 341.427 LINE",
"980.136 381.456 LINE",
"613.777 381.456 LINE",
"613.777 673.087 LINE",
"1000.136 673.087 LINE",
"1000.136 712 LINE",
"571.961 712 LINE",
"571.961 646.515 LINE",
"572.01 630.864 LINE",
"572.01 83.087 LINE",
"571.961 65.835 LINE",
"571.961 0 LINE"
);
},
{
closed = 1;
nodes = (
"586.913 650.65 LINE",
"530.816 696.883 OFFCURVE",
"462.117 719.883 OFFCURVE",
"381.233 719.883 CURVE SMOOTH",
"185 719.883 OFFCURVE",
"67.981 583.282 OFFCURVE",
"67.981 355.883 CURVE SMOOTH",
"67.981 129.835 OFFCURVE",
"187.233 -7.883 OFFCURVE",
"381.233 -7.883 CURVE SMOOTH",
"463.117 -7.883 OFFCURVE",
"530.816 15 OFFCURVE",
"586.913 62.117 CURVE",
"586.913 118.01 LINE",
"539.165 62.961 OFFCURVE",
"468.534 33.262 OFFCURVE",
"378.903 33.262 CURVE SMOOTH",
"210.777 33.262 OFFCURVE",
"112.631 152.757 OFFCURVE",
"112.631 357 CURVE SMOOTH",
"112.631 559.243 OFFCURVE",
"209.777 678.738 OFFCURVE",
"378.903 678.738 CURVE SMOOTH",
"468.534 678.738 OFFCURVE",
"539.165 649.039 OFFCURVE",
"586.913 595.107 CURVE"
);
}
);
width = 1057.34951;
},
{
anchors = (
{
name = bottom;
position = "{533.301, 0}";
},
{
name = top;
position = "{533.534, 712}";
}
);
layerId = "6790C309-8F5A-452B-8BE0-8B8CBBA8D07C";
paths = (
{
closed = 1;
nodes = (
"1021.728 0 LINE",
"1021.728 144.175 LINE",
"697.447 144.175 LINE",
"697.447 290.146 LINE",
"1001.728 290.146 LINE",
"1001.728 434.087 LINE",
"697.447 434.087 LINE",
"697.447 567.825 LINE",
"1021.728 567.825 LINE",
"1021.728 712 LINE",
"526.078 712 LINE",
"526.078 628.971 LINE",
"513.981 609.272 LINE",
"513.981 116.825 LINE",
"526.078 79.33 LINE",
"526.078 0 LINE"
);
},
{
closed = 1;
nodes = (
"553.175 654.699 LINE",
"521.369 698.233 OFFCURVE",
"460.767 721.233 OFFCURVE",
"378.534 721.233 CURVE SMOOTH",
"185 721.233 OFFCURVE",
"45.039 568.437 OFFCURVE",
"45.039 357.233 CURVE SMOOTH",
"45.039 143.33 OFFCURVE",
"184.534 -9.233 OFFCURVE",
"378.534 -9.233 CURVE SMOOTH",
"461.767 -9.233 OFFCURVE",
"521.369 15 OFFCURVE",
"553.175 60.767 CURVE",
"553.175 198.981 LINE",
"525.67 156.078 OFFCURVE",
"473.932 134.476 OFFCURVE",
"403.194 134.476 CURVE SMOOTH",
"294.447 134.476 OFFCURVE",
"232.738 213.485 OFFCURVE",
"232.738 357 CURVE SMOOTH",
"232.738 498.515 OFFCURVE",
"293.447 577.524 OFFCURVE",
"403.194 577.524 CURVE SMOOTH",
"473.932 577.524 OFFCURVE",
"525.67 555.922 OFFCURVE",
"553.175 512.786 CURVE"
);
}
);
width = 1053.30097;
},
{
anchors = (
{
name = bottom;
position = "{536.214, 0}";
},
{
name = top;
position = "{535.476, 712}";
}
);
layerId = "A299C91D-11CD-42B0-B8D6-5EC4BEC07D9B";
paths = (
{
closed = 1;
nodes = (
"1006.194 0 LINE",
"1006.194 68.447 LINE",
"637.253 68.447 LINE",
"637.253 327.039 LINE",
"986.194 327.039 LINE",
"986.194 396.223 LINE",
"637.253 396.223 LINE",
"637.253 643.553 LINE",
"1006.194 643.553 LINE",
"1006.194 712 LINE",
"559.087 712 LINE",
"559.087 641.593 LINE",
"555.728 624.806 LINE",
"555.728 92.553 LINE",
"559.087 69.621 LINE",
"559.087 0 LINE"
);
},
{
closed = 1;
nodes = (
"577.447 651.786 LINE",
"528.165 697.262 OFFCURVE",
"461.738 720.262 OFFCURVE",
"380.476 720.262 CURVE SMOOTH",
"185 720.262 OFFCURVE",
"61.544 579.117 OFFCURVE",
"61.544 356.262 CURVE SMOOTH",
"61.544 133.621 OFFCURVE",
"186.476 -8.262 OFFCURVE",
"380.476 -8.262 CURVE SMOOTH",
"462.738 -8.262 OFFCURVE",
"528.165 15 OFFCURVE",
"577.447 61.738 CURVE",
"577.447 140.728 LINE",
"535.379 89.087 OFFCURVE",
"470.049 61.66 OFFCURVE",
"385.718 61.66 CURVE SMOOTH",
"234.253 61.66 OFFCURVE",
"146.33 169.796 OFFCURVE",
"146.33 357 CURVE SMOOTH",
"146.33 542.204 OFFCURVE",
"233.253 650.34 OFFCURVE",
"385.718 650.34 CURVE SMOOTH",
"470.049 650.34 OFFCURVE",
"535.379 622.913 OFFCURVE",
"577.447 572.01 CURVE"
);
}
);
width = 1056.21359;
}
);
leftKerningGroup = O;
rightKerningGroup = E;
unicode = 0152;
},
{
glyphname = P;
lastChange = "2019-01-16 15:38:45 +0000";
layers = (
{
anchors = (
{
name = bottom;
position = "{318.67, 0}";
},
{
name = top;
position = "{318.786, 712}";
}
);
layerId = "46D6449F-D991-45BF-8D03-34744F3491AE";
paths = (
{
closed = 1;
nodes = (
"138.214 0 LINE",
"138.214 326.194 LINE",
"360.272 326.194 LINE SMOOTH",
"499.291 326.194 OFFCURVE",
"584.592 400.146 OFFCURVE",
"584.592 520.214 CURVE SMOOTH",
"584.592 640.165 OFFCURVE",
"500.175 712 OFFCURVE",
"360.272 712 CURVE SMOOTH",
"96.796 712 LINE",
"96.796 0 LINE"
);
},
{
closed = 1;
nodes = (
"138.214 672.854 LINE",
"359.369 672.854 LINE SMOOTH",
"478.214 672.854 OFFCURVE",
"539.777 617.408 OFFCURVE",
"539.777 520.33 CURVE SMOOTH",
"539.777 423.136 OFFCURVE",
"478.33 366.573 OFFCURVE",
"359.369 366.573 CURVE SMOOTH",
"138.214 366.573 LINE"
);
}
);
width = 637.92233;
},
{
anchors = (
{
name = bottom;
position = "{345.66, 0}";
},
{
name = top;
position = "{344.427, 712}";
}
);
layerId = "6790C309-8F5A-452B-8BE0-8B8CBBA8D07C";
paths = (
{
closed = 1;
nodes = (
"251.573 0 LINE",
"251.573 277.612 LINE",
"403.456 277.612 LINE SMOOTH",
"565.417 277.612 OFFCURVE",
"658.816 363.709 OFFCURVE",
"658.816 494.573 CURVE SMOOTH",
"658.816 626.67 OFFCURVE",
"567.65 712 OFFCURVE",
"403.456 712 CURVE SMOOTH",
"64.408 712 LINE",
"64.408 0 LINE"
);
},
{
closed = 1;
nodes = (
"251.573 570.291 LINE",
"378.262 570.291 LINE SMOOTH",
"452.573 570.291 OFFCURVE",
"484.447 543.184 OFFCURVE",
"484.447 493.34 CURVE SMOOTH",
"484.447 444.728 OFFCURVE",
"451.34 417.854 OFFCURVE",
"378.262 417.854 CURVE SMOOTH",
"251.573 417.854 LINE"
);
}
);
width = 685.15534;
},
{
anchors = (
{
name = bottom;
position = "{326.243, 0}";
},
{
name = top;
position = "{325.98, 712}";
}
);
layerId = "A299C91D-11CD-42B0-B8D6-5EC4BEC07D9B";
paths = (
{
closed = 1;
nodes = (
"170.02 0 LINE",
"170.02 312.563 LINE",
"372.388 312.563 LINE SMOOTH",
"517.844 312.563 OFFCURVE",
"605.417 389.923 OFFCURVE",
"605.417 513.02 CURVE SMOOTH",
"605.417 636.379 OFFCURVE",
"519.107 712 OFFCURVE",
"372.388 712 CURVE SMOOTH",
"87.709 712 LINE",
"87.709 0 LINE"
);
},
{
closed = 1;
nodes = (
"170.02 644.077 LINE",
"364.67 644.077 LINE SMOOTH",
"471.02 644.077 OFFCURVE",
"524.253 596.583 OFFCURVE",
"524.253 512.757 CURVE SMOOTH",
"524.253 429.194 OFFCURVE",
"470.757 380.961 OFFCURVE",
"364.67 380.961 CURVE SMOOTH",
"170.02 380.961 LINE"
);
}
);
width = 651.17476;
}
);
leftKerningGroup = H;
rightKerningGroup = P;
unicode = 0050;
userData = {
anchors = (
);
b = {
};
com.typemytype.robofont.layerData = {
b = {
anchors = (
);
components = (
);
contours = (
{
points = (
{
segmentType = curve;
smooth = 1;
x = 266;
y = 0;
},
{
segmentType = line;
smooth = 1;
x = 1035;
y = 0;
},
{
smooth = 0;
x = 1084;
y = 0;
},
{
smooth = 0;
x = 1108;
y = 34;
},
{
segmentType = curve;
smooth = 1;
x = 1108;
y = 71;
},
{
smooth = 0;
x = 1108;
y = 107;
},
{
smooth = 0;
x = 1084;
y = 141;
},
{
segmentType = curve;
smooth = 1;
x = 1035;
y = 141;
},
{
segmentType = line;
smooth = 0;
x = 356;
y = 141;
},
{
segmentType = line;
smooth = 0;
x = 356;
y = 665;
},
{
segmentType = line;
smooth = 1;
x = 975;
y = 665;
},
{
smooth = 0;
x = 1024;
y = 665;
},
{
smooth = 0;
x = 1049;
y = 698;
},
{
segmentType = curve;
smooth = 1;
x = 1049;
y = 734;
},
{
smooth = 0;
x = 1049;
y = 770;
},
{
smooth = 0;
x = 1026;
y = 803;
},
{
segmentType = curve;
smooth = 1;
x = 975;
y = 803;
},
{
segmentType = line;
smooth = 0;
x = 356;
y = 803;
},
{
segmentType = line;
smooth = 0;
x = 356;
y = 1285;
},
{
segmentType = line;
smooth = 1;
x = 1007;
y = 1285;
},
{
smooth = 0;
x = 1056;
y = 1285;
},
{
smooth = 0;
x = 1080;
y = 1319;
},
{
segmentType = curve;
smooth = 1;
x = 1080;
y = 1356;
},
{
smooth = 0;
x = 1080;
y = 1392;
},
{
smooth = 0;
x = 1056;
y = 1426;
},
{
segmentType = curve;
smooth = 1;
x = 1007;
y = 1426;
},
{
segmentType = line;
smooth = 1;
x = 261;
y = 1426;
},
{
smooth = 0;
x = 213;
y = 1426;
},
{
smooth = 0;
x = 178;
y = 1383;
},
{
segmentType = curve;
smooth = 1;
x = 178;
y = 1340;
},
{
segmentType = line;
smooth = 1;
x = 178;
y = 86;
},
{
smooth = 0;
x = 178;
y = 41;
},
{
smooth = 0;
x = 222;
y = 0;
}
);
}
);
lib = {
};
name = P;
unicodes = (
);
width = 1201;
};
};
components = (
);
contours = (
);
lib = {
};
name = P;
unicodes = (
);
width = 1319;
};
},
{
glyphname = Thorn;
lastChange = "2019-01-16 15:38:45 +0000";
layers = (
{
anchors = (
{
name = bottom;
position = "{318.67, 0}";
},
{
name = top;
position = "{318.786, 712}";
}
);
layerId = "46D6449F-D991-45BF-8D03-34744F3491AE";
paths = (
{
closed = 1;
nodes = (
"365.272 176.33 LINE SMOOTH",
"503.874 176.33 OFFCURVE",
"584.592 244.282 OFFCURVE",
"584.592 364.233 CURVE SMOOTH",
"584.592 481.951 OFFCURVE",
"505.757 547.67 OFFCURVE",
"365.272 547.67 CURVE SMOOTH",
"128.612 547.67 LINE",
"128.612 508.641 LINE",
"365.068 508.641 LINE SMOOTH",
"483.796 508.641 OFFCURVE",
"539.777 462.427 OFFCURVE",
"539.777 364.233 CURVE SMOOTH",
"539.777 265.039 OFFCURVE",
"482.68 215.476 OFFCURVE",
"365.068 215.476 CURVE SMOOTH",
"128.612 215.476 LINE",
"128.612 176.33 LINE"
);
},
{
closed = 1;
nodes = (
"138.563 0 LINE",
"138.563 712 LINE",
"96.796 712 LINE",
"96.796 0 LINE"
);
}
);
width = 637.80583;
},
{
anchors = (
{
name = bottom;
position = "{345.66, 0}";
},
{
name = top;
position = "{344.427, 712}";
}
);
layerId = "6790C309-8F5A-452B-8BE0-8B8CBBA8D07C";
paths = (
{
closed = 1;
nodes = (
"408.456 149.34 LINE SMOOTH",
"563.252 149.34 OFFCURVE",
"658.816 229.437 OFFCURVE",
"658.816 361.534 CURVE SMOOTH",
"658.816 494.097 OFFCURVE",
"566.485 574.66 OFFCURVE",
"408.456 574.66 CURVE SMOOTH",
"225.777 574.66 LINE",
"225.777 431.718 LINE",
"375.864 431.718 LINE SMOOTH",
"451.408 431.718 OFFCURVE",
"484.447 411.146 OFFCURVE",
"484.447 361.534 CURVE SMOOTH",
"484.447 310.922 OFFCURVE",
"451.641 291.049 OFFCURVE",
"375.864 291.049 CURVE SMOOTH",
"225.777 291.049 LINE",
"225.777 149.34 LINE"
);
},
{
closed = 1;
nodes = (
"247.874 0 LINE",
"247.874 712 LINE",
"64.408 712 LINE",
"64.408 0 LINE"
);
}
);
width = 686.38835;
},
{
anchors = (
{
name = bottom;
position = "{326.243, 0}";
},
{
name = top;
position = "{325.98, 712}";
}
);
layerId = "A299C91D-11CD-42B0-B8D6-5EC4BEC07D9B";
paths = (
{
closed = 1;
nodes = (
"377.388 168.757 LINE SMOOTH",
"520.534 168.757 OFFCURVE",
"605.417 240.117 OFFCURVE",
"605.417 363.476 CURVE SMOOTH",
"605.417 485.359 OFFCURVE",
"522.796 555.243 OFFCURVE",
"377.388 555.243 CURVE SMOOTH",
"155.874 555.243 LINE",
"155.874 487.058 LINE",
"368.097 487.058 LINE SMOOTH",
"474.709 487.058 OFFCURVE",
"524.253 448.039 OFFCURVE",
"524.253 363.476 CURVE SMOOTH",
"524.253 277.913 OFFCURVE",
"473.971 236.68 OFFCURVE",
"368.097 236.68 CURVE SMOOTH",
"155.874 236.68 LINE",
"155.874 168.757 LINE"
);
},
{
closed = 1;
nodes = (
"169.233 0 LINE",
"169.233 712 LINE",
"87.709 712 LINE",
"87.709 0 LINE"
);
}
);
width = 651.4369;
}
);
leftKerningGroup = H;
rightKerningGroup = THORN;
unicode = 00DE;
},
{
glyphname = Q;
lastChange = "2019-01-16 15:38:45 +0000";
layers = (
{
anchors = (
{
name = bottom;
position = "{378.903, 0}";
},
{
name = center;
position = "{380.019, 357}";
},
{
name = ogonek;
position = "{483.388, 10}";
},
{
name = top;
position = "{379.019, 712}";
},
{
name = topleft;
position = "{26.466, 712}";
},
{
name = topright;
position = "{408.903, 712}";
}
);
layerId = "46D6449F-D991-45BF-8D03-34744F3491AE";
paths = (
{
closed = 1;
nodes = (
"600.398 -153.66 LINE",
"549.515 -110.66 OFFCURVE",
"504.796 -59.777 OFFCURVE",
"468.33 7.223 CURVE",
"420 -4 LINE",
"461 -75 OFFCURVE",
"520 -150.932 OFFCURVE",
"570.67 -191 CURVE"
);
},
{
closed = 1;
nodes = (
"571.573 -7.883 OFFCURVE",
"691.175 130.767 OFFCURVE",
"691.175 357 CURVE SMOOTH",
"691.175 582.233 OFFCURVE",
"572.689 719.883 OFFCURVE",
"378.903 719.883 CURVE SMOOTH",
"185.117 719.883 OFFCURVE",
"67.981 582.233 OFFCURVE",
"67.981 355.883 CURVE SMOOTH",
"67.981 130.767 OFFCURVE",
"187.35 -7.883 OFFCURVE",
"378.903 -7.883 CURVE SMOOTH"
);
},
{
closed = 1;
nodes = (
"210.311 33.262 OFFCURVE",
"112.631 153.34 OFFCURVE",
"112.631 357 CURVE SMOOTH",
"112.631 560.777 OFFCURVE",
"210.311 678.738 OFFCURVE",
"378.903 678.738 CURVE SMOOTH",
"548.612 678.738 OFFCURVE",
"645.175 562.01 OFFCURVE",
"645.175 357 CURVE SMOOTH",
"645.175 152.107 OFFCURVE",
"547.495 33.262 OFFCURVE",
"378.903 33.262 CURVE SMOOTH"
);
}
);
width = 759.03883;
},
{
anchors = (
{
name = bottom;
position = "{403.194, 0}";
},
{
name = center;
position = "{402.961, 357}";
},
{
name = ogonek;
position = "{525.223, 10}";
},
{
name = top;
position = "{401.961, 712}";
},
{
name = topleft;
position = "{21.068, 712}";
},
{
name = topright;
position = "{433.194, 712}";
}
);
layerId = "6790C309-8F5A-452B-8BE0-8B8CBBA8D07C";
paths = (
{
closed = 1;
nodes = (
"723.204 -99.68 LINE",
"670.971 -56.68 OFFCURVE",
"611.408 -4.447 OFFCURVE",
"580.34 62.553 CURVE",
"420 -4 LINE",
"461 -75 OFFCURVE",
"520 -140.136 OFFCURVE",
"597.66 -191 CURVE"
);
},
{
closed = 1;
nodes = (
"622.854 -9.233 OFFCURVE",
"758.65 133.466 OFFCURVE",
"758.65 357 CURVE SMOOTH",
"758.65 579.534 OFFCURVE",
"622.621 721.233 OFFCURVE",
"403.194 721.233 CURVE SMOOTH",
"183.767 721.233 OFFCURVE",
"45.039 579.534 OFFCURVE",
"45.039 357.233 CURVE SMOOTH",
"45.039 133.466 OFFCURVE",
"183.301 -9.233 OFFCURVE",
"403.194 -9.233 CURVE SMOOTH"
);
},
{
closed = 1;
nodes = (
"299.379 134.476 OFFCURVE",
"232.738 207.32 OFFCURVE",
"232.738 357 CURVE SMOOTH",
"232.738 505.447 OFFCURVE",
"299.379 577.524 OFFCURVE",
"403.194 577.524 CURVE SMOOTH",
"506.777 577.524 OFFCURVE",
"573.65 503.981 OFFCURVE",
"573.65 357 CURVE SMOOTH",
"573.65 208.786 OFFCURVE",
"507.01 134.476 OFFCURVE",
"403.194 134.476 CURVE SMOOTH"
);
}
);
width = 804.92233;
},
{
anchors = (
{
name = bottom;
position = "{385.718, 0}";
},
{
name = center;
position = "{386.456, 357}";
},
{
name = ogonek;
position = "{495.126, 10}";
},
{
name = top;
position = "{385.456, 712}";
},
{
name = topleft;
position = "{24.951, 712}";
},
{
name = topright;
position = "{415.718, 712}";
}
);
layerId = "A299C91D-11CD-42B0-B8D6-5EC4BEC07D9B";
paths = (
{
closed = 1;
nodes = (
"634.854 -138.515 LINE",
"583.593 -95.515 OFFCURVE",
"534.709 -44.253 OFFCURVE",
"499.757 22.747 CURVE",
"420 -4 LINE",
"461 -75 OFFCURVE",
"520 -147.903 OFFCURVE",
"578.243 -191 CURVE"
);
},
{
closed = 1;
nodes = (
"585.961 -8.262 OFFCURVE",
"710.107 131.524 OFFCURVE",
"710.107 357 CURVE SMOOTH",
"710.107 581.476 OFFCURVE",
"586.699 720.262 OFFCURVE",
"385.718 720.262 CURVE SMOOTH",
"184.738 720.262 OFFCURVE",
"61.544 581.476 OFFCURVE",
"61.544 356.262 CURVE SMOOTH",
"61.544 131.524 OFFCURVE",
"186.214 -8.262 OFFCURVE",
"385.718 -8.262 CURVE SMOOTH"
);
},
{
closed = 1;
nodes = (
"235.301 61.66 OFFCURVE",
"146.33 168.485 OFFCURVE",
"146.33 357 CURVE SMOOTH",
"146.33 545.253 OFFCURVE",
"235.301 650.34 OFFCURVE",
"385.718 650.34 CURVE SMOOTH",
"536.874 650.34 OFFCURVE",
"625.107 545.728 OFFCURVE",
"625.107 357 CURVE SMOOTH",
"625.107 168.01 OFFCURVE",
"536.136 61.66 OFFCURVE",
"385.718 61.66 CURVE SMOOTH"
);
}
);
width = 771.91262;
}
);
leftKerningGroup = O;
rightKerningGroup = O;
unicode = 0051;
userData = {
anchors = (
);
b = {
};
com.typemytype.robofont.layerData = {
b = {
anchors = (
);
components = (
);
contours = (
);
lib = {
};
name = Q;
unicodes = (
);
width = 1597;
};
};
components = (
);
contours = (
);
lib = {
};
name = Q;
unicodes = (
);
width = 1604;
};
},
{
glyphname = R;
lastChange = "2019-01-16 15:38:45 +0000";
layers = (
{
anchors = (
{
name = bottom;
position = "{336.786, 0}";
},
{
name = top;
position = "{336.903, 712}";
}
);
layerId = "46D6449F-D991-45BF-8D03-34744F3491AE";
paths = (
{
closed = 1;
nodes = (
"138.447 0 LINE",
"138.447 324.078 LINE",
"358.612 324.078 LINE SMOOTH",
"436.573 324.078 OFFCURVE",
"476.272 309.728 OFFCURVE",
"502.553 237 CURVE SMOOTH",
"590.204 0 LINE",
"632.689 0 LINE",
"540.99 252.495 LINE SMOOTH",
"517.99 316.961 OFFCURVE",
"482.689 342.612 OFFCURVE",
"429.223 342.612 CURVE",
"360.738 330.078 LINE",
"506.456 330.078 OFFCURVE",
"591.641 399.563 OFFCURVE",
"591.641 519.864 CURVE SMOOTH",
"591.641 644.932 OFFCURVE",
"506.641 712 OFFCURVE",
"362.204 712 CURVE SMOOTH",
"96.796 712 LINE",
"96.796 0 LINE"
);
},
{
closed = 1;
nodes = (
"138.68 672.854 LINE",
"362.767 672.854 LINE SMOOTH",
"487.612 672.854 OFFCURVE",
"546.825 621.408 OFFCURVE",
"546.825 521.447 CURVE SMOOTH",
"546.825 418.019 OFFCURVE",
"485.379 364.456 OFFCURVE",
"362.767 364.456 CURVE SMOOTH",
"138.68 364.456 LINE"
);
}
);
width = 684.43689;
},
{
anchors = (
{
name = bottom;
position = "{362.427, 0}";
},
{
name = top;
position = "{361.194, 712}";
}
);
layerId = "6790C309-8F5A-452B-8BE0-8B8CBBA8D07C";
paths = (
{
closed = 1;
nodes = (
"249.107 0 LINE",
"249.107 276.845 LINE",
"316.777 276.845 LINE SMOOTH",
"348.854 276.845 OFFCURVE",
"380.456 266.544 OFFCURVE",
"391.893 237 CURVE SMOOTH",
"483.592 0 LINE",
"682.621 0 LINE",
"599.019 212.01 LINE SMOOTH",
"576.019 271.078 OFFCURVE",
"532.621 300.777 OFFCURVE",
"484.553 300.777 CURVE",
"398.524 282.845 LINE",
"559.087 282.845 OFFCURVE",
"653.718 369.874 OFFCURVE",
"653.718 498.272 CURVE SMOOTH",
"653.718 634.136 OFFCURVE",
"568.718 712 OFFCURVE",
"394.592 712 CURVE SMOOTH",
"64.408 712 LINE",
"64.408 0 LINE"
);
},
{
closed = 1;
nodes = (
"246.641 570.291 LINE",
"365.466 570.291 LINE SMOOTH",
"445.777 570.291 OFFCURVE",
"479.35 547.184 OFFCURVE",
"479.35 493.107 CURVE SMOOTH",
"479.35 440.961 OFFCURVE",
"446.243 417.087 OFFCURVE",
"365.466 417.087 CURVE SMOOTH",
"246.641 417.087 LINE"
);
}
);
width = 714.12621;
},
{
anchors = (
{
name = bottom;
position = "{343.98, 0}";
},
{
name = top;
position = "{343.718, 712}";
}
);
layerId = "A299C91D-11CD-42B0-B8D6-5EC4BEC07D9B";
paths = (
{
closed = 1;
nodes = (
"169.495 0 LINE",
"169.495 310.826 LINE",
"346.874 310.826 LINE SMOOTH",
"411.961 310.826 OFFCURVE",
"449.388 297.612 OFFCURVE",
"471.505 237 CURVE SMOOTH",
"560.291 0 LINE",
"646.699 0 LINE",
"557.272 241.136 LINE SMOOTH",
"534.272 304.087 OFFCURVE",
"496.699 330.874 OFFCURVE",
"444.747 330.874 CURVE",
"371.34 316.826 LINE",
"521.223 316.826 OFFCURVE",
"609.058 391.233 OFFCURVE",
"609.058 513.806 CURVE SMOOTH",
"609.058 641.903 OFFCURVE",
"524.058 712 OFFCURVE",
"371.291 712 CURVE SMOOTH",
"87.709 712 LINE",
"87.709 0 LINE"
);
},
{
closed = 1;
nodes = (
"168.971 644.077 LINE",
"363.524 644.077 LINE SMOOTH",
"475.874 644.077 OFFCURVE",
"527.893 600.583 OFFCURVE",
"527.893 513.495 CURVE SMOOTH",
"527.893 424.456 OFFCURVE",
"474.398 379.223 OFFCURVE",
"363.524 379.223 CURVE SMOOTH",
"168.971 379.223 LINE"
);
}
);
width = 692.76699;
}
);
leftKerningGroup = H;
rightKerningGroup = R;
unicode = 0052;
userData = {
anchors = (
);
b = {
};
com.typemytype.robofont.guides = (
);
com.typemytype.robofont.layerData = {
b = {
anchors = (
);
components = (
);
contours = (
{
points = (
{
segmentType = curve;
smooth = 1;
x = 267;
y = 0;
},
{
smooth = 0;
x = 311;
y = 0;
},
{
smooth = 0;
x = 356;
y = 27;
},
{
segmentType = curve;
smooth = 1;
x = 356;
y = 84;
},
{
segmentType = line;
smooth = 0;
x = 356;
y = 628;
},
{
segmentType = line;
smooth = 1;
x = 669;
y = 628;
},
{
smooth = 0;
x = 962;
y = 628;
},
{
smooth = 0;
x = 1182;
y = 722;
},
{
segmentType = curve;
smooth = 1;
x = 1182;
y = 1026;
},
{
smooth = 0;
x = 1182;
y = 1324;
},
{
smooth = 0;
x = 993;
y = 1426;
},
{
segmentType = curve;
smooth = 1;
x = 684;
y = 1426;
},
{
segmentType = line;
smooth = 1;
x = 268;
y = 1426;
},
{
smooth = 0;
x = 217;
y = 1426;
},
{
smooth = 0;
x = 178;
y = 1387;
},
{
segmentType = curve;
smooth = 1;
x = 178;
y = 1339;
},
{
segmentType = line;
smooth = 1;
x = 178;
y = 84;
},
{
smooth = 0;
x = 178;
y = 28;
},
{
smooth = 0;
x = 222;
y = 0;
}
);
},
{
points = (
{
segmentType = line;
smooth = 0;
x = 356;
y = 764;
},
{
segmentType = line;
smooth = 0;
x = 356;
y = 1285;
},
{
segmentType = line;
smooth = 1;
x = 684;
y = 1285;
},
{
smooth = 0;
x = 914;
y = 1285;
},
{
smooth = 0;
x = 1008;
y = 1210;
},
{
segmentType = curve;
smooth = 1;
x = 1008;
y = 1026;
},
{
smooth = 0;
x = 1008;
y = 838;
},
{
smooth = 0;
x = 901;
y = 764;
},
{
segmentType = curve;
smooth = 1;
x = 670;
y = 764;
}
);
}
);
lib = {
};
name = R;
unicodes = (
);
width = 1363;
};
};
components = (
);
contours = (
);
lib = {
};
name = R;
unicodes = (
);
width = 1408;
};
},
{
glyphname = S;
lastChange = "2019-01-16 15:38:45 +0000";
layers = (
{
anchors = (
{
name = bottom;
position = "{307.903, 0}";
},
{
name = top;
position = "{301.738, 712}";
}
);
layerId = "46D6449F-D991-45BF-8D03-34744F3491AE";
paths = (
{
closed = 1;
nodes = (
"458.757 -7.883 OFFCURVE",
"555.476 70.534 OFFCURVE",
"555.476 184.437 CURVE SMOOTH",
"555.476 328.932 OFFCURVE",
"400.971 344.388 OFFCURVE",
"283.961 374.34 CURVE SMOOTH",
"193.641 395.99 OFFCURVE",
"106.932 425.922 OFFCURVE",
"106.932 521.282 CURVE SMOOTH",
"106.932 620.058 OFFCURVE",
"181.495 678.738 OFFCURVE",
"309.738 678.738 CURVE SMOOTH",
"395.136 678.738 OFFCURVE",
"460.67 651.272 OFFCURVE",
"528.019 588.757 CURVE",
"548.757 624.369 LINE",
"488.291 687.767 OFFCURVE",
"406.388 719.883 OFFCURVE",
"309.854 719.883 CURVE SMOOTH",
"159.068 719.883 OFFCURVE",
"64.049 641.631 OFFCURVE",
"64.049 522.68 CURVE SMOOTH",
"64.049 377.534 OFFCURVE",
"205.738 350.913 OFFCURVE",
"317.699 324.194 CURVE SMOOTH",
"415.417 301.194 OFFCURVE",
"511.476 278.078 OFFCURVE",
"511.476 187.184 CURVE SMOOTH",
"511.476 89.058 OFFCURVE",
"437.796 33.262 OFFCURVE",
"310.835 33.262 CURVE SMOOTH",
"207.738 33.262 OFFCURVE",
"144.136 57.379 OFFCURVE",
"73.019 123.243 CURVE",
"52.282 87.631 LINE",
"119.398 21 OFFCURVE",
"199.485 -7.883 OFFCURVE",
"311.068 -7.883 CURVE SMOOTH"
);
}
);
width = 604.17476;
},
{
anchors = (
{
name = bottom;
position = "{332.194, 0}";
},
{
name = top;
position = "{339.524, 712}";
}
);
layerId = "6790C309-8F5A-452B-8BE0-8B8CBBA8D07C";
paths = (
{
closed = 1;
nodes = (
"519.485 -9.233 OFFCURVE",
"631.049 75.932 OFFCURVE",
"631.049 214.126 CURVE SMOOTH",
"631.049 318.136 OFFCURVE",
"575.058 386.223 OFFCURVE",
"377.078 428.32 CURVE SMOOTH",
"255.718 454.019 OFFCURVE",
"235.136 473.155 OFFCURVE",
"235.136 506.437 CURVE SMOOTH",
"235.136 549.883 OFFCURVE",
"280.01 577.524 OFFCURVE",
"347.524 577.524 CURVE SMOOTH",
"416.728 577.524 OFFCURVE",
"487.66 555.456 OFFCURVE",
"550.961 510.485 CURVE",
"609.485 643.262 LINE",
"554.417 690.466 OFFCURVE",
"448.223 721.233 OFFCURVE",
"346.291 721.233 CURVE SMOOTH",
"169.864 721.233 OFFCURVE",
"51.903 622.738 OFFCURVE",
"51.903 491.641 CURVE SMOOTH",
"51.903 382.932 OFFCURVE",
"104.524 317.175 OFFCURVE",
"309.602 275.612 CURVE SMOOTH",
"422.165 252.612 OFFCURVE",
"448.049 230.845 OFFCURVE",
"448.049 196.631 CURVE SMOOTH",
"448.049 157.883 OFFCURVE",
"405.408 134.476 OFFCURVE",
"324.33 134.476 CURVE SMOOTH",
"245.524 134.476 OFFCURVE",
"165.728 157.243 OFFCURVE",
"95.961 201.515 CURVE",
"37.437 68.738 LINE",
"103.204 21 OFFCURVE",
"217.029 -9.233 OFFCURVE",
"321.864 -9.233 CURVE SMOOTH"
);
}
);
width = 671.65049;
},
{
anchors = (
{
name = bottom;
position = "{314.718, 0}";
},
{
name = top;
position = "{312.34, 712}";
}
);
layerId = "A299C91D-11CD-42B0-B8D6-5EC4BEC07D9B";
paths = (
{
closed = 1;
nodes = (
"475.796 -8.262 OFFCURVE",
"576.68 72.049 OFFCURVE",
"576.68 192.767 CURVE SMOOTH",
"576.68 325.903 OFFCURVE",
"449.816 356.126 OFFCURVE",
"310.087 389.485 CURVE SMOOTH",
"211.058 412.272 OFFCURVE",
"142.903 439.174 OFFCURVE",
"142.903 517.117 CURVE SMOOTH",
"142.903 600.369 OFFCURVE",
"209.136 650.34 OFFCURVE",
"320.34 650.34 CURVE SMOOTH",
"401.194 650.34 OFFCURVE",
"468.243 624.388 OFFCURVE",
"534.456 566.796 CURVE",
"565.796 629.67 LINE",
"506.844 688.524 OFFCURVE",
"418.126 720.262 OFFCURVE",
"320.077 720.262 CURVE SMOOTH",
"162.097 720.262 OFFCURVE",
"60.641 636.33 OFFCURVE",
"60.641 513.971 CURVE SMOOTH",
"60.641 379.049 OFFCURVE",
"177.34 341.447 OFFCURVE",
"315.427 310.563 CURVE SMOOTH",
"417.31 287.563 OFFCURVE",
"493.68 264.826 OFFCURVE",
"493.68 189.835 CURVE SMOOTH",
"493.68 108.369 OFFCURVE",
"428.709 61.66 OFFCURVE",
"314.621 61.66 CURVE SMOOTH",
"218.34 61.66 OFFCURVE",
"150.194 85.398 OFFCURVE",
"79.456 145.204 CURVE",
"48.117 82.33 LINE",
"114.854 21 OFFCURVE",
"204.407 -8.262 OFFCURVE",
"314.097 -8.262 CURVE SMOOTH"
);
}
);
width = 623.1068;
}
);
leftKerningGroup = S;
rightKerningGroup = S;
unicode = 0053;
userData = {
anchors = (
);
b = {
};
com.typemytype.robofont.layerData = {
b = {
anchors = (
);
components = (
);
contours = (
);
lib = {
};
name = S;
unicodes = (
);
width = 1274;
};
};
components = (
);
contours = (
);
lib = {
};
name = S;
unicodes = (
);
width = 1317;
};
},
{
glyphname = Germandbls;
lastChange = "2019-01-16 15:38:45 +0000";
layers = (
{
layerId = "46D6449F-D991-45BF-8D03-34744F3491AE";
paths = (
{
closed = 1;
nodes = (
"138.563 0 LINE",
"138.563 461.398 LINE SMOOTH",
"138.563 610.107 OFFCURVE",
"204.194 677.854 OFFCURVE",
"346.67 677.854 CURVE SMOOTH",
"457.33 677.854 OFFCURVE",
"521.544 623.641 OFFCURVE",
"521.544 534.029 CURVE SMOOTH",
"521.544 436.369 OFFCURVE",
"456.282 381.689 OFFCURVE",
"342.155 381.689 CURVE SMOOTH",
"236.592 381.689 LINE",
"236.592 341.66 LINE",
"380.252 341.66 LINE SMOOTH",
"500.816 341.66 OFFCURVE",
"568.078 291.214 OFFCURVE",
"568.078 193.835 CURVE SMOOTH",
"568.078 96.641 OFFCURVE",
"502.466 36.961 OFFCURVE",
"393.408 34.728 CURVE SMOOTH",
"337.777 33.612 OFFCURVE",
"290.427 52.961 OFFCURVE",
"234.194 99.126 CURVE",
"213.408 61.049 LINE",
"261.942 16.583 OFFCURVE",
"328.757 -7.117 OFFCURVE",
"395.592 -7.117 CURVE SMOOTH",
"525.592 -7.117 OFFCURVE",
"611.544 73.184 OFFCURVE",
"611.544 193.417 CURVE SMOOTH",
"611.544 292.534 OFFCURVE",
"553.359 357.301 OFFCURVE",
"444.243 373.767 CURVE",
"434.194 363.117 LINE",
"518.243 381.767 OFFCURVE",
"566.476 444.117 OFFCURVE",
"566.476 533.515 CURVE SMOOTH",
"566.476 647.699 OFFCURVE",
"482.107 719 OFFCURVE",
"346.204 719 CURVE SMOOTH",
"178.767 719 OFFCURVE",
"96.796 636.864 OFFCURVE",
"96.796 469.563 CURVE SMOOTH",
"96.796 0 LINE"
);
}
);
width = 683.27184;
},
{
layerId = "6790C309-8F5A-452B-8BE0-8B8CBBA8D07C";
paths = (
{
closed = 1;
nodes = (
"247.874 0 LINE",
"247.874 445.204 LINE SMOOTH",
"247.874 527.786 OFFCURVE",
"294.612 575.291 OFFCURVE",
"373.66 575.291 CURVE SMOOTH",
"430.34 575.291 OFFCURVE",
"468.913 546.718 OFFCURVE",
"468.913 498.942 CURVE SMOOTH",
"468.913 455.262 OFFCURVE",
"441.437 431.621 OFFCURVE",
"386.689 431.621 CURVE SMOOTH",
"310.816 431.621 LINE",
"310.816 287.68 LINE",
"400.495 287.68 LINE SMOOTH",
"491.369 287.68 OFFCURVE",
"520.845 265.573 OFFCURVE",
"520.845 207.33 CURVE SMOOTH",
"520.845 158.718 OFFCURVE",
"497.068 130.078 OFFCURVE",
"458.184 130.544 CURVE SMOOTH",
"421.447 130.777 OFFCURVE",
"378.146 146.078 OFFCURVE",
"324.612 178.748 CURVE",
"278.184 48.903 LINE",
"332.117 9.835 OFFCURVE",
"389.485 -5.767 OFFCURVE",
"469.816 -5.767 CURVE SMOOTH",
"599.816 -5.767 OFFCURVE",
"697.913 82.631 OFFCURVE",
"697.913 200.165 CURVE SMOOTH",
"697.913 297.932 OFFCURVE",
"630.282 365.398 OFFCURVE",
"522.515 376.466 CURVE",
"524.612 361.767 LINE",
"596.515 384.466 OFFCURVE",
"642.049 442.767 OFFCURVE",
"642.049 515.971 CURVE SMOOTH",
"642.049 639.602 OFFCURVE",
"538.786 719 OFFCURVE",
"378.592 719 CURVE SMOOTH",
"181.466 719 OFFCURVE",
"64.408 615.272 OFFCURVE",
"64.408 439.874 CURVE SMOOTH",
"64.408 0 LINE"
);
}
);
width = 726.45631;
},
{
layerId = "A299C91D-11CD-42B0-B8D6-5EC4BEC07D9B";
paths = (
{
closed = 1;
nodes = (
"169.233 0 LINE",
"169.233 456.854 LINE SMOOTH",
"169.233 587.01 OFFCURVE",
"229.563 649.077 OFFCURVE",
"354.243 649.077 CURVE SMOOTH",
"449.757 649.077 OFFCURVE",
"506.777 602.058 OFFCURVE",
"506.777 524.184 CURVE SMOOTH",
"506.777 441.67 OFFCURVE",
"452.117 395.699 OFFCURVE",
"354.65 395.699 CURVE SMOOTH",
"257.417 395.699 LINE",
"257.417 326.515 LINE",
"385.932 326.515 LINE SMOOTH",
"498.165 326.515 OFFCURVE",
"554.826 284.02 OFFCURVE",
"554.826 197.621 CURVE SMOOTH",
"554.826 114.058 OFFCURVE",
"500.951 63.087 OFFCURVE",
"411.583 61.612 CURVE SMOOTH",
"361.253 60.874 OFFCURVE",
"315.039 79.087 OFFCURVE",
"259.563 121.466 CURVE",
"231.583 57.641 LINE",
"281.631 14.69 OFFCURVE",
"345.796 -6.738 OFFCURVE",
"416.417 -6.738 CURVE SMOOTH",
"546.417 -6.738 OFFCURVE",
"635.777 75.835 OFFCURVE",
"635.777 195.31 CURVE SMOOTH",
"635.777 294.049 OFFCURVE",
"574.942 359.573 OFFCURVE",
"466.204 374.524 CURVE",
"459.563 362.738 LINE",
"540.204 382.524 OFFCURVE",
"587.68 443.738 OFFCURVE",
"587.68 528.593 CURVE SMOOTH",
"587.68 645.427 OFFCURVE",
"498.01 719 OFFCURVE",
"355.291 719 CURVE SMOOTH",
"179.524 719 OFFCURVE",
"87.709 630.806 OFFCURVE",
"87.709 461.233 CURVE SMOOTH",
"87.709 0 LINE"
);
}
);
width = 695.38835;
}
);
leftKerningGroup = H;
rightKerningGroup = Germandbls;
unicode = 1E9E;
},
{
glyphname = Schwa;
lastChange = "2019-01-16 15:38:45 +0000";
layers = (
{
anchors = (
{
name = bottom;
position = "{367.786, 0}";
},
{
name = top;
position = "{367.903, 712}";
}
);
layerId = "46D6449F-D991-45BF-8D03-34744F3491AE";
paths = (
{
closed = 1;
nodes = (
"552.573 -7.883 OFFCURVE",
"667.825 129.718 OFFCURVE",
"667.825 357 CURVE SMOOTH",
"667.825 583.35 OFFCURVE",
"544.689 719.883 OFFCURVE",
"344.903 719.883 CURVE SMOOTH",
"245.67 719.883 OFFCURVE",
"154.068 685.534 OFFCURVE",
"94.417 624.369 CURVE",
"115.155 588.757 LINE",
"181.738 650.388 OFFCURVE",
"257.204 680.204 OFFCURVE",
"346.718 680.204 CURVE SMOOTH",
"522.029 680.204 OFFCURVE",
"622.942 562.243 OFFCURVE",
"622.942 357 CURVE SMOOTH",
"622.942 153.34 OFFCURVE",
"528.214 33.262 OFFCURVE",
"367.204 33.262 CURVE SMOOTH",
"206.893 33.262 OFFCURVE",
"112.097 154.456 OFFCURVE",
"111.515 357 CURVE",
"99.544 340.427 LINE",
"650.447 340.427 LINE",
"650.447 382.922 LINE",
"67.981 382.922 LINE",
"67.981 351.068 LINE SMOOTH",
"67.981 130.816 OFFCURVE",
"183.117 -7.883 OFFCURVE",
"366.621 -7.883 CURVE SMOOTH"
);
}
);
width = 735.68932;
},
{
anchors = (
{
name = bottom;
position = "{393.427, 0}";
},
{
name = top;
position = "{392.194, 712}";
}
);
layerId = "6790C309-8F5A-452B-8BE0-8B8CBBA8D07C";
paths = (
{
closed = 1;
nodes = (
"603.854 -9.233 OFFCURVE",
"739.35 144.563 OFFCURVE",
"739.35 357 CURVE SMOOTH",
"739.35 579.301 OFFCURVE",
"594.621 721.233 OFFCURVE",
"369.194 721.233 CURVE SMOOTH",
"272.66 721.233 OFFCURVE",
"164.864 690.932 OFFCURVE",
"101.165 643.262 CURVE",
"159.689 510.485 LINE",
"219.524 553.223 OFFCURVE",
"289.592 573.592 OFFCURVE",
"361.563 573.592 CURVE SMOOTH",
"486.942 573.592 OFFCURVE",
"554.117 501.515 OFFCURVE",
"554.117 357 CURVE SMOOTH",
"554.117 207.32 OFFCURVE",
"502.573 134.476 OFFCURVE",
"399.592 134.476 CURVE SMOOTH",
"289.214 134.476 OFFCURVE",
"226.806 207.087 OFFCURVE",
"232.971 357 CURVE",
"185.913 289.146 LINE",
"622.107 289.146 LINE",
"622.107 430.155 LINE",
"45.039 430.155 LINE",
"45.039 361.864 LINE SMOOTH",
"45.039 121.369 OFFCURVE",
"181.767 -9.233 OFFCURVE",
"405.757 -9.233 CURVE SMOOTH"
);
}
);
width = 785.62136;
},
{
anchors = (
{
name = bottom;
position = "{374.98, 0}";
},
{
name = top;
position = "{374.718, 712}";
}
);
layerId = "A299C91D-11CD-42B0-B8D6-5EC4BEC07D9B";
paths = (
{
closed = 1;
nodes = (
"566.961 -8.262 OFFCURVE",
"687.893 133.883 OFFCURVE",
"687.893 357 CURVE SMOOTH",
"687.893 582.214 OFFCURVE",
"558.699 720.262 OFFCURVE",
"351.718 720.262 CURVE SMOOTH",
"253.243 720.262 OFFCURVE",
"157.097 687.049 OFFCURVE",
"96.31 629.67 CURVE",
"127.65 566.796 LINE",
"192.34 623.126 OFFCURVE",
"266.291 650.291 OFFCURVE",
"350.883 650.291 CURVE SMOOTH",
"512.184 650.291 OFFCURVE",
"603.631 545.204 OFFCURVE",
"603.631 357 CURVE SMOOTH",
"603.631 168.485 OFFCURVE",
"521.02 61.66 OFFCURVE",
"376.291 61.66 CURVE SMOOTH",
"229.99 61.66 OFFCURVE",
"144.282 169.223 OFFCURVE",
"145.593 357 CURVE",
"123.777 326.039 LINE",
"642.495 326.039 LINE",
"642.495 396.174 LINE",
"61.544 396.174 LINE",
"61.544 354.097 LINE SMOOTH",
"61.544 128.165 OFFCURVE",
"182.738 -8.262 OFFCURVE",
"377.602 -8.262 CURVE SMOOTH"
);
}
);
width = 749.69903;
}
);
leftKerningGroup = O;
rightKerningGroup = O;
unicode = 018F;
},
{
glyphname = T;
lastChange = "2019-01-16 15:38:45 +0000";
layers = (
{
anchors = (
{
name = bottom;
position = "{294.903, 0}";
},
{
name = center;
position = "{294.903, 357}";
},
{
name = top;
position = "{294.903, 712}";
}
);
layerId = "46D6449F-D991-45BF-8D03-34744F3491AE";
paths = (
{
closed = 1;
nodes = (
"315.495 0 LINE",
"315.495 673.786 LINE",
"577.806 673.786 LINE",
"577.806 712 LINE",
"12 712 LINE",
"12 673.786 LINE",
"274.311 673.786 LINE",
"274.311 0 LINE"
);
}
);
width = 589.80583;
},
{
anchors = (
{
name = bottom;
position = "{319.194, 0}";
},
{
name = center;
position = "{319.194, 357}";
},
{
name = top;
position = "{319.194, 712}";
}
);
layerId = "6790C309-8F5A-452B-8BE0-8B8CBBA8D07C";
paths = (
{
closed = 1;
nodes = (
"414.01 0 LINE",
"414.01 560.427 LINE",
"626.388 560.427 LINE",
"626.388 712 LINE",
"12 712 LINE",
"12 560.427 LINE",
"224.379 560.427 LINE",
"224.379 0 LINE"
);
}
);
width = 638.38835;
},
{
anchors = (
{
name = bottom;
position = "{301.718, 0}";
},
{
name = center;
position = "{301.718, 357}";
},
{
name = top;
position = "{301.718, 712}";
}
);
layerId = "A299C91D-11CD-42B0-B8D6-5EC4BEC07D9B";
paths = (
{
closed = 1;
nodes = (
"343.136 0 LINE",
"343.136 641.98 LINE",
"591.437 641.98 LINE",
"591.437 712 LINE",
"12 712 LINE",
"12 641.98 LINE",
"260.301 641.98 LINE",
"260.301 0 LINE"
);
}
);
width = 603.4369;
}
);
leftKerningGroup = T;
rightKerningGroup = T;
unicode = 0054;
userData = {
anchors = (
);
b = {
};
com.typemytype.robofont.layerData = {
b = {
anchors = (
);
components = (
);
contours = (
{
points = (
{
segmentType = curve;
smooth = 1;
x = 581;
y = 0;
},
{
segmentType = line;
smooth = 1;
x = 1350;
y = 0;
},
{
smooth = 0;
x = 1399;
y = 0;
},
{
smooth = 0;
x = 1423;
y = 34;
},
{
segmentType = curve;
smooth = 1;
x = 1423;
y = 71;
},
{
smooth = 0;
x = 1423;
y = 107;
},
{
smooth = 0;
x = 1399;
y = 141;
},
{
segmentType = curve;
smooth = 1;
x = 1350;
y = 141;
},
{
segmentType = line;
smooth = 0;
x = 671;
y = 141;
},
{
segmentType = line;
smooth = 0;
x = 671;
y = 665;
},
{
segmentType = line;
smooth = 1;
x = 1290;
y = 665;
},
{
smooth = 0;
x = 1339;
y = 665;
},
{
smooth = 0;
x = 1364;
y = 698;
},
{
segmentType = curve;
smooth = 1;
x = 1364;
y = 734;
},
{
smooth = 0;
x = 1364;
y = 770;
},
{
smooth = 0;
x = 1341;
y = 803;
},
{
segmentType = curve;
smooth = 1;
x = 1290;
y = 803;
},
{
segmentType = line;
smooth = 0;
x = 671;
y = 803;
},
{
segmentType = line;
smooth = 0;
x = 671;
y = 1285;
},
{
segmentType = line;
smooth = 1;
x = 1322;
y = 1285;
},
{
smooth = 0;
x = 1371;
y = 1285;
},
{
smooth = 0;
x = 1395;
y = 1319;
},
{
segmentType = curve;
smooth = 1;
x = 1395;
y = 1356;
},
{
smooth = 0;
x = 1395;
y = 1392;
},
{
smooth = 0;
x = 1371;
y = 1426;
},
{
segmentType = curve;
smooth = 1;
x = 1322;
y = 1426;
},
{
segmentType = line;
smooth = 1;
x = 576;
y = 1426;
},
{
smooth = 0;
x = 528;
y = 1426;
},
{
smooth = 0;
x = 493;
y = 1383;
},
{
segmentType = curve;
smooth = 1;
x = 493;
y = 1340;
},
{
segmentType = line;
smooth = 1;
x = 493;
y = 86;
},
{
smooth = 0;
x = 493;
y = 41;
},
{
smooth = 0;
x = 537;
y = 0;
}
);
}
);
lib = {
};
name = T;
unicodes = (
);
width = 1158;
};
};
components = (
);
contours = (
);
lib = {
};
name = T;
unicodes = (
);
width = 1199;
};
},
{
glyphname = Tbar;
lastChange = "2019-01-16 15:38:45 +0000";
layers = (
{
layerId = "46D6449F-D991-45BF-8D03-34744F3491AE";
paths = (
{
closed = 1;
nodes = (
"463.777 342.66 LINE",
"463.777 380.806 LINE",
"126.029 380.806 LINE",
"126.029 342.66 LINE"
);
},
{
closed = 1;
nodes = (
"315.495 0 LINE",
"315.495 673.786 LINE",
"577.806 673.786 LINE",
"577.806 712 LINE",
"12 712 LINE",
"12 673.786 LINE",
"274.311 673.786 LINE",
"274.311 0 LINE"
);
}
);
width = 589.80583;
},
{
layerId = "6790C309-8F5A-452B-8BE0-8B8CBBA8D07C";
paths = (
{
closed = 1;
nodes = (
"547.447 288.68 LINE",
"547.447 429.388 LINE",
"90.942 429.388 LINE",
"90.942 288.68 LINE"
);
},
{
closed = 1;
nodes = (
"414.01 0 LINE",
"414.01 560.427 LINE",
"626.388 560.427 LINE",
"626.388 712 LINE",
"12 712 LINE",
"12 560.427 LINE",
"224.379 560.427 LINE",
"224.379 0 LINE"
);
}
);
width = 638.38835;
},
{
layerId = "A299C91D-11CD-42B0-B8D6-5EC4BEC07D9B";
paths = (
{
closed = 1;
nodes = (
"487.253 327.515 LINE",
"487.253 394.437 LINE",
"116.184 394.437 LINE",
"116.184 327.515 LINE"
);
},
{
closed = 1;
nodes = (
"343.136 0 LINE",
"343.136 641.98 LINE",
"591.437 641.98 LINE",
"591.437 712 LINE",
"12 712 LINE",
"12 641.98 LINE",
"260.301 641.98 LINE",
"260.301 0 LINE"
);
}
);
width = 603.4369;
}
);
leftKerningGroup = T;
rightKerningGroup = T;
unicode = 0166;
userData = {
com.typemytype.robofont.layerData = {
b = {
anchors = (
);
components = (
);
contours = (
);
lib = {
};
name = Tbar;
unicodes = (
);
width = 1158;
};
};
};
},
{
glyphname = U;
lastChange = "2019-01-16 15:38:45 +0000";
layers = (
{
anchors = (
{
name = bottom;
position = "{361.718, 0}";
},
{
name = ogonek;
position = "{473.553, 10}";
},
{
name = top;
position = "{361.718, 712}";
},
{
name = topright;
position = "{609.816, 712}";
}
);
layerId = "46D6449F-D991-45BF-8D03-34744F3491AE";
paths = (
{
closed = 1;
nodes = (
"538.272 -7.883 OFFCURVE",
"630.641 86.835 OFFCURVE",
"630.641 270.437 CURVE SMOOTH",
"630.641 712 LINE",
"588.99 712 LINE",
"588.99 263.437 LINE SMOOTH",
"588.99 109.893 OFFCURVE",
"511.311 33.262 OFFCURVE",
"361.718 33.262 CURVE SMOOTH",
"210.01 33.262 OFFCURVE",
"133.447 110.01 OFFCURVE",
"133.447 263.437 CURVE SMOOTH",
"133.447 712 LINE",
"91.68 712 LINE",
"91.68 270.437 LINE SMOOTH",
"91.68 87.068 OFFCURVE",
"184.282 -7.883 OFFCURVE",
"361.718 -7.883 CURVE SMOOTH"
);
}
);
width = 722.43689;
},
{
anchors = (
{
name = bottom;
position = "{376.563, 0}";
},
{
name = ogonek;
position = "{501.893, 10}";
},
{
name = top;
position = "{376.563, 712}";
},
{
name = topright;
position = "{600.369, 712}";
}
);
layerId = "6790C309-8F5A-452B-8BE0-8B8CBBA8D07C";
paths = (
{
closed = 1;
nodes = (
"581.456 -9.233 OFFCURVE",
"692.718 100.33 OFFCURVE",
"692.718 300.126 CURVE SMOOTH",
"692.718 712 LINE",
"508.019 712 LINE",
"508.019 293.126 LINE SMOOTH",
"508.019 192.214 OFFCURVE",
"461.379 134.476 OFFCURVE",
"376.563 134.476 CURVE SMOOTH",
"290.981 134.476 OFFCURVE",
"244.107 190.981 OFFCURVE",
"244.107 293.126 CURVE SMOOTH",
"244.107 712 LINE",
"60.641 712 LINE",
"60.641 300.126 LINE SMOOTH",
"60.641 97.864 OFFCURVE",
"169.437 -9.233 OFFCURVE",
"376.563 -9.233 CURVE SMOOTH"
);
}
);
width = 752.12621;
},
{
anchors = (
{
name = bottom;
position = "{365.883, 0}";
},
{
name = ogonek;
position = "{481.505, 10}";
},
{
name = top;
position = "{365.883, 712}";
},
{
name = topright;
position = "{607.165, 712}";
}
);
layerId = "A299C91D-11CD-42B0-B8D6-5EC4BEC07D9B";
paths = (
{
closed = 1;
nodes = (
"550.388 -8.262 OFFCURVE",
"648.058 90.621 OFFCURVE",
"648.058 278.767 CURVE SMOOTH",
"648.058 712 LINE",
"566.272 712 LINE",
"566.272 271.767 LINE SMOOTH",
"566.272 132.99 OFFCURVE",
"497.301 61.66 OFFCURVE",
"365.883 61.66 CURVE SMOOTH",
"232.728 61.66 OFFCURVE",
"164.495 132.728 OFFCURVE",
"164.495 271.767 CURVE SMOOTH",
"164.495 712 LINE",
"82.971 712 LINE",
"82.971 278.767 LINE SMOOTH",
"82.971 90.097 OFFCURVE",
"180.117 -8.262 OFFCURVE",
"365.883 -8.262 CURVE SMOOTH"
);
}
);
width = 730.76699;
}
);
leftKerningGroup = U;
rightKerningGroup = U;
unicode = 0055;
userData = {
anchors = (
);
b = {
};
com.typemytype.robofont.layerData = {
b = {
anchors = (
);
components = (
);
contours = (
);
lib = {
};
name = U;
unicodes = (
);
width = 1490;
};
};
components = (
);
contours = (
);
lib = {
};
name = U;
unicodes = (
);
width = 1513;
};
},
{
glyphname = Uhorn;
lastChange = "2019-01-16 15:38:45 +0000";
layers = (
{
anchors = (
{
name = bottom;
position = "{361.718, 0}";
},
{
name = top;
position = "{361.718, 712}";
}
);
layerId = "46D6449F-D991-45BF-8D03-34744F3491AE";
paths = (
{
closed = 1;
nodes = (
"711.359 827.398 LINE SMOOTH",
"711.359 745.816 OFFCURVE",
"679.544 713.117 OFFCURVE",
"601.379 712 CURVE SMOOTH",
"588.99 712 LINE",
"588.99 263.437 LINE SMOOTH",
"588.99 109.893 OFFCURVE",
"511.311 33.262 OFFCURVE",
"361.718 33.262 CURVE SMOOTH",
"210.01 33.262 OFFCURVE",
"133.447 110.01 OFFCURVE",
"133.447 263.437 CURVE SMOOTH",
"133.447 712 LINE",
"91.68 712 LINE",
"91.68 270.437 LINE SMOOTH",
"91.68 87.068 OFFCURVE",
"184.282 -7.883 OFFCURVE",
"361.718 -7.883 CURVE SMOOTH",
"538.272 -7.883 OFFCURVE",
"630.641 86.835 OFFCURVE",
"630.641 270.437 CURVE SMOOTH",
"630.641 699.981 LINE",
"594.291 673.845 LINE",
"695.806 674.379 OFFCURVE",
"751.456 724.981 OFFCURVE",
"751.456 819.563 CURVE SMOOTH",
"751.456 839.583 LINE",
"711.359 839.583 LINE"
);
}
);
width = 722.43689;
},
{
anchors = (
{
name = bottom;
position = "{376.563, 0}";
},
{
name = top;
position = "{376.563, 712}";
}
);
layerId = "6790C309-8F5A-452B-8BE0-8B8CBBA8D07C";
paths = (
{
closed = 1;
nodes = (
"649.282 811.204 LINE SMOOTH",
"649.282 736.369 OFFCURVE",
"626.913 711.767 OFFCURVE",
"562.243 712 CURVE SMOOTH",
"508.019 712 LINE",
"508.019 293.126 LINE SMOOTH",
"508.019 192.214 OFFCURVE",
"461.379 134.476 OFFCURVE",
"376.563 134.476 CURVE SMOOTH",
"290.981 134.476 OFFCURVE",
"244.107 190.981 OFFCURVE",
"244.107 293.126 CURVE SMOOTH",
"244.107 712 LINE",
"60.641 712 LINE",
"60.641 300.126 LINE SMOOTH",
"60.641 97.864 OFFCURVE",
"169.437 -9.233 OFFCURVE",
"376.563 -9.233 CURVE SMOOTH",
"581.456 -9.233 OFFCURVE",
"692.718 100.33 OFFCURVE",
"692.718 300.126 CURVE SMOOTH",
"692.718 677.039 LINE",
"660.417 629.311 LINE",
"744.388 635.243 OFFCURVE",
"804.087 702.039 OFFCURVE",
"804.087 789.874 CURVE SMOOTH",
"804.087 832.835 LINE",
"649.282 832.835 LINE"
);
}
);
width = 752.12621;
},
{
anchors = (
{
name = bottom;
position = "{365.883, 0}";
},
{
name = top;
position = "{365.883, 712}";
}
);
layerId = "A299C91D-11CD-42B0-B8D6-5EC4BEC07D9B";
paths = (
{
closed = 1;
nodes = (
"693.942 822.854 LINE SMOOTH",
"693.942 743.165 OFFCURVE",
"664.777 712.738 OFFCURVE",
"590.398 712 CURVE SMOOTH",
"566.272 712 LINE",
"566.272 271.767 LINE SMOOTH",
"566.272 132.99 OFFCURVE",
"497.301 61.66 OFFCURVE",
"365.883 61.66 CURVE SMOOTH",
"232.728 61.66 OFFCURVE",
"164.495 132.728 OFFCURVE",
"164.495 271.767 CURVE SMOOTH",
"164.495 712 LINE",
"82.971 712 LINE",
"82.971 278.767 LINE SMOOTH",
"82.971 90.097 OFFCURVE",
"180.117 -8.262 OFFCURVE",
"365.883 -8.262 CURVE SMOOTH",
"550.388 -8.262 OFFCURVE",
"648.058 90.621 OFFCURVE",
"648.058 278.767 CURVE SMOOTH",
"648.058 693.544 LINE",
"612.844 661.35 LINE",
"709.437 663.398 OFFCURVE",
"766.223 718.544 OFFCURVE",
"766.223 811.233 CURVE SMOOTH",
"766.223 837.69 LINE",
"693.942 837.69 LINE"
);
}
);
width = 730.76699;
}
);
leftKerningGroup = U;
rightKerningGroup = Uhorn;
unicode = 01AF;
},
{
glyphname = Uogonek;
lastChange = "2019-01-16 15:38:45 +0000";
layers = (
{
layerId = "46D6449F-D991-45BF-8D03-34744F3491AE";
paths = (
{
closed = 1;
nodes = (
"588.99 263.437 LINE SMOOTH",
"588.99 109.893 OFFCURVE",
"511.311 33.262 OFFCURVE",
"361.718 33.262 CURVE SMOOTH",
"210.01 33.262 OFFCURVE",
"133.447 110.01 OFFCURVE",
"133.447 263.437 CURVE SMOOTH",
"133.447 712 LINE",
"91.68 712 LINE",
"91.68 270.437 LINE SMOOTH",
"91.68 87.068 OFFCURVE",
"184.282 -7.883 OFFCURVE",
"361.602 -7.883 CURVE SMOOTH",
"418.33 -7.883 LINE",
"406.097 11 LINE",
"358.049 -8.767 OFFCURVE",
"332.583 -41.301 OFFCURVE",
"332.583 -89.117 CURVE SMOOTH",
"332.583 -149.65 OFFCURVE",
"378.767 -192.301 OFFCURVE",
"444.718 -192.301 CURVE SMOOTH",
"476.252 -192.301 OFFCURVE",
"503.437 -184.184 OFFCURVE",
"523.272 -168.951 CURVE",
"507.505 -133.913 LINE",
"486.272 -145.262 OFFCURVE",
"464.922 -152.612 OFFCURVE",
"446.806 -152.612 CURVE SMOOTH",
"404.456 -152.612 OFFCURVE",
"377.874 -126.796 OFFCURVE",
"377.874 -85.097 CURVE SMOOTH",
"377.874 -40.932 OFFCURVE",
"404.456 -13.816 OFFCURVE",
"469.019 6.117 CURVE SMOOTH",
"575.922 40 OFFCURVE",
"630.641 127.835 OFFCURVE",
"630.641 270.437 CURVE SMOOTH",
"630.641 712 LINE",
"588.99 712 LINE"
);
}
);
width = 722.43689;
},
{
layerId = "6790C309-8F5A-452B-8BE0-8B8CBBA8D07C";
paths = (
{
closed = 1;
nodes = (
"508.019 293.126 LINE SMOOTH",
"508.019 192.214 OFFCURVE",
"461.379 134.476 OFFCURVE",
"376.563 134.476 CURVE SMOOTH",
"290.981 134.476 OFFCURVE",
"244.107 190.981 OFFCURVE",
"244.107 293.126 CURVE SMOOTH",
"244.107 712 LINE",
"60.641 712 LINE",
"60.641 300.126 LINE SMOOTH",
"60.641 97.864 OFFCURVE",
"169.437 -9.233 OFFCURVE",
"377.796 -9.233 CURVE SMOOTH",
"391.34 -9.233 LINE",
"381.806 11 LINE",
"345.903 -11.466 OFFCURVE",
"325.835 -49.398 OFFCURVE",
"325.835 -87.767 CURVE SMOOTH",
"325.835 -153.699 OFFCURVE",
"381.466 -200.398 OFFCURVE",
"459.563 -200.398 CURVE SMOOTH",
"496.495 -200.398 OFFCURVE",
"533.126 -193.631 OFFCURVE",
"566.456 -181.097 CURVE",
"547.99 -100.175 LINE",
"529.456 -107.476 OFFCURVE",
"512.155 -110.777 OFFCURVE",
"495.388 -110.777 CURVE SMOOTH",
"457.087 -110.777 OFFCURVE",
"437.252 -94.408 OFFCURVE",
"437.252 -60.806 CURVE SMOOTH",
"437.252 -30.136 OFFCURVE",
"457.087 -4.369 OFFCURVE",
"491.961 4.767 CURVE SMOOTH",
"623.155 40 OFFCURVE",
"692.718 141.33 OFFCURVE",
"692.718 300.126 CURVE SMOOTH",
"692.718 712 LINE",
"508.019 712 LINE"
);
}
);
width = 752.12621;
},
{
layerId = "A299C91D-11CD-42B0-B8D6-5EC4BEC07D9B";
paths = (
{
closed = 1;
nodes = (
"566.272 271.767 LINE SMOOTH",
"566.272 132.99 OFFCURVE",
"497.301 61.66 OFFCURVE",
"365.883 61.66 CURVE SMOOTH",
"232.728 61.66 OFFCURVE",
"164.495 132.728 OFFCURVE",
"164.495 271.767 CURVE SMOOTH",
"164.495 712 LINE",
"82.971 712 LINE",
"82.971 278.767 LINE SMOOTH",
"82.971 90.097 OFFCURVE",
"180.117 -8.262 OFFCURVE",
"366.146 -8.262 CURVE SMOOTH",
"410.757 -8.262 LINE",
"399.282 11 LINE",
"354.641 -9.524 OFFCURVE",
"330.69 -43.573 OFFCURVE",
"330.69 -88.738 CURVE SMOOTH",
"330.69 -150.786 OFFCURVE",
"379.524 -194.573 OFFCURVE",
"448.883 -194.573 CURVE SMOOTH",
"481.932 -194.573 OFFCURVE",
"511.767 -186.835 OFFCURVE",
"535.388 -172.359 CURVE",
"518.864 -124.447 LINE",
"498.388 -134.66 OFFCURVE",
"478.174 -140.874 OFFCURVE",
"460.437 -140.874 CURVE SMOOTH",
"419.223 -140.874 OFFCURVE",
"394.534 -117.709 OFFCURVE",
"394.534 -78.282 CURVE SMOOTH",
"394.534 -37.903 OFFCURVE",
"419.223 -11.165 OFFCURVE",
"475.456 5.738 CURVE SMOOTH",
"589.174 40 OFFCURVE",
"648.058 131.621 OFFCURVE",
"648.058 278.767 CURVE SMOOTH",
"648.058 712 LINE",
"566.272 712 LINE"
);
}
);
width = 730.76699;
}
);
leftKerningGroup = U;
rightKerningGroup = U;
unicode = 0172;
},
{
glyphname = V;
lastChange = "2019-01-16 15:38:45 +0000";
layers = (
{
anchors = (
{
name = bottom;
position = "{338.738, 0}";
},
{
name = top;
position = "{337.738, 712}";
}
);
layerId = "46D6449F-D991-45BF-8D03-34744F3491AE";
paths = (
{
closed = 1;
nodes = (
"359.194 0 LINE",
"665.68 712 LINE",
"621.146 712 LINE",
"325.786 24.068 LINE",
"351.573 24.068 LINE",
"55.981 712 LINE",
"12.029 712 LINE",
"317.398 0 LINE"
);
}
);
width = 676.59223;
},
{
anchors = (
{
name = bottom;
position = "{376.524, 0}";
},
{
name = top;
position = "{375.524, 712}";
}
);
layerId = "6790C309-8F5A-452B-8BE0-8B8CBBA8D07C";
paths = (
{
closed = 1;
nodes = (
"449.612 0 LINE",
"773.641 712 LINE",
"584.709 712 LINE",
"351.427 173.864 LINE",
"402.854 173.864 LINE",
"172.039 712 LINE",
"-23.058 712 LINE",
"301.204 0 LINE"
);
}
);
width = 750.81553;
},
{
anchors = (
{
name = bottom;
position = "{349.34, 0}";
},
{
name = top;
position = "{348.34, 712}";
}
);
layerId = "A299C91D-11CD-42B0-B8D6-5EC4BEC07D9B";
paths = (
{
closed = 1;
nodes = (
"384.563 0 LINE",
"695.971 712 LINE",
"610.923 712 LINE",
"332.98 66.097 LINE",
"365.961 66.097 LINE",
"88.544 712 LINE",
"2.184 712 LINE",
"312.854 0 LINE"
);
}
);
width = 697.41747;
}
);
leftKerningGroup = V;
rightKerningGroup = V;
unicode = 0056;
userData = {
anchors = (
);
b = {
};
com.typemytype.robofont.guides = (
);
com.typemytype.robofont.layerData = {
b = {
anchors = (
);
components = (
);
contours = (
{
points = (
{
segmentType = curve;
smooth = 1;
x = 644;
y = "-5";
},
{
smooth = 0;
x = 712;
y = "-5";
},
{
smooth = 0;
x = 764;
y = 38;
},
{
segmentType = curve;
smooth = 1;
x = 793;
y = 117;
},
{
segmentType = line;
smooth = 1;
x = 1243;
y = 1324;
},
{
smooth = 0;
x = 1247;
y = 1335;
},
{
smooth = 0;
x = 1248;
y = 1342;
},
{
segmentType = curve;
smooth = 1;
x = 1248;
y = 1351;
},
{
smooth = 0;
x = 1248;
y = 1395;
},
{
smooth = 0;
x = 1203;
y = 1427;
},
{
segmentType = curve;
smooth = 1;
x = 1160;
y = 1427;
},
{
smooth = 0;
x = 1125;
y = 1427;
},
{
smooth = 0;
x = 1090;
y = 1408;
},
{
segmentType = curve;
smooth = 1;
x = 1076;
y = 1369;
},
{
segmentType = line;
smooth = 0;
x = 651;
y = 192;
},
{
segmentType = line;
smooth = 0;
x = 650;
y = 190;
},
{
segmentType = line;
smooth = 1;
x = 214;
y = 1370;
},
{
smooth = 0;
x = 200;
y = 1407;
},
{
smooth = 0;
x = 170;
y = 1427;
},
{
segmentType = curve;
smooth = 1;
x = 135;
y = 1427;
},
{
smooth = 0;
x = 90;
y = 1427;
},
{
smooth = 0;
x = 43;
y = 1392;
},
{
segmentType = curve;
smooth = 1;
x = 43;
y = 1344;
},
{
smooth = 0;
x = 43;
y = 1336;
},
{
smooth = 0;
x = 44;
y = 1326;
},
{
segmentType = curve;
smooth = 0;
x = 48;
y = 1318;
},
{
segmentType = line;
smooth = 1;
x = 501;
y = 117;
},
{
smooth = 0;
x = 532;
y = 35;
},
{
smooth = 0;
x = 581;
y = "-5";
}
);
}
);
lib = {
};
name = V;
unicodes = (
);
width = 1289;
};
};
components = (
);
contours = (
);
lib = {
};
name = V;
unicodes = (
);
width = 1365;
};
},
{
glyphname = W;
lastChange = "2019-01-16 15:38:45 +0000";
layers = (
{
anchors = (
{
name = bottom;
position = "{551.718, 0}";
},
{
name = top;
position = "{550.602, 712}";
}
);
layerId = "46D6449F-D991-45BF-8D03-34744F3491AE";
paths = (
{
closed = 1;
nodes = (
"327.427 0 LINE",
"562.485 673.408 LINE",
"540.835 673.408 LINE",
"776.243 0 LINE",
"814.689 0 LINE",
"1061.99 712 LINE",
"1018.641 712 LINE",
"779.816 19.388 LINE",
"809.233 19.388 LINE",
"570.291 710.883 LINE",
"533.214 712 LINE",
"294.204 19.388 LINE",
"321.806 19.388 LINE",
"83.748 712 LINE",
"41.563 712 LINE",
"288.981 0 LINE"
);
}
);
width = 1103.5534;
},
{
anchors = (
{
name = bottom;
position = "{566.563, 0}";
},
{
name = top;
position = "{566.796, 712}";
}
);
layerId = "6790C309-8F5A-452B-8BE0-8B8CBBA8D07C";
paths = (
{
closed = 1;
nodes = (
"415.146 0 LINE",
"580.029 460.184 LINE",
"554.33 460.184 LINE",
"715.515 0 LINE",
"864.621 0 LINE",
"1120.019 712 LINE",
"941.718 712 LINE",
"770.369 200.223 LINE",
"806.534 200.223 LINE",
"636.417 712.233 LINE",
"507.573 712 LINE",
"326.592 200.223 LINE",
"370.388 200.223 LINE",
"202.505 712 LINE",
"11.874 712 LINE",
"266.039 0 LINE"
);
}
);
width = 1131.8932;
},
{
anchors = (
{
name = bottom;
position = "{555.883, 0}";
},
{
name = top;
position = "{555.146, 712}";
}
);
layerId = "A299C91D-11CD-42B0-B8D6-5EC4BEC07D9B";
paths = (
{
closed = 1;
nodes = (
"352.039 0 LINE",
"567.407 613.583 LINE",
"544.621 613.583 LINE",
"759.204 0 LINE",
"828.699 0 LINE",
"1078.272 712 LINE",
"997.058 712 LINE",
"777.165 70.126 LINE",
"808.476 70.126 LINE",
"588.844 711.262 LINE",
"526.02 712 LINE",
"303.291 70.126 LINE",
"335.437 70.126 LINE",
"117.068 712 LINE",
"33.233 712 LINE",
"282.544 0 LINE"
);
}
);
width = 1111.50485;
}
);
leftKerningGroup = V;
rightKerningGroup = V;
unicode = 0057;
userData = {
anchors = (
);
b = {
};
com.typemytype.robofont.layerData = {
b = {
anchors = (
);
components = (
);
contours = (
);
lib = {
};
name = W;
unicodes = (
);
width = 2126;
};
};
components = (
);
contours = (
);
lib = {
};
name = W;
unicodes = (
);
width = 2070;
};
},
{
glyphname = X;
lastChange = "2019-01-16 15:38:45 +0000";
layers = (
{
anchors = (
{
name = bottom;
position = "{318.553, 0}";
},
{
name = top;
position = "{318.67, 712}";
}
);
layerId = "46D6449F-D991-45BF-8D03-34744F3491AE";
paths = (
{
closed = 1;
nodes = (
"318.67 332.553 LINE",
"342.563 365.466 LINE",
"597.398 712 LINE",
"547.961 712 LINE",
"319.786 398.612 LINE",
"294.777 366.583 LINE",
"23.777 0 LINE",
"75.447 0 LINE"
);
},
{
closed = 1;
nodes = (
"612.33 0 LINE",
"342.563 365.466 LINE",
"319.786 398.612 LINE",
"90.262 712 LINE",
"39.709 712 LINE",
"294.777 366.583 LINE",
"318.67 332.553 LINE",
"563.01 0 LINE"
);
}
);
width = 635.99029;
},
{
anchors = (
{
name = bottom;
position = "{346.893, 0}";
},
{
name = top;
position = "{345.66, 712}";
}
);
layerId = "6790C309-8F5A-452B-8BE0-8B8CBBA8D07C";
paths = (
{
closed = 1;
nodes = (
"345.66 221.893 LINE",
"451.874 360.068 LINE",
"720.204 712 LINE",
"502.078 712 LINE",
"345.427 495.777 LINE",
"239.447 359.835 LINE",
"-31.553 0 LINE",
"186.107 0 LINE"
);
},
{
closed = 1;
nodes = (
"724.34 0 LINE",
"451.874 360.068 LINE",
"345.427 495.777 LINE",
"191.476 712 LINE",
"-26.417 712 LINE",
"239.447 359.835 LINE",
"345.66 221.893 LINE",
"504.981 0 LINE"
);
}
);
width = 694.01942;
},
{
anchors = (
{
name = bottom;
position = "{326.505, 0}";
},
{
name = top;
position = "{326.243, 712}";
}
);
layerId = "A299C91D-11CD-42B0-B8D6-5EC4BEC07D9B";
paths = (
{
closed = 1;
nodes = (
"326.243 301.505 LINE",
"373.233 363.951 LINE",
"631.854 712 LINE",
"535.087 712 LINE",
"326.98 425.874 LINE",
"279.253 364.69 LINE",
"8.253 0 LINE",
"106.495 0 LINE"
);
},
{
closed = 1;
nodes = (
"643.757 0 LINE",
"373.233 363.951 LINE",
"326.98 425.874 LINE",
"118.66 712 LINE",
"21.156 712 LINE",
"279.253 364.69 LINE",
"326.243 301.505 LINE",
"546.728 0 LINE"
);
}
);
width = 652.27184;
}
);
leftKerningGroup = X;
rightKerningGroup = X;
unicode = 0058;
userData = {
anchors = (
);
b = {
};
com.typemytype.robofont.layerData = {
b = {
anchors = (
);
components = (
);
contours = (
{
points = (
{
segmentType = curve;
smooth = 1;
x = 151;
y = 0;
},
{
smooth = 0;
x = 176;
y = 0;
},
{
smooth = 0;
x = 201;
y = 12;
},
{
segmentType = curve;
smooth = 1;
x = 222;
y = 41;
},
{
segmentType = line;
smooth = 0;
x = 641;
y = 616;
},
{
segmentType = line;
smooth = 0;
x = 746;
y = 734;
},
{
segmentType = line;
smooth = 1;
x = 1175;
y = 1310;
},
{
smooth = 0;
x = 1186;
y = 1325;
},
{
smooth = 0;
x = 1190;
y = 1338;
},
{
segmentType = curve;
smooth = 1;
x = 1190;
y = 1353;
},
{
smooth = 0;
x = 1190;
y = 1393;
},
{
smooth = 0;
x = 1153;
y = 1426;
},
{
segmentType = curve;
smooth = 1;
x = 1110;
y = 1426;
},
{
smooth = 0;
x = 1083;
y = 1426;
},
{
smooth = 0;
x = 1058;
y = 1414;
},
{
segmentType = curve;
smooth = 1;
x = 1037;
y = 1385;
},
{
segmentType = line;
smooth = 0;
x = 648;
y = 844;
},
{
segmentType = line;
smooth = 0;
x = 542;
y = 732;
},
{
segmentType = line;
smooth = 1;
x = 84;
y = 121;
},
{
smooth = 0;
x = 73;
y = 106;
},
{
smooth = 0;
x = 68;
y = 91;
},
{
segmentType = curve;
smooth = 1;
x = 68;
y = 76;
},
{
smooth = 0;
x = 68;
y = 35;
},
{
smooth = 0;
x = 108;
y = 0;
}
);
},
{
points = (
{
segmentType = curve;
smooth = 1;
x = 1104;
y = 0;
},
{
smooth = 0;
x = 1151;
y = 0;
},
{
smooth = 0;
x = 1200;
y = 40;
},
{
segmentType = curve;
smooth = 1;
x = 1200;
y = 85;
},
{
smooth = 0;
x = 1200;
y = 98;
},
{
smooth = 0;
x = 1195;
y = 113;
},
{
segmentType = curve;
smooth = 0;
x = 1186;
y = 126;
},
{
segmentType = line;
smooth = 0;
x = 272;
y = 1385;
},
{
smooth = 0;
x = 252;
y = 1414;
},
{
smooth = 0;
x = 225;
y = 1426;
},
{
segmentType = curve;
smooth = 1;
x = 197;
y = 1426;
},
{
smooth = 0;
x = 149;
y = 1426;
},
{
smooth = 0;
x = 100;
y = 1388;
},
{
segmentType = curve;
smooth = 1;
x = 100;
y = 1343;
},
{
smooth = 0;
x = 100;
y = 1328;
},
{
smooth = 0;
x = 105;
y = 1315;
},
{
segmentType = curve;
smooth = 0;
x = 114;
y = 1303;
},
{
segmentType = line;
smooth = 0;
x = 1033;
y = 40;
},
{
smooth = 0;
x = 1052;
y = 13;
},
{
smooth = 0;
x = 1076;
y = 0;
}
);
}
);
lib = {
};
name = X;
unicodes = (
);
width = 1274;
};
};
components = (
);
contours = (
);
lib = {
};
name = X;
unicodes = (
);
width = 1322;
};
},
{
glyphname = Y;
lastChange = "2019-01-16 15:38:45 +0000";
layers = (
{
anchors = (
{
name = bottom;
position = "{292.854, 0}";
},
{
name = top;
position = "{292.971, 712}";
},
{
name = topleft;
position = "{19, 712}";
}
);
layerId = "46D6449F-D991-45BF-8D03-34744F3491AE";
paths = (
{
closed = 1;
nodes = (
"313.563 0 LINE",
"313.563 320 LINE",
"304.01 280.592 LINE",
"585 712 LINE",
"537.33 712 LINE",
"284.369 321.058 LINE",
"305.039 321.058 LINE",
"50.728 712 LINE",
"0.709 712 LINE",
"282.816 280.592 LINE",
"272.262 320 LINE",
"272.262 0 LINE"
);
}
);
width = 586.94175;
},
{
anchors = (
{
name = bottom;
position = "{329.291, 0}";
},
{
name = top;
position = "{328.058, 712}";
},
{
name = topleft;
position = "{19, 712}";
}
);
layerId = "6790C309-8F5A-452B-8BE0-8B8CBBA8D07C";
paths = (
{
closed = 1;
nodes = (
"422.874 0 LINE",
"422.874 320 LINE",
"384.981 215.816 LINE",
"724 712 LINE",
"510.34 712 LINE",
"303.262 389.883 LINE",
"350.922 389.883 LINE",
"146.544 712 LINE",
"-65.417 712 LINE",
"273.369 215.816 LINE",
"234.476 320 LINE",
"234.476 0 LINE"
);
}
);
width = 657.1165;
},
{
anchors = (
{
name = bottom;
position = "{303.077, 0}";
},
{
name = top;
position = "{302.816, 712}";
},
{
name = topleft;
position = "{19, 712}";
}
);
layerId = "A299C91D-11CD-42B0-B8D6-5EC4BEC07D9B";
paths = (
{
closed = 1;
nodes = (
"344.233 0 LINE",
"344.233 320 LINE",
"326.728 262.417 LINE",
"624 712 LINE",
"529.757 712 LINE",
"289.67 340.369 LINE",
"317.913 340.369 LINE",
"77.612 712 LINE",
"-17.844 712 LINE",
"280.165 262.417 LINE",
"261.66 320 LINE",
"261.66 0 LINE"
);
}
);
width = 606.63107;
}
);
leftKerningGroup = Y;
rightKerningGroup = Y;
unicode = 0059;
userData = {
anchors = (
);
b = {
};
com.typemytype.robofont.guides = (
);
com.typemytype.robofont.layerData = {
b = {
anchors = (
);
components = (
);
contours = (
{
points = (
{
segmentType = curve;
smooth = 1;
x = 641;
y = 0;
},
{
smooth = 0;
x = 685;
y = 0;
},
{
smooth = 0;
x = 730;
y = 29;
},
{
segmentType = curve;
smooth = 1;
x = 730;
y = 85;
},
{
segmentType = line;
smooth = 0;
x = 730;
y = 1285;
},
{
segmentType = line;
smooth = 1;
x = 1115;
y = 1285;
},
{
smooth = 0;
x = 1164;
y = 1285;
},
{
smooth = 0;
x = 1190;
y = 1319;
},
{
segmentType = curve;
smooth = 1;
x = 1190;
y = 1355;
},
{
smooth = 0;
x = 1190;
y = 1392;
},
{
smooth = 0;
x = 1166;
y = 1426;
},
{
segmentType = curve;
smooth = 1;
x = 1115;
y = 1426;
},
{
segmentType = line;
smooth = 1;
x = 160;
y = 1426;
},
{
smooth = 0;
x = 111;
y = 1426;
},
{
smooth = 0;
x = 86;
y = 1392;
},
{
segmentType = curve;
smooth = 1;
x = 86;
y = 1355;
},
{
smooth = 0;
x = 86;
y = 1319;
},
{
smooth = 0;
x = 111;
y = 1285;
},
{
segmentType = curve;
smooth = 1;
x = 160;
y = 1285;
},
{
segmentType = line;
smooth = 0;
x = 552;
y = 1285;
},
{
segmentType = line;
smooth = 1;
x = 552;
y = 85;
},
{
smooth = 0;
x = 552;
y = 29;
},
{
smooth = 0;
x = 596;
y = 0;
}
);
}
);
lib = {
};
name = Y;
unicodes = (
);
width = 1278;
};
};
components = (
);
contours = (
);
lib = {
};
name = Y;
unicodes = (
);
width = 1321;
};
},
{
glyphname = Z;
lastChange = "2019-01-16 15:38:45 +0000";
layers = (
{
anchors = (
{
name = bottom;
position = "{300.417, 0}";
},
{
name = top;
position = "{291.019, 712}";
}
);
layerId = "46D6449F-D991-45BF-8D03-34744F3491AE";
paths = (
{
closed = 1;
nodes = (
"546.272 0 LINE",
"546.272 38.68 LINE",
"68.136 38.68 LINE",
"66.136 -1.971 LINE",
"536.388 680.971 LINE",
"536.388 712 LINE",
"42.068 712 LINE",
"42.068 673.32 LINE",
"511.67 673.32 LINE",
"513.786 713.971 LINE",
"42.068 30.796 LINE",
"42.068 0 LINE"
);
}
);
width = 584.62136;
},
{
anchors = (
{
name = bottom;
position = "{307.165, 0}";
},
{
name = top;
position = "{313.961, 712}";
}
);
layerId = "6790C309-8F5A-452B-8BE0-8B8CBBA8D07C";
paths = (
{
closed = 1;
nodes = (
"589.456 0 LINE",
"589.456 146.641 LINE",
"228.728 146.641 LINE",
"226.728 101.942 LINE",
"578.223 577.058 LINE",
"578.223 712 LINE",
"52.864 712 LINE",
"52.864 565.359 LINE",
"399.66 565.359 LINE",
"400.427 610.058 LINE",
"52.864 137.408 LINE",
"52.864 0 LINE"
);
}
);
width = 623.75728;
},
{
anchors = (
{
name = bottom;
position = "{302.31, 0}";
},
{
name = top;
position = "{297.456, 712}";
}
);
layerId = "A299C91D-11CD-42B0-B8D6-5EC4BEC07D9B";
paths = (
{
closed = 1;
nodes = (
"558.388 0 LINE",
"558.388 68.971 LINE",
"113.194 68.971 LINE",
"111.194 27.184 LINE",
"548.126 651.816 LINE",
"548.126 712 LINE",
"45.097 712 LINE",
"45.097 643.029 LINE",
"480.243 643.029 LINE",
"481.98 684.816 LINE",
"45.097 60.709 LINE",
"45.097 0 LINE"
);
}
);
width = 595.60194;
}
);
leftKerningGroup = Z;
rightKerningGroup = Z;
unicode = 005A;
userData = {
anchors = (
);
b = {
};
com.typemytype.robofont.layerData = {
b = {
anchors = (
);
components = (
);
contours = (
{
points = (
{
segmentType = curve;
smooth = 1;
x = 266;
y = 0;
},
{
segmentType = line;
smooth = 1;
x = 1035;
y = 0;
},
{
smooth = 0;
x = 1084;
y = 0;
},
{
smooth = 0;
x = 1108;
y = 34;
},
{
segmentType = curve;
smooth = 1;
x = 1108;
y = 71;
},
{
smooth = 0;
x = 1108;
y = 107;
},
{
smooth = 0;
x = 1084;
y = 141;
},
{
segmentType = curve;
smooth = 1;
x = 1035;
y = 141;
},
{
segmentType = line;
smooth = 0;
x = 356;
y = 141;
},
{
segmentType = line;
smooth = 0;
x = 356;
y = 665;
},
{
segmentType = line;
smooth = 1;
x = 975;
y = 665;
},
{
smooth = 0;
x = 1024;
y = 665;
},
{
smooth = 0;
x = 1049;
y = 698;
},
{
segmentType = curve;
smooth = 1;
x = 1049;
y = 734;
},
{
smooth = 0;
x = 1049;
y = 770;
},
{
smooth = 0;
x = 1026;
y = 803;
},
{
segmentType = curve;
smooth = 1;
x = 975;
y = 803;
},
{
segmentType = line;
smooth = 0;
x = 356;
y = 803;
},
{
segmentType = line;
smooth = 0;
x = 356;
y = 1285;
},
{
segmentType = line;
smooth = 1;
x = 1007;
y = 1285;
},
{
smooth = 0;
x = 1056;
y = 1285;
},
{
smooth = 0;
x = 1080;
y = 1319;
},
{
segmentType = curve;
smooth = 1;
x = 1080;
y = 1356;
},
{
smooth = 0;
x = 1080;
y = 1392;
},
{
smooth = 0;
x = 1056;
y = 1426;
},
{
segmentType = curve;
smooth = 1;
x = 1007;
y = 1426;
},
{
segmentType = line;
smooth = 1;
x = 261;
y = 1426;
},
{
smooth = 0;
x = 213;
y = 1426;
},
{
smooth = 0;
x = 178;
y = 1383;
},
{
segmentType = curve;
smooth = 1;
x = 178;
y = 1340;
},
{
segmentType = line;
smooth = 1;
x = 178;
y = 86;
},
{
smooth = 0;
x = 178;
y = 41;
},
{
smooth = 0;
x = 222;
y = 0;
}
);
}
);
lib = {
};
name = Z;
unicodes = (
);
width = 1165;
};
};
components = (
);
contours = (
);
lib = {
};
name = Z;
unicodes = (
);
width = 1222;
};
},
{
color = 3;
glyphname = a;
lastChange = "2019-01-16 15:38:45 +0000";
layers = (
{
anchors = (
{
name = bottom;
position = "{292.553, 0}";
},
{
name = ogonek;
position = "{494.408, 10}";
},
{
name = top;
position = "{292.553, 505.417}";
}
);
layerId = "46D6449F-D991-45BF-8D03-34744F3491AE";
paths = (
{
closed = 1;
nodes = (
"374.612 -6.883 OFFCURVE",
"441.612 43.049 OFFCURVE",
"464.612 135.728 CURVE",
"452.612 144.427 LINE",
"452.612 0 LINE",
"494.845 0 LINE",
"494.845 500.301 LINE",
"452.612 500.301 LINE",
"452.612 361.689 LINE",
"464.612 370.806 LINE",
"441.612 462.485 OFFCURVE",
"374.612 512.184 OFFCURVE",
"276.864 512.184 CURVE SMOOTH",
"143.631 512.184 OFFCURVE",
"53.981 408.65 OFFCURVE",
"53.981 250.767 CURVE SMOOTH",
"53.981 94 OFFCURVE",
"141.515 -6.883 OFFCURVE",
"276.864 -6.883 CURVE SMOOTH"
);
},
{
closed = 1;
nodes = (
"166.126 33.961 OFFCURVE",
"99.447 112.99 OFFCURVE",
"99.447 250.767 CURVE SMOOTH",
"99.447 389.544 OFFCURVE",
"165.893 471.456 OFFCURVE",
"277.087 471.456 CURVE SMOOTH",
"389.282 471.456 OFFCURVE",
"452.612 392.544 OFFCURVE",
"452.612 252.767 CURVE SMOOTH",
"452.612 113.99 OFFCURVE",
"389.282 33.961 OFFCURVE",
"278.204 33.961 CURVE SMOOTH"
);
}
);
width = 582.75728;
},
{
anchors = (
{
name = bottom;
position = "{320.893, 0}";
},
{
name = ogonek;
position = "{559.184, 10}";
},
{
name = top;
position = "{320.893, 512.165}";
}
);
layerId = "6790C309-8F5A-452B-8BE0-8B8CBBA8D07C";
paths = (
{
closed = 1;
nodes = (
"332.777 -8.233 OFFCURVE",
"399.777 30.903 OFFCURVE",
"422.777 92.544 CURVE",
"410.777 93.146 LINE",
"410.777 0 LINE",
"589.311 0 LINE",
"589.311 508.398 LINE",
"410.777 508.398 LINE",
"410.777 411.621 LINE",
"422.777 419.388 LINE",
"399.777 480.029 OFFCURVE",
"332.777 521.631 OFFCURVE",
"255.272 521.631 CURVE SMOOTH",
"124.738 521.631 OFFCURVE",
"31.039 412.699 OFFCURVE",
"31.039 253.466 CURVE SMOOTH",
"31.039 94 OFFCURVE",
"123.971 -8.233 OFFCURVE",
"255.272 -8.233 CURVE SMOOTH"
);
},
{
closed = 1;
nodes = (
"245.748 127.078 OFFCURVE",
"210.107 171.019 OFFCURVE",
"210.107 253.466 CURVE SMOOTH",
"210.107 336.913 OFFCURVE",
"248.214 385.087 OFFCURVE",
"310.825 385.087 CURVE SMOOTH",
"374.437 385.087 OFFCURVE",
"410.777 339.913 OFFCURVE",
"410.777 255.466 CURVE SMOOTH",
"410.777 172.019 OFFCURVE",
"374.437 127.078 OFFCURVE",
"310.592 127.078 CURVE SMOOTH"
);
}
);
width = 643.48544;
},
{
anchors = (
{
name = bottom;
position = "{300.505, 0}";
},
{
name = ogonek;
position = "{512.583, 10}";
},
{
name = top;
position = "{300.505, 507.31}";
}
);
layerId = "A299C91D-11CD-42B0-B8D6-5EC4BEC07D9B";
paths = (
{
closed = 1;
nodes = (
"362.874 -7.262 OFFCURVE",
"429.874 39.641 OFFCURVE",
"452.874 123.612 CURVE",
"440.874 130.039 LINE",
"440.874 0 LINE",
"521.35 0 LINE",
"521.35 502.573 LINE",
"440.874 502.573 LINE",
"440.874 375.699 LINE",
"452.874 384.437 LINE",
"429.874 467.407 OFFCURVE",
"362.874 514.835 OFFCURVE",
"270.806 514.835 CURVE SMOOTH",
"138.33 514.835 OFFCURVE",
"47.544 409.786 OFFCURVE",
"47.544 251.524 CURVE SMOOTH",
"47.544 94 OFFCURVE",
"136.593 -7.262 OFFCURVE",
"270.806 -7.262 CURVE SMOOTH"
);
},
{
closed = 1;
nodes = (
"188.466 60.087 OFFCURVE",
"130.495 129.272 OFFCURVE",
"130.495 251.524 CURVE SMOOTH",
"130.495 374.777 OFFCURVE",
"188.99 447.223 OFFCURVE",
"286.553 447.223 CURVE SMOOTH",
"385.117 447.223 OFFCURVE",
"440.874 377.777 OFFCURVE",
"440.874 253.524 CURVE SMOOTH",
"440.874 130.272 OFFCURVE",
"385.117 60.087 OFFCURVE",
"287.291 60.087 CURVE SMOOTH"
);
}
);
width = 599.79612;
}
);
leftKerningGroup = o;
rightKerningGroup = u;
unicode = 0061;
userData = {
anchors = (
);
b = {
};
com.typemytype.robofont.layerData = {
b = {
anchors = (
);
components = (
);
contours = (
);
lib = {
};
name = p;
unicodes = (
);
width = 1181;
};
};
components = (
);
contours = (
);
lib = {
};
name = p;
unicodes = (
);
width = 1207;
};
},
{
color = 3;
glyphname = aogonek;
lastChange = "2019-01-16 15:38:45 +0000";
layers = (
{
layerId = "46D6449F-D991-45BF-8D03-34744F3491AE";
paths = (
{
closed = 1;
nodes = (
"494.845 500.301 LINE",
"452.612 500.301 LINE",
"452.612 361.689 LINE",
"464.612 370.806 LINE",
"441.612 462.485 OFFCURVE",
"374.612 512.184 OFFCURVE",
"276.864 512.184 CURVE SMOOTH",
"143.748 512.184 OFFCURVE",
"53.981 408.883 OFFCURVE",
"53.981 250.767 CURVE SMOOTH",
"53.981 93.767 OFFCURVE",
"141.748 -6.883 OFFCURVE",
"276.864 -6.883 CURVE SMOOTH",
"374.612 -6.883 OFFCURVE",
"441.612 43.049 OFFCURVE",
"464.612 135.728 CURVE",
"452.612 115.282 LINE",
"452.612 0 LINE",
"466.466 0 LINE",
"488.398 39.117 LINE",
"402.951 27.515 OFFCURVE",
"350.204 -23.068 OFFCURVE",
"350.204 -91.35 CURVE SMOOTH",
"350.204 -153.767 OFFCURVE",
"396.272 -196.184 OFFCURVE",
"464.456 -196.184 CURVE SMOOTH",
"495.874 -196.184 OFFCURVE",
"523.942 -188.184 OFFCURVE",
"544.893 -172.951 CURVE",
"528.01 -136.913 LINE",
"505.777 -150.379 OFFCURVE",
"484.427 -157.728 OFFCURVE",
"466.427 -157.728 CURVE SMOOTH",
"423.078 -157.728 OFFCURVE",
"395.495 -129.796 OFFCURVE",
"395.495 -87.097 CURVE SMOOTH",
"395.495 -35.932 OFFCURVE",
"434.961 0 OFFCURVE",
"491.427 0 CURVE SMOOTH",
"494.845 0 LINE"
);
},
{
closed = 1;
nodes = (
"166.126 33.961 OFFCURVE",
"99.447 112.99 OFFCURVE",
"99.447 250.767 CURVE SMOOTH",
"99.447 389.544 OFFCURVE",
"165.893 471.456 OFFCURVE",
"277.087 471.456 CURVE SMOOTH",
"389.282 471.456 OFFCURVE",
"452.612 392.544 OFFCURVE",
"452.612 252.767 CURVE SMOOTH",
"452.612 113.99 OFFCURVE",
"389.282 33.961 OFFCURVE",
"278.204 33.961 CURVE SMOOTH"
);
}
);
width = 582.75728;
},
{
layerId = "6790C309-8F5A-452B-8BE0-8B8CBBA8D07C";
paths = (
{
closed = 1;
nodes = (
"589.311 508.398 LINE",
"410.777 508.398 LINE",
"410.777 411.621 LINE",
"422.777 419.388 LINE",
"399.777 480.029 OFFCURVE",
"332.777 521.631 OFFCURVE",
"255.272 521.631 CURVE SMOOTH",
"123.505 521.631 OFFCURVE",
"31.039 410.233 OFFCURVE",
"31.039 253.466 CURVE SMOOTH",
"31.039 96.466 OFFCURVE",
"121.505 -8.233 OFFCURVE",
"255.272 -8.233 CURVE SMOOTH",
"332.777 -8.233 OFFCURVE",
"399.777 30.903 OFFCURVE",
"422.777 92.544 CURVE",
"410.777 100.437 LINE",
"410.777 0 LINE",
"461.068 0 LINE",
"472.204 37.767 LINE",
"415.097 9.971 OFFCURVE",
"382.592 -33.864 OFFCURVE",
"382.592 -87.301 CURVE SMOOTH",
"382.592 -156.466 OFFCURVE",
"439.456 -205.631 OFFCURVE",
"517.087 -205.631 CURVE SMOOTH",
"555.252 -205.631 OFFCURVE",
"594.117 -197.631 OFFCURVE",
"627.214 -185.097 CURVE",
"608.981 -103.175 LINE",
"589.447 -111.243 OFFCURVE",
"572.146 -114.544 OFFCURVE",
"554.146 -114.544 CURVE SMOOTH",
"514.845 -114.544 OFFCURVE",
"494.01 -97.408 OFFCURVE",
"494.01 -62.806 CURVE SMOOTH",
"494.01 -25.136 OFFCURVE",
"528.078 0 OFFCURVE",
"579.146 0 CURVE SMOOTH",
"589.311 0 LINE"
);
},
{
closed = 1;
nodes = (
"245.748 127.078 OFFCURVE",
"210.107 171.019 OFFCURVE",
"210.107 253.466 CURVE SMOOTH",
"210.107 336.913 OFFCURVE",
"248.214 385.087 OFFCURVE",
"310.825 385.087 CURVE SMOOTH",
"374.437 385.087 OFFCURVE",
"410.777 339.913 OFFCURVE",
"410.777 255.466 CURVE SMOOTH",
"410.777 172.019 OFFCURVE",
"374.437 127.078 OFFCURVE",
"310.592 127.078 CURVE SMOOTH"
);
}
);
width = 643.48544;
},
{
layerId = "A299C91D-11CD-42B0-B8D6-5EC4BEC07D9B";
paths = (
{
closed = 1;
nodes = (
"521.35 502.573 LINE",
"440.874 502.573 LINE",
"440.874 375.699 LINE",
"452.874 384.437 LINE",
"429.874 467.407 OFFCURVE",
"362.874 514.835 OFFCURVE",
"270.806 514.835 CURVE SMOOTH",
"138.068 514.835 OFFCURVE",
"47.544 409.262 OFFCURVE",
"47.544 251.524 CURVE SMOOTH",
"47.544 94.524 OFFCURVE",
"136.068 -7.262 OFFCURVE",
"270.806 -7.262 CURVE SMOOTH",
"362.874 -7.262 OFFCURVE",
"429.874 39.641 OFFCURVE",
"452.874 123.612 CURVE",
"440.874 111.117 LINE",
"440.874 0 LINE",
"464.951 0 LINE",
"483.854 38.738 LINE",
"406.359 22.593 OFFCURVE",
"359.291 -26.097 OFFCURVE",
"359.291 -90.214 CURVE SMOOTH",
"359.291 -154.524 OFFCURVE",
"408.388 -198.835 OFFCURVE",
"479.223 -198.835 CURVE SMOOTH",
"512.534 -198.835 OFFCURVE",
"543.631 -190.835 OFFCURVE",
"567.99 -176.359 CURVE",
"550.728 -127.447 LINE",
"529.253 -139.398 OFFCURVE",
"509.039 -145.612 OFFCURVE",
"491.039 -145.612 CURVE SMOOTH",
"448.826 -145.612 OFFCURVE",
"423.136 -120.709 OFFCURVE",
"423.136 -80.282 CURVE SMOOTH",
"423.136 -32.903 OFFCURVE",
"461.087 0 OFFCURVE",
"516.039 0 CURVE SMOOTH",
"521.35 0 LINE"
);
},
{
closed = 1;
nodes = (
"188.466 60.087 OFFCURVE",
"130.495 129.272 OFFCURVE",
"130.495 251.524 CURVE SMOOTH",
"130.495 374.777 OFFCURVE",
"188.99 447.223 OFFCURVE",
"286.553 447.223 CURVE SMOOTH",
"385.117 447.223 OFFCURVE",
"440.874 377.777 OFFCURVE",
"440.874 253.524 CURVE SMOOTH",
"440.874 130.272 OFFCURVE",
"385.117 60.087 OFFCURVE",
"287.291 60.087 CURVE SMOOTH"
);
}
);
width = 599.79612;
}
);
leftKerningGroup = o;
rightKerningGroup = u;
unicode = 0105;
userData = {
com.typemytype.robofont.layerData = {
b = {
anchors = (
);
components = (
);
contours = (
);
lib = {
};
name = aogonek;
unicodes = (
);
width = 1040;
};
};
};
},
{
color = 3;
glyphname = aringacute;
lastChange = "2019-01-16 15:38:45 +0000";
layers = (
{
layerId = "46D6449F-D991-45BF-8D03-34744F3491AE";
paths = (
{
closed = 1;
nodes = (
"374.612 -6.883 OFFCURVE",
"441.612 43.049 OFFCURVE",
"464.612 135.728 CURVE",
"452.612 144.427 LINE",
"452.612 0 LINE",
"494.845 0 LINE",
"494.845 500.301 LINE",
"452.612 500.301 LINE",
"452.612 361.689 LINE",
"464.612 370.806 LINE",
"441.612 462.485 OFFCURVE",
"374.612 512.184 OFFCURVE",
"276.864 512.184 CURVE SMOOTH",
"143.631 512.184 OFFCURVE",
"53.981 408.65 OFFCURVE",
"53.981 250.767 CURVE SMOOTH",
"53.981 94 OFFCURVE",
"141.515 -6.883 OFFCURVE",
"276.864 -6.883 CURVE SMOOTH"
);
},
{
closed = 1;
nodes = (
"166.126 33.961 OFFCURVE",
"99.447 112.99 OFFCURVE",
"99.447 250.767 CURVE SMOOTH",
"99.447 389.544 OFFCURVE",
"165.893 471.456 OFFCURVE",
"277.087 471.456 CURVE SMOOTH",
"389.282 471.456 OFFCURVE",
"452.612 392.544 OFFCURVE",
"452.612 252.767 CURVE SMOOTH",
"452.612 113.99 OFFCURVE",
"389.282 33.961 OFFCURVE",
"278.204 33.961 CURVE SMOOTH"
);
},
{
closed = 1;
nodes = (
"346.621 573.583 OFFCURVE",
"392.039 617 OFFCURVE",
"392.039 671.068 CURVE SMOOTH",
"392.039 726.369 OFFCURVE",
"346.621 769.903 OFFCURVE",
"292.553 769.903 CURVE SMOOTH",
"238.485 769.903 OFFCURVE",
"192.835 726.369 OFFCURVE",
"192.835 671.068 CURVE SMOOTH",
"192.835 617 OFFCURVE",
"238.485 573.583 OFFCURVE",
"292.553 573.583 CURVE SMOOTH"
);
},
{
closed = 1;
nodes = (
"262.087 617.485 OFFCURVE",
"239.621 641.718 OFFCURVE",
"239.621 671.068 CURVE SMOOTH",
"239.621 701.534 OFFCURVE",
"262.087 726 OFFCURVE",
"292.553 726 CURVE SMOOTH",
"323.019 726 OFFCURVE",
"345.369 701.534 OFFCURVE",
"345.369 671.068 CURVE SMOOTH",
"345.369 641.718 OFFCURVE",
"323.019 617.485 OFFCURVE",
"292.553 617.485 CURVE SMOOTH"
);
},
{
closed = 1;
nodes = (
"498.66 876 LINE",
"436.35 877.534 LINE",
"326.437 715.641 LINE",
"365.34 718.117 LINE"
);
}
);
width = 582.75728;
},
{
layerId = "6790C309-8F5A-452B-8BE0-8B8CBBA8D07C";
paths = (
{
closed = 1;
nodes = (
"332.777 -8.233 OFFCURVE",
"399.777 30.903 OFFCURVE",
"422.777 92.544 CURVE",
"410.777 93.146 LINE",
"410.777 0 LINE",
"589.311 0 LINE",
"589.311 508.398 LINE",
"410.777 508.398 LINE",
"410.777 411.621 LINE",
"422.777 419.388 LINE",
"399.777 480.029 OFFCURVE",
"332.777 521.631 OFFCURVE",
"255.272 521.631 CURVE SMOOTH",
"124.738 521.631 OFFCURVE",
"31.039 412.699 OFFCURVE",
"31.039 253.466 CURVE SMOOTH",
"31.039 94 OFFCURVE",
"123.971 -8.233 OFFCURVE",
"255.272 -8.233 CURVE SMOOTH"
);
},
{
closed = 1;
nodes = (
"245.748 127.078 OFFCURVE",
"210.107 171.019 OFFCURVE",
"210.107 253.466 CURVE SMOOTH",
"210.107 336.913 OFFCURVE",
"248.214 385.087 OFFCURVE",
"310.825 385.087 CURVE SMOOTH",
"374.437 385.087 OFFCURVE",
"410.777 339.913 OFFCURVE",
"410.777 255.466 CURVE SMOOTH",
"410.777 172.019 OFFCURVE",
"374.437 127.078 OFFCURVE",
"310.592 127.078 CURVE SMOOTH"
);
},
{
closed = 1;
nodes = (
"385.757 566.835 OFFCURVE",
"437.922 617 OFFCURVE",
"437.922 681.864 CURVE SMOOTH",
"437.922 745.262 OFFCURVE",
"385.757 794.194 OFFCURVE",
"320.893 794.194 CURVE SMOOTH",
"256.029 794.194 OFFCURVE",
"206.33 745.262 OFFCURVE",
"206.33 681.864 CURVE SMOOTH",
"206.33 617 OFFCURVE",
"256.029 566.835 OFFCURVE",
"320.893 566.835 CURVE SMOOTH"
);
},
{
closed = 1;
nodes = (
"295.825 635.029 OFFCURVE",
"278.757 656.563 OFFCURVE",
"278.757 681.864 CURVE SMOOTH",
"278.757 706.932 OFFCURVE",
"295.825 726 OFFCURVE",
"320.893 726 CURVE SMOOTH",
"345.961 726 OFFCURVE",
"364.262 706.932 OFFCURVE",
"364.262 681.864 CURVE SMOOTH",
"364.262 656.563 OFFCURVE",
"345.961 635.029 OFFCURVE",
"320.893 635.029 CURVE SMOOTH"
);
},
{
closed = 1;
nodes = (
"583.68 876 LINE",
"432.301 882.932 LINE",
"356.126 777.718 LINE",
"419.32 716.767 LINE"
);
}
);
width = 643.48544;
},
{
layerId = "A299C91D-11CD-42B0-B8D6-5EC4BEC07D9B";
paths = (
{
closed = 1;
nodes = (
"362.874 -7.262 OFFCURVE",
"429.874 39.641 OFFCURVE",
"452.874 123.612 CURVE",
"440.874 130.039 LINE",
"440.874 0 LINE",
"521.35 0 LINE",
"521.35 502.573 LINE",
"440.874 502.573 LINE",
"440.874 375.699 LINE",
"452.874 384.437 LINE",
"429.874 467.407 OFFCURVE",
"362.874 514.835 OFFCURVE",
"270.806 514.835 CURVE SMOOTH",
"138.33 514.835 OFFCURVE",
"47.544 409.786 OFFCURVE",
"47.544 251.524 CURVE SMOOTH",
"47.544 94 OFFCURVE",
"136.593 -7.262 OFFCURVE",
"270.806 -7.262 CURVE SMOOTH"
);
},
{
closed = 1;
nodes = (
"188.466 60.087 OFFCURVE",
"130.495 129.272 OFFCURVE",
"130.495 251.524 CURVE SMOOTH",
"130.495 374.777 OFFCURVE",
"188.99 447.223 OFFCURVE",
"286.553 447.223 CURVE SMOOTH",
"385.117 447.223 OFFCURVE",
"440.874 377.777 OFFCURVE",
"440.874 253.524 CURVE SMOOTH",
"440.874 130.272 OFFCURVE",
"385.117 60.087 OFFCURVE",
"287.291 60.087 CURVE SMOOTH"
);
},
{
closed = 1;
nodes = (
"357.602 571.69 OFFCURVE",
"404.913 617 OFFCURVE",
"404.913 674.097 CURVE SMOOTH",
"404.913 731.67 OFFCURVE",
"357.602 776.718 OFFCURVE",
"300.505 776.718 CURVE SMOOTH",
"243.407 776.718 OFFCURVE",
"196.621 731.67 OFFCURVE",
"196.621 674.097 CURVE SMOOTH",
"196.621 617 OFFCURVE",
"243.407 571.69 OFFCURVE",
"300.505 571.69 CURVE SMOOTH"
);
},
{
closed = 1;
nodes = (
"271.553 622.407 OFFCURVE",
"250.602 645.883 OFFCURVE",
"250.602 674.097 CURVE SMOOTH",
"250.602 703.049 OFFCURVE",
"271.553 726 OFFCURVE",
"300.505 726 CURVE SMOOTH",
"329.456 726 OFFCURVE",
"350.67 703.049 OFFCURVE",
"350.67 674.097 CURVE SMOOTH",
"350.67 645.883 OFFCURVE",
"329.456 622.407 OFFCURVE",
"300.505 622.407 CURVE SMOOTH"
);
},
{
closed = 1;
nodes = (
"522.515 876 LINE",
"435.214 879.049 LINE",
"334.767 733.058 LINE",
"380.485 717.738 LINE"
);
}
);
width = 599.79612;
}
);
leftKerningGroup = o;
rightKerningGroup = u;
unicode = 01FB;
},
{
color = 3;
glyphname = ae;
lastChange = "2019-01-16 15:38:45 +0000";
layers = (
{
anchors = (
{
name = bottom;
position = "{436.583, 0}";
},
{
name = top;
position = "{436.583, 505.417}";
}
);
layerId = "46D6449F-D991-45BF-8D03-34744F3491AE";
paths = (
{
closed = 1;
nodes = (
"715.981 -6.883 OFFCURVE",
"788.515 21.699 OFFCURVE",
"829.816 62.932 CURVE",
"811.146 98.709 LINE",
"757.214 55.544 OFFCURVE",
"703.097 34.194 OFFCURVE",
"647.165 34.194 CURVE SMOOTH",
"527.485 34.194 OFFCURVE",
"458.107 111.291 OFFCURVE",
"458.107 254.35 CURVE SMOOTH",
"458.107 387.33 OFFCURVE",
"527.485 473.524 OFFCURVE",
"636.913 473.524 CURVE SMOOTH",
"742.922 473.524 OFFCURVE",
"801.718 398.262 OFFCURVE",
"798.485 261.437 CURVE",
"816.272 302.485 LINE",
"435.825 302.485 LINE",
"437.058 261.214 LINE",
"838.816 261.214 LINE",
"838.816 270.932 LINE SMOOTH",
"838.816 422.699 OFFCURVE",
"764.214 512.184 OFFCURVE",
"636.447 512.184 CURVE SMOOTH",
"504.495 512.184 OFFCURVE",
"412.845 404.068 OFFCURVE",
"418.427 248.301 CURVE SMOOTH",
"423.893 87 OFFCURVE",
"509.427 -6.883 OFFCURVE",
"649.447 -6.883 CURVE SMOOTH"
);
},
{
closed = 1;
nodes = (
"356.767 -6.883 OFFCURVE",
"428.951 63.65 OFFCURVE",
"442.35 174.553 CURVE",
"457.621 172.272 LINE",
"457.621 334.612 LINE SMOOTH",
"457.621 451.117 OFFCURVE",
"399.32 512.184 OFFCURVE",
"282.883 512.184 CURVE SMOOTH",
"215.466 512.184 OFFCURVE",
"141.563 489.65 OFFCURVE",
"93.495 451.417 CURVE",
"113.282 415.757 LINE",
"172.748 453.34 OFFCURVE",
"226.699 471.223 OFFCURVE",
"288.398 471.223 CURVE SMOOTH",
"377.66 471.223 OFFCURVE",
"414.058 427.126 OFFCURVE",
"414.058 324.466 CURVE SMOOTH",
"414.058 215.699 LINE SMOOTH",
"414.058 108.922 OFFCURVE",
"343.981 35.243 OFFCURVE",
"249.602 35.243 CURVE SMOOTH",
"174.223 35.243 OFFCURVE",
"119.544 80.34 OFFCURVE",
"119.544 150.485 CURVE SMOOTH",
"119.544 229.515 OFFCURVE",
"177.641 260.981 OFFCURVE",
"372.66 260.981 CURVE SMOOTH",
"425.524 260.981 LINE",
"425.524 302.485 LINE",
"371.476 302.485 LINE SMOOTH",
"148.262 302.485 OFFCURVE",
"71.379 256.718 OFFCURVE",
"72.495 145.602 CURVE SMOOTH",
"73.612 55.65 OFFCURVE",
"149.563 -6.883 OFFCURVE",
"248.699 -6.883 CURVE SMOOTH"
);
}
);
width = 889.56311;
},
{
anchors = (
{
name = bottom;
position = "{429.835, 0}";
},
{
name = top;
position = "{429.835, 512.165}";
}
);
layerId = "6790C309-8F5A-452B-8BE0-8B8CBBA8D07C";
paths = (
{
closed = 1;
nodes = (
"693.039 -8.233 OFFCURVE",
"770.971 13.602 OFFCURVE",
"820.369 52.136 CURVE",
"774.709 171.583 LINE",
"731.573 141.913 OFFCURVE",
"678.806 124.612 OFFCURVE",
"633.67 124.612 CURVE SMOOTH",
"545.029 124.612 OFFCURVE",
"514.786 177.417 OFFCURVE",
"514.786 250.301 CURVE SMOOTH",
"514.786 360.34 OFFCURVE",
"545.029 397.951 OFFCURVE",
"603.175 397.951 CURVE SMOOTH",
"651.155 397.951 OFFCURVE",
"677.563 360.476 OFFCURVE",
"677.029 291.126 CURVE",
"720.456 320.029 LINE",
"507.35 320.029 LINE",
"505.883 235.573 LINE",
"829.369 235.573 LINE",
"829.369 260.136 LINE SMOOTH",
"829.369 414.602 OFFCURVE",
"738.573 521.631 OFFCURVE",
"608.107 521.631 CURVE SMOOTH",
"464.01 521.631 OFFCURVE",
"368.311 414.864 OFFCURVE",
"367.146 256.398 CURVE SMOOTH",
"367.214 87 OFFCURVE",
"458.146 -8.233 OFFCURVE",
"621.107 -8.233 CURVE SMOOTH"
);
},
{
closed = 1;
nodes = (
"359.466 -8.233 OFFCURVE",
"441.097 67.699 OFFCURVE",
"438.301 202.893 CURVE",
"496.757 215.456 LINE",
"496.757 292.777 LINE SMOOTH",
"496.757 449.767 OFFCURVE",
"430.359 521.631 OFFCURVE",
"284.233 521.631 CURVE SMOOTH",
"210.068 521.631 OFFCURVE",
"111.874 493.699 OFFCURVE",
"53.01 458.165 CURVE",
"98.437 337.485 LINE",
"152.505 368.32 OFFCURVE",
"218.602 387.553 OFFCURVE",
"272.204 387.553 CURVE SMOOTH",
"323.68 387.553 OFFCURVE",
"343.883 367.748 OFFCURVE",
"343.883 319.068 CURVE SMOOTH",
"343.883 207.602 LINE SMOOTH",
"343.883 156.155 OFFCURVE",
"321.039 113.515 OFFCURVE",
"265.796 113.515 CURVE SMOOTH",
"229.553 113.515 OFFCURVE",
"205.913 134.32 OFFCURVE",
"205.913 168.029 CURVE SMOOTH",
"205.913 211.971 OFFCURVE",
"239.718 238.039 OFFCURVE",
"318.68 238.039 CURVE SMOOTH",
"349.951 238.039 LINE",
"349.951 320.029 LINE",
"308.049 320.029 LINE SMOOTH",
"110.476 320.029 OFFCURVE",
"32.243 271.563 OFFCURVE",
"32.01 161.796 CURVE SMOOTH",
"31.777 59.699 OFFCURVE",
"119.874 -8.233 OFFCURVE",
"240.602 -8.233 CURVE SMOOTH"
);
}
);
width = 859.87379;
},
{
anchors = (
{
name = bottom;
position = "{434.69, 0}";
},
{
name = top;
position = "{434.69, 507.31}";
}
);
layerId = "A299C91D-11CD-42B0-B8D6-5EC4BEC07D9B";
paths = (
{
closed = 1;
nodes = (
"709.544 -7.262 OFFCURVE",
"783.593 19.427 OFFCURVE",
"827.165 59.903 CURVE",
"800.923 119.156 LINE",
"750.02 79.777 OFFCURVE",
"696.282 59.563 OFFCURVE",
"643.379 59.563 CURVE SMOOTH",
"532.407 59.563 OFFCURVE",
"474.01 129.844 OFFCURVE",
"474.01 253.214 CURVE SMOOTH",
"474.01 379.757 OFFCURVE",
"532.407 452.32 OFFCURVE",
"627.447 452.32 CURVE SMOOTH",
"717.174 452.32 OFFCURVE",
"766.883 387.66 OFFCURVE",
"764.407 269.767 CURVE",
"789.388 307.407 LINE",
"455.893 307.407 LINE",
"456.369 254.02 LINE",
"836.165 254.02 LINE",
"836.165 267.903 LINE SMOOTH",
"836.165 420.427 OFFCURVE",
"757.02 514.835 OFFCURVE",
"628.495 514.835 CURVE SMOOTH",
"493.136 514.835 OFFCURVE",
"400.35 407.097 OFFCURVE",
"404.039 250.573 CURVE SMOOTH",
"407.99 87 OFFCURVE",
"495.039 -7.262 OFFCURVE",
"641.495 -7.262 CURVE SMOOTH"
);
},
{
closed = 1;
nodes = (
"357.524 -7.262 OFFCURVE",
"432.359 64.786 OFFCURVE",
"441.214 182.505 CURVE",
"468.602 184.388 LINE",
"468.602 322.874 LINE SMOOTH",
"468.602 450.738 OFFCURVE",
"408.029 514.835 OFFCURVE",
"283.262 514.835 CURVE SMOOTH",
"213.951 514.835 OFFCURVE",
"133.233 490.786 OFFCURVE",
"82.136 453.31 CURVE",
"109.117 393.796 LINE",
"167.068 429.485 OFFCURVE",
"224.427 447.747 OFFCURVE",
"283.854 447.747 CURVE SMOOTH",
"362.515 447.747 OFFCURVE",
"394.369 410.466 OFFCURVE",
"394.369 322.951 CURVE SMOOTH",
"394.369 213.427 LINE SMOOTH",
"394.369 122.174 OFFCURVE",
"337.544 57.204 OFFCURVE",
"254.146 57.204 CURVE SMOOTH",
"189.747 57.204 OFFCURVE",
"143.777 95.485 OFFCURVE",
"143.777 155.407 CURVE SMOOTH",
"143.777 224.593 OFFCURVE",
"195.058 254.544 OFFCURVE",
"357.515 254.544 CURVE SMOOTH",
"404.32 254.544 LINE",
"404.32 307.407 LINE",
"353.68 307.407 LINE SMOOTH",
"137.66 307.407 OFFCURVE",
"60.398 260.883 OFFCURVE",
"61.136 150.146 CURVE SMOOTH",
"61.874 56.786 OFFCURVE",
"141.233 -7.262 OFFCURVE",
"246.427 -7.262 CURVE SMOOTH"
);
}
);
width = 881.23301;
}
);
leftKerningGroup = a;
rightKerningGroup = e;
unicode = 00E6;
userData = {
com.typemytype.robofont.layerData = {
b = {
anchors = (
);
components = (
);
contours = (
);
lib = {
};
name = ae;
unicodes = (
);
width = 1734;
};
};
};
},
{
color = 3;
glyphname = b;
lastChange = "2019-01-16 15:38:45 +0000";
layers = (
{
anchors = (
{
name = bottom;
position = "{310.184, 0}";
},
{
name = top;
position = "{305.777, 505.417}";
}
);
layerId = "46D6449F-D991-45BF-8D03-34744F3491AE";
paths = (
{
closed = 1;
nodes = (
"130.146 0 LINE",
"130.146 140.864 LINE",
"119.146 135.728 LINE",
"142.262 43.049 OFFCURVE",
"209.262 -6.883 OFFCURVE",
"305.777 -6.883 CURVE SMOOTH",
"439.01 -6.883 OFFCURVE",
"528.66 96.767 OFFCURVE",
"528.66 254.65 CURVE SMOOTH",
"528.66 411.417 OFFCURVE",
"440.01 512.184 OFFCURVE",
"305.777 512.184 CURVE SMOOTH",
"209.262 512.184 OFFCURVE",
"142.262 462.485 OFFCURVE",
"119.146 369.689 CURVE",
"128.796 364.087 LINE",
"128.796 736 LINE",
"87.913 736 LINE",
"87.913 0 LINE"
);
},
{
closed = 1;
nodes = (
"192.359 33.961 OFFCURVE",
"130.146 113.99 OFFCURVE",
"130.146 252.65 CURVE SMOOTH",
"130.146 391.544 OFFCURVE",
"192.359 471.456 OFFCURVE",
"305.553 471.456 CURVE SMOOTH",
"416.515 471.456 OFFCURVE",
"483.311 392.544 OFFCURVE",
"483.311 254.65 CURVE SMOOTH",
"483.311 115.99 OFFCURVE",
"416.631 33.961 OFFCURVE",
"306.67 33.961 CURVE SMOOTH"
);
}
);
width = 582.64078;
},
{
anchors = (
{
name = bottom;
position = "{319.631, 0}";
},
{
name = top;
position = "{389.447, 512.165}";
}
);
layerId = "6790C309-8F5A-452B-8BE0-8B8CBBA8D07C";
paths = (
{
closed = 1;
nodes = (
"232.709 0 LINE",
"232.709 119.272 LINE",
"221.709 92.544 LINE",
"243.476 30.903 OFFCURVE",
"310.476 -8.233 OFFCURVE",
"389.447 -8.233 CURVE SMOOTH",
"519.981 -8.233 OFFCURVE",
"613.68 99.466 OFFCURVE",
"613.68 258.699 CURVE SMOOTH",
"613.68 418.165 OFFCURVE",
"520.981 521.631 OFFCURVE",
"389.447 521.631 CURVE SMOOTH",
"310.476 521.631 OFFCURVE",
"243.476 480.029 OFFCURVE",
"221.709 419.621 CURVE",
"235.408 397.825 LINE",
"235.408 736 LINE",
"54.175 736 LINE",
"54.175 0 LINE"
);
},
{
closed = 1;
nodes = (
"269.282 127.078 OFFCURVE",
"232.709 172.019 OFFCURVE",
"232.709 256.699 CURVE SMOOTH",
"232.709 338.913 OFFCURVE",
"269.282 385.087 OFFCURVE",
"333.893 385.087 CURVE SMOOTH",
"398.971 385.087 OFFCURVE",
"433.379 339.913 OFFCURVE",
"433.379 258.699 CURVE SMOOTH",
"433.379 174.019 OFFCURVE",
"397.738 127.078 OFFCURVE",
"333.66 127.078 CURVE SMOOTH"
);
}
);
width = 644.71845;
},
{
anchors = (
{
name = bottom;
position = "{312.835, 0}";
},
{
name = top;
position = "{329.253, 507.31}";
}
);
layerId = "A299C91D-11CD-42B0-B8D6-5EC4BEC07D9B";
paths = (
{
closed = 1;
nodes = (
"158.923 0 LINE",
"158.923 134.806 LINE",
"147.923 123.612 LINE",
"170.66 39.641 OFFCURVE",
"237.66 -7.262 OFFCURVE",
"329.253 -7.262 CURVE SMOOTH",
"461.728 -7.262 OFFCURVE",
"552.515 97.524 OFFCURVE",
"552.515 255.786 CURVE SMOOTH",
"552.515 413.31 OFFCURVE",
"462.728 514.835 OFFCURVE",
"329.253 514.835 CURVE SMOOTH",
"237.66 514.835 OFFCURVE",
"170.66 467.407 OFFCURVE",
"147.923 383.699 CURVE",
"158.709 373.553 LINE",
"158.709 736 LINE",
"78.447 736 LINE",
"78.447 0 LINE"
);
},
{
closed = 1;
nodes = (
"213.942 60.087 OFFCURVE",
"158.923 130.272 OFFCURVE",
"158.923 253.786 CURVE SMOOTH",
"158.923 376.777 OFFCURVE",
"213.942 447.223 OFFCURVE",
"313.505 447.223 CURVE SMOOTH",
"411.593 447.223 OFFCURVE",
"469.301 377.777 OFFCURVE",
"469.301 255.786 CURVE SMOOTH",
"469.301 132.272 OFFCURVE",
"411.33 60.087 OFFCURVE",
"314.243 60.087 CURVE SMOOTH"
);
}
);
width = 600.05826;
}
);
leftKerningGroup = h;
rightKerningGroup = o;
unicode = 0062;
userData = {
anchors = (
);
b = {
};
com.typemytype.robofont.layerData = {
b = {
anchors = (
);
components = (
);
contours = (
{
points = (
{
segmentType = curve;
smooth = 1;
x = 238;
y = 1425;
},
{
smooth = 0;
x = 198;
y = 1425;
},
{
smooth = 0;
x = 158;
y = 1400;
},
{
segmentType = curve;
smooth = 1;
x = 158;
y = 1351;
},
{
segmentType = line;
smooth = 1;
x = 158;
y = 76;
},
{
smooth = 0;
x = 158;
y = 27;
},
{
smooth = 0;
x = 197;
y = 3;
},
{
segmentType = curve;
smooth = 1;
x = 237;
y = 3;
},
{
smooth = 0;
x = 297;
y = 3;
},
{
smooth = 0;
x = 318;
y = 38;
},
{
segmentType = curve;
smooth = 1;
x = 318;
y = 76;
},
{
segmentType = line;
smooth = 0;
x = 318;
y = 183;
},
{
smooth = 0;
x = 384;
y = 46;
},
{
smooth = 0;
x = 516;
y = "-20";
},
{
segmentType = curve;
smooth = 1;
x = 666;
y = "-20";
},
{
smooth = 0;
x = 957;
y = "-20";
},
{
smooth = 0;
x = 1095;
y = 225;
},
{
segmentType = curve;
smooth = 1;
x = 1095;
y = 502;
},
{
smooth = 0;
x = 1095;
y = 777;
},
{
smooth = 0;
x = 939;
y = 1013;
},
{
segmentType = curve;
smooth = 1;
x = 650;
y = 1013;
},
{
smooth = 0;
x = 503;
y = 1013;
},
{
smooth = 0;
x = 376;
y = 942;
},
{
segmentType = curve;
smooth = 0;
x = 318;
y = 814;
},
{
segmentType = line;
smooth = 1;
x = 318;
y = 1351;
},
{
smooth = 0;
x = 318;
y = 1400;
},
{
smooth = 0;
x = 278;
y = 1425;
}
);
},
{
points = (
{
segmentType = curve;
smooth = 1;
x = 632;
y = 903;
},
{
smooth = 0;
x = 859;
y = 903;
},
{
smooth = 0;
x = 935;
y = 685;
},
{
segmentType = curve;
smooth = 1;
x = 935;
y = 496;
},
{
smooth = 0;
x = 935;
y = 316;
},
{
smooth = 0;
x = 869;
y = 93;
},
{
segmentType = curve;
smooth = 0;
x = 645;
y = 90;
},
{
smooth = 0;
x = 395;
y = 90;
},
{
smooth = 0;
x = 319;
y = 279;
},
{
segmentType = curve;
smooth = 1;
x = 319;
y = 501;
},
{
smooth = 0;
x = 319;
y = 701;
},
{
smooth = 0;
x = 407;
y = 903;
}
);
}
);
lib = {
};
name = b;
unicodes = (
);
width = 1181;
};
};
components = (
);
contours = (
);
lib = {
};
name = b;
unicodes = (
);
width = 1203;
};
},
{
color = 3;
glyphname = c;
lastChange = "2019-01-16 15:38:45 +0000";
layers = (
{
anchors = (
{
name = bottom;
position = "{280.485, 0}";
},
{
name = top;
position = "{281.67, 505.417}";
}
);
layerId = "46D6449F-D991-45BF-8D03-34744F3491AE";
paths = (
{
closed = 1;
nodes = (
"346.505 -6.883 OFFCURVE",
"412.456 19.466 OFFCURVE",
"454.223 60.699 CURVE",
"434.437 96.126 LINE",
"379.806 52.961 OFFCURVE",
"335.505 33.845 OFFCURVE",
"282.689 33.845 CURVE SMOOTH",
"169.311 33.845 OFFCURVE",
"98.864 114.223 OFFCURVE",
"98.864 250.417 CURVE SMOOTH",
"98.864 387.845 OFFCURVE",
"170.311 471.573 OFFCURVE",
"283.806 471.573 CURVE SMOOTH",
"335.505 471.573 OFFCURVE",
"379.806 452.573 OFFCURVE",
"434.437 409.291 CURVE",
"454.223 444.602 LINE",
"414.456 487.068 OFFCURVE",
"349.621 512.184 OFFCURVE",
"284.437 512.184 CURVE SMOOTH",
"144 512.184 OFFCURVE",
"53.981 407.417 OFFCURVE",
"53.981 250.767 CURVE SMOOTH",
"53.981 96.35 OFFCURVE",
"143.932 -6.883 OFFCURVE",
"283.019 -6.883 CURVE SMOOTH"
);
}
);
width = 486.5534;
},
{
anchors = (
{
name = bottom;
position = "{298.029, 0}";
},
{
name = top;
position = "{308.66, 512.165}";
}
);
layerId = "6790C309-8F5A-452B-8BE0-8B8CBBA8D07C";
paths = (
{
closed = 1;
nodes = (
"386.99 -8.233 OFFCURVE",
"465.087 14.068 OFFCURVE",
"509.553 52.602 CURVE",
"464.126 175.748 LINE",
"428.388 146.078 OFFCURVE",
"375.99 128.311 OFFCURVE",
"332.621 128.311 CURVE SMOOTH",
"258.379 128.311 OFFCURVE",
"216.272 169.553 OFFCURVE",
"216.272 257.165 CURVE SMOOTH",
"216.272 343.311 OFFCURVE",
"259.379 383.854 OFFCURVE",
"332.388 383.854 CURVE SMOOTH",
"375.99 383.854 OFFCURVE",
"428.388 364.854 OFFCURVE",
"464.126 336.417 CURVE",
"509.553 460.796 LINE",
"467.087 497.864 OFFCURVE",
"388.757 521.631 OFFCURVE",
"314.126 521.631 CURVE SMOOTH",
"144 521.631 OFFCURVE",
"31.039 414.165 OFFCURVE",
"31.039 253.466 CURVE SMOOTH",
"31.039 92.301 OFFCURVE",
"133.136 -8.233 OFFCURVE",
"305.961 -8.233 CURVE SMOOTH"
);
}
);
width = 514.8932;
},
{
anchors = (
{
name = bottom;
position = "{285.407, 0}";
},
{
name = top;
position = "{289.243, 507.31}";
}
);
layerId = "A299C91D-11CD-42B0-B8D6-5EC4BEC07D9B";
paths = (
{
closed = 1;
nodes = (
"357.864 -7.262 OFFCURVE",
"427.223 17.951 OFFCURVE",
"469.747 58.427 CURVE",
"442.767 118.466 LINE",
"393.437 79.087 OFFCURVE",
"346.864 60.35 OFFCURVE",
"296.699 60.35 CURVE SMOOTH",
"194.301 60.35 OFFCURVE",
"131.806 129.747 OFFCURVE",
"131.806 252.31 CURVE SMOOTH",
"131.806 375.35 OFFCURVE",
"195.301 446.961 OFFCURVE",
"297.437 446.961 CURVE SMOOTH",
"346.864 446.961 OFFCURVE",
"393.437 427.961 OFFCURVE",
"442.767 388.844 CURVE",
"469.747 449.146 LINE",
"429.223 490.097 OFFCURVE",
"360.602 514.835 OFFCURVE",
"292.767 514.835 CURVE SMOOTH",
"144 514.835 OFFCURVE",
"47.544 409.31 OFFCURVE",
"47.544 251.524 CURVE SMOOTH",
"47.544 95.214 OFFCURVE",
"140.903 -7.262 OFFCURVE",
"289.456 -7.262 CURVE SMOOTH"
);
}
);
width = 494.50485;
}
);
leftKerningGroup = o;
rightKerningGroup = c;
unicode = 0063;
userData = {
anchors = (
);
b = {
};
com.typemytype.robofont.layerData = {
b = {
anchors = (
);
components = (
);
contours = (
);
lib = {
};
name = c;
unicodes = (
);
width = 956.141;
};
};
components = (
);
contours = (
);
lib = {
};
name = c;
unicodes = (
);
width = 992;
};
},
{
color = 3;
glyphname = d;
lastChange = "2019-01-16 15:38:45 +0000";
layers = (
{
anchors = (
{
name = bottom;
position = "{293.553, 0}";
},
{
name = center;
position = "{293.553, 252.65}";
},
{
name = top;
position = "{293.553, 505.417}";
},
{
name = topright;
position = "{537.476, 736}";
}
);
layerId = "46D6449F-D991-45BF-8D03-34744F3491AE";
paths = (
{
closed = 1;
nodes = (
"494.845 736 LINE",
"452.845 736 LINE",
"452.845 364.087 LINE",
"464.612 369.689 LINE",
"441.612 462.485 OFFCURVE",
"374.612 512.184 OFFCURVE",
"276.864 512.184 CURVE SMOOTH",
"141.515 512.184 OFFCURVE",
"53.981 411.417 OFFCURVE",
"53.981 254.65 CURVE SMOOTH",
"53.981 96.767 OFFCURVE",
"143.631 -6.883 OFFCURVE",
"276.864 -6.883 CURVE SMOOTH",
"374.612 -6.883 OFFCURVE",
"441.612 43.049 OFFCURVE",
"464.612 135.728 CURVE",
"452.612 140.864 LINE",
"452.612 0 LINE",
"494.845 0 LINE"
);
},
{
closed = 1;
nodes = (
"165.893 33.961 OFFCURVE",
"99.447 115.99 OFFCURVE",
"99.447 254.65 CURVE SMOOTH",
"99.447 392.544 OFFCURVE",
"166.126 471.456 OFFCURVE",
"278.204 471.456 CURVE SMOOTH",
"389.282 471.456 OFFCURVE",
"452.612 391.544 OFFCURVE",
"452.612 252.65 CURVE SMOOTH",
"452.612 113.99 OFFCURVE",
"389.282 33.961 OFFCURVE",
"277.087 33.961 CURVE SMOOTH"
);
}
);
width = 582.75728;
},
{
anchors = (
{
name = bottom;
position = "{321.893, 0}";
},
{
name = center;
position = "{321.893, 256.699}";
},
{
name = top;
position = "{321.893, 512.165}";
},
{
name = topright;
position = "{613.049, 736}";
}
);
layerId = "6790C309-8F5A-452B-8BE0-8B8CBBA8D07C";
paths = (
{
closed = 1;
nodes = (
"589.311 736 LINE",
"408.311 736 LINE",
"408.311 397.825 LINE",
"422.777 419.621 LINE",
"399.777 480.029 OFFCURVE",
"332.777 521.631 OFFCURVE",
"255.272 521.631 CURVE SMOOTH",
"123.971 521.631 OFFCURVE",
"31.039 418.165 OFFCURVE",
"31.039 258.699 CURVE SMOOTH",
"31.039 99.466 OFFCURVE",
"124.738 -8.233 OFFCURVE",
"255.272 -8.233 CURVE SMOOTH",
"332.777 -8.233 OFFCURVE",
"399.777 30.903 OFFCURVE",
"422.777 92.544 CURVE",
"410.777 119.272 LINE",
"410.777 0 LINE",
"589.311 0 LINE"
);
},
{
closed = 1;
nodes = (
"248.214 127.078 OFFCURVE",
"210.107 174.019 OFFCURVE",
"210.107 258.699 CURVE SMOOTH",
"210.107 339.913 OFFCURVE",
"245.748 385.087 OFFCURVE",
"310.592 385.087 CURVE SMOOTH",
"374.437 385.087 OFFCURVE",
"410.777 338.913 OFFCURVE",
"410.777 256.699 CURVE SMOOTH",
"410.777 172.019 OFFCURVE",
"374.437 127.078 OFFCURVE",
"310.825 127.078 CURVE SMOOTH"
);
}
);
width = 643.48544;
},
{
anchors = (
{
name = bottom;
position = "{301.505, 0}";
},
{
name = center;
position = "{301.505, 253.786}";
},
{
name = top;
position = "{301.505, 507.31}";
},
{
name = topright;
position = "{558.68, 736}";
}
);
layerId = "A299C91D-11CD-42B0-B8D6-5EC4BEC07D9B";
paths = (
{
closed = 1;
nodes = (
"521.35 736 LINE",
"440.35 736 LINE",
"440.35 373.553 LINE",
"452.874 383.699 LINE",
"429.874 467.407 OFFCURVE",
"362.874 514.835 OFFCURVE",
"270.806 514.835 CURVE SMOOTH",
"136.593 514.835 OFFCURVE",
"47.544 413.31 OFFCURVE",
"47.544 255.786 CURVE SMOOTH",
"47.544 97.524 OFFCURVE",
"138.33 -7.262 OFFCURVE",
"270.806 -7.262 CURVE SMOOTH",
"362.874 -7.262 OFFCURVE",
"429.874 39.641 OFFCURVE",
"452.874 123.612 CURVE",
"440.874 134.806 LINE",
"440.874 0 LINE",
"521.35 0 LINE"
);
},
{
closed = 1;
nodes = (
"188.99 60.087 OFFCURVE",
"130.495 132.272 OFFCURVE",
"130.495 255.786 CURVE SMOOTH",
"130.495 377.777 OFFCURVE",
"188.466 447.223 OFFCURVE",
"287.291 447.223 CURVE SMOOTH",
"385.117 447.223 OFFCURVE",
"440.874 376.777 OFFCURVE",
"440.874 253.786 CURVE SMOOTH",
"440.874 130.272 OFFCURVE",
"385.117 60.087 OFFCURVE",
"286.553 60.087 CURVE SMOOTH"
);
}
);
width = 599.79612;
}
);
leftKerningGroup = o;
rightKerningGroup = l;
unicode = 0064;
userData = {
anchors = (
);
b = {
};
com.typemytype.robofont.layerData = {
b = {
anchors = (
);
components = (
);
contours = (
);
lib = {
};
name = d;
unicodes = (
);
width = 1181;
};
};
components = (
);
contours = (
);
lib = {
};
name = d;
unicodes = (
);
width = 1207;
};
},
{
color = 3;
glyphname = eth;
lastChange = "2019-01-16 15:38:45 +0000";
layers = (
{
layerId = "46D6449F-D991-45BF-8D03-34744F3491AE";
paths = (
{
closed = 1;
nodes = (
"425.524 -6.883 OFFCURVE",
"501.845 93.718 OFFCURVE",
"501.845 291.369 CURVE SMOOTH",
"501.845 529.214 OFFCURVE",
"391.524 671.806 OFFCURVE",
"180.301 741.301 CURVE",
"166.515 705.874 LINE",
"362.709 643.68 OFFCURVE",
"463.146 504.883 OFFCURVE",
"459.796 295.806 CURVE",
"484.049 294.155 LINE",
"462.515 408.369 OFFCURVE",
"390.583 470 OFFCURVE",
"279.65 470 CURVE SMOOTH",
"143.699 470 OFFCURVE",
"53.981 376.466 OFFCURVE",
"53.981 230.883 CURVE SMOOTH",
"53.981 86.767 OFFCURVE",
"142 -6.883 OFFCURVE",
"276.786 -6.883 CURVE SMOOTH"
);
},
{
closed = 1;
nodes = (
"163.01 33.961 OFFCURVE",
"99.447 105.107 OFFCURVE",
"99.447 230.883 CURVE SMOOTH",
"99.447 355.544 OFFCURVE",
"166.359 427.689 OFFCURVE",
"277.204 427.689 CURVE SMOOTH",
"387.049 427.689 OFFCURVE",
"453.961 355.544 OFFCURVE",
"453.961 230.883 CURVE SMOOTH",
"453.961 108.223 OFFCURVE",
"386.049 33.961 OFFCURVE",
"276.087 33.961 CURVE SMOOTH"
);
},
{
closed = 1;
nodes = (
"500.311 668.107 LINE",
"485.893 704.563 LINE",
"175.447 574.35 LINE",
"189.631 537.893 LINE"
);
}
);
width = 555.82524;
},
{
layerId = "6790C309-8F5A-452B-8BE0-8B8CBBA8D07C";
paths = (
{
closed = 1;
nodes = (
"488.951 -8.233 OFFCURVE",
"596.311 108.563 OFFCURVE",
"596.311 310.262 CURVE SMOOTH",
"596.311 503.573 OFFCURVE",
"454.951 720.388 OFFCURVE",
"188.398 749.398 CURVE",
"148.971 626.252 LINE",
"296.583 612.641 OFFCURVE",
"426.709 506.233 OFFCURVE",
"427.408 344.388 CURVE",
"471.903 338.689 LINE",
"444.971 427.262 OFFCURVE",
"383.835 470 OFFCURVE",
"283.699 470 CURVE SMOOTH",
"135.602 470 OFFCURVE",
"31.039 371.068 OFFCURVE",
"31.039 232.233 CURVE SMOOTH",
"31.039 89.466 OFFCURVE",
"142 -8.233 OFFCURVE",
"302.427 -8.233 CURVE SMOOTH"
);
},
{
closed = 1;
nodes = (
"243.981 127.078 OFFCURVE",
"210.107 161.786 OFFCURVE",
"210.107 232.233 CURVE SMOOTH",
"210.107 302.913 OFFCURVE",
"243.282 338.621 OFFCURVE",
"309.592 338.621 CURVE SMOOTH",
"374.903 338.621 OFFCURVE",
"408.078 302.913 OFFCURVE",
"408.078 232.233 CURVE SMOOTH",
"408.078 163.553 OFFCURVE",
"373.903 127.078 OFFCURVE",
"309.825 127.078 CURVE SMOOTH"
);
},
{
closed = 1;
nodes = (
"589.379 585.786 LINE",
"568.214 674.874 LINE",
"147.107 570.301 LINE",
"170.738 481.214 LINE"
);
}
);
width = 627.34951;
},
{
layerId = "A299C91D-11CD-42B0-B8D6-5EC4BEC07D9B";
paths = (
{
closed = 1;
nodes = (
"443.32 -7.262 OFFCURVE",
"528.35 97.883 OFFCURVE",
"528.35 296.67 CURVE SMOOTH",
"528.35 522.02 OFFCURVE",
"409.32 685.437 OFFCURVE",
"182.573 743.573 CURVE",
"161.593 683.534 LINE",
"344.156 634.971 OFFCURVE",
"452.923 505.262 OFFCURVE",
"450.709 309.437 CURVE",
"480.641 306.65 LINE",
"457.593 413.67 OFFCURVE",
"388.69 470 OFFCURVE",
"280.786 470 CURVE SMOOTH",
"141.427 470 OFFCURVE",
"47.544 374.951 OFFCURVE",
"47.544 231.262 CURVE SMOOTH",
"47.544 87.524 OFFCURVE",
"142 -7.262 OFFCURVE",
"283.98 -7.262 CURVE SMOOTH"
);
},
{
closed = 1;
nodes = (
"185.728 60.087 OFFCURVE",
"130.495 121.01 OFFCURVE",
"130.495 231.262 CURVE SMOOTH",
"130.495 340.777 OFFCURVE",
"187.942 402.699 OFFCURVE",
"286.291 402.699 CURVE SMOOTH",
"383.641 402.699 OFFCURVE",
"441.087 340.777 OFFCURVE",
"441.087 231.262 CURVE SMOOTH",
"441.087 123.747 OFFCURVE",
"382.641 60.087 OFFCURVE",
"285.553 60.087 CURVE SMOOTH"
);
},
{
closed = 1;
nodes = (
"525.301 645.01 LINE",
"508.99 696.233 LINE",
"167.495 573.214 LINE",
"184.33 521.99 LINE"
);
}
);
width = 575.8932;
}
);
leftKerningGroup = o;
rightKerningGroup = o;
unicode = 00F0;
userData = {
com.typemytype.robofont.layerData = {
b = {
anchors = (
);
components = (
);
contours = (
);
lib = {
};
name = eth;
unicodes = (
);
width = 1230;
};
};
};
},
{
color = 3;
glyphname = dcaron;
lastChange = "2019-01-16 15:38:45 +0000";
layers = (
{
components = (
{
alignment = -1;
name = d;
}
);
layerId = "46D6449F-D991-45BF-8D03-34744F3491AE";
paths = (
{
closed = 1;
nodes = (
"590.563 736 LINE",
"533.01 736 LINE",
"533.01 541.583 LINE",
"563.563 541.583 LINE"
);
}
);
width = 582.75728;
},
{
components = (
{
alignment = -1;
name = d;
}
);
layerId = "6790C309-8F5A-452B-8BE0-8B8CBBA8D07C";
paths = (
{
closed = 1;
nodes = (
"699.874 736 LINE",
"613.981 736 LINE",
"613.981 534.835 LINE",
"672.874 534.835 LINE"
);
}
);
width = 643.48544;
},
{
components = (
{
alignment = -1;
name = d;
}
);
layerId = "A299C91D-11CD-42B0-B8D6-5EC4BEC07D9B";
paths = (
{
closed = 1;
nodes = (
"621.233 736 LINE",
"555.728 736 LINE",
"555.728 539.69 LINE",
"594.233 539.69 LINE"
);
}
);
width = 599.79612;
}
);
leftKerningGroup = o;
rightKerningGroup = lcaron;
unicode = 010F;
},
{
color = 3;
glyphname = dcroat;
lastChange = "2019-01-16 15:38:45 +0000";
layers = (
{
layerId = "46D6449F-D991-45BF-8D03-34744F3491AE";
paths = (
{
closed = 1;
nodes = (
"593.893 594.845 LINE",
"593.893 631.272 LINE",
"249.563 631.272 LINE",
"249.563 594.845 LINE"
);
},
{
closed = 1;
nodes = (
"494.845 736 LINE",
"452.845 736 LINE",
"452.845 364.087 LINE",
"464.612 369.689 LINE",
"441.612 462.485 OFFCURVE",
"374.612 512.184 OFFCURVE",
"276.864 512.184 CURVE SMOOTH",
"141.515 512.184 OFFCURVE",
"53.981 411.417 OFFCURVE",
"53.981 254.65 CURVE SMOOTH",
"53.981 96.767 OFFCURVE",
"143.631 -6.883 OFFCURVE",
"276.864 -6.883 CURVE SMOOTH",
"374.612 -6.883 OFFCURVE",
"441.612 43.049 OFFCURVE",
"464.612 135.728 CURVE",
"452.612 140.864 LINE",
"452.612 0 LINE",
"494.845 0 LINE"
);
},
{
closed = 1;
nodes = (
"165.893 33.961 OFFCURVE",
"99.447 115.99 OFFCURVE",
"99.447 254.65 CURVE SMOOTH",
"99.447 392.544 OFFCURVE",
"166.126 471.456 OFFCURVE",
"278.204 471.456 CURVE SMOOTH",
"389.282 471.456 OFFCURVE",
"452.612 391.544 OFFCURVE",
"452.612 252.65 CURVE SMOOTH",
"452.612 113.99 OFFCURVE",
"389.282 33.961 OFFCURVE",
"277.087 33.961 CURVE SMOOTH"
);
}
);
width = 582.75728;
},
{
layerId = "6790C309-8F5A-452B-8BE0-8B8CBBA8D07C";
paths = (
{
closed = 1;
nodes = (
"676.214 550.311 LINE",
"676.214 674.456 LINE",
"219.874 674.456 LINE",
"219.874 550.311 LINE"
);
},
{
closed = 1;
nodes = (
"589.311 736 LINE",
"408.311 736 LINE",
"408.311 397.825 LINE",
"422.777 419.621 LINE",
"399.777 480.029 OFFCURVE",
"332.777 521.631 OFFCURVE",
"255.272 521.631 CURVE SMOOTH",
"123.971 521.631 OFFCURVE",
"31.039 418.165 OFFCURVE",
"31.039 258.699 CURVE SMOOTH",
"31.039 99.466 OFFCURVE",
"124.738 -8.233 OFFCURVE",
"255.272 -8.233 CURVE SMOOTH",
"332.777 -8.233 OFFCURVE",
"399.777 30.903 OFFCURVE",
"422.777 92.544 CURVE",
"410.777 119.272 LINE",
"410.777 0 LINE",
"589.311 0 LINE"
);
},
{
closed = 1;
nodes = (
"248.214 127.078 OFFCURVE",
"210.107 174.019 OFFCURVE",
"210.107 258.699 CURVE SMOOTH",
"210.107 339.913 OFFCURVE",
"245.748 385.087 OFFCURVE",
"310.592 385.087 CURVE SMOOTH",
"374.437 385.087 OFFCURVE",
"410.777 338.913 OFFCURVE",
"410.777 256.699 CURVE SMOOTH",
"410.777 172.019 OFFCURVE",
"374.437 127.078 OFFCURVE",
"310.825 127.078 CURVE SMOOTH"
);
}
);
width = 643.48544;
},
{
layerId = "A299C91D-11CD-42B0-B8D6-5EC4BEC07D9B";
paths = (
{
closed = 1;
nodes = (
"616.99 582.35 LINE",
"616.99 643.388 LINE",
"241.233 643.388 LINE",
"241.233 582.35 LINE"
);
},
{
closed = 1;
nodes = (
"521.35 736 LINE",
"440.35 736 LINE",
"440.35 373.553 LINE",
"452.874 383.699 LINE",
"429.874 467.407 OFFCURVE",
"362.874 514.835 OFFCURVE",
"270.806 514.835 CURVE SMOOTH",
"136.593 514.835 OFFCURVE",
"47.544 413.31 OFFCURVE",
"47.544 255.786 CURVE SMOOTH",
"47.544 97.524 OFFCURVE",
"138.33 -7.262 OFFCURVE",
"270.806 -7.262 CURVE SMOOTH",
"362.874 -7.262 OFFCURVE",
"429.874 39.641 OFFCURVE",
"452.874 123.612 CURVE",
"440.874 134.806 LINE",
"440.874 0 LINE",
"521.35 0 LINE"
);
},
{
closed = 1;
nodes = (
"188.99 60.087 OFFCURVE",
"130.495 132.272 OFFCURVE",
"130.495 255.786 CURVE SMOOTH",
"130.495 377.777 OFFCURVE",
"188.466 447.223 OFFCURVE",
"287.291 447.223 CURVE SMOOTH",
"385.117 447.223 OFFCURVE",
"440.874 376.777 OFFCURVE",
"440.874 253.786 CURVE SMOOTH",
"440.874 130.272 OFFCURVE",
"385.117 60.087 OFFCURVE",
"286.553 60.087 CURVE SMOOTH"
);
}
);
width = 599.79612;
}
);
leftKerningGroup = o;
rightKerningGroup = l;
unicode = 0111;
userData = {
com.typemytype.robofont.layerData = {
b = {
anchors = (
);
components = (
);
contours = (
);
lib = {
};
name = dcroat;
unicodes = (
);
width = 1181;
};
};
};
},
{
color = 3;
glyphname = e;
lastChange = "2019-01-16 15:38:45 +0000";
layers = (
{
anchors = (
{
name = bottom;
position = "{294.718, 0}";
},
{
name = ogonek;
position = "{386.553, 10}";
},
{
name = top;
position = "{285, 505.417}";
}
);
layerId = "46D6449F-D991-45BF-8D03-34744F3491AE";
paths = (
{
closed = 1;
nodes = (
"461.417 98.709 LINE",
"407.252 54.427 OFFCURVE",
"354.369 34.194 OFFCURVE",
"292.32 34.194 CURVE SMOOTH",
"168.942 34.194 OFFCURVE",
"101.262 112.456 OFFCURVE",
"101.262 252.369 CURVE SMOOTH",
"101.262 388.796 OFFCURVE",
"170.641 473.524 OFFCURVE",
"284.534 473.524 CURVE SMOOTH",
"394.544 473.524 OFFCURVE",
"453.223 396.913 OFFCURVE",
"448.757 261.437 CURVE",
"467.66 302.485 LINE",
"90.146 302.485 LINE",
"91.379 261.214 LINE",
"490.204 261.214 LINE",
"490.204 273.165 LINE SMOOTH",
"490.204 424.35 OFFCURVE",
"413.485 512.184 OFFCURVE",
"285 512.184 CURVE SMOOTH",
"148.049 512.184 OFFCURVE",
"53.981 407.65 OFFCURVE",
"53.981 251.65 CURVE SMOOTH",
"53.981 89.65 OFFCURVE",
"145.699 -6.883 OFFCURVE",
"294.252 -6.883 CURVE SMOOTH",
"366.369 -6.883 OFFCURVE",
"438.903 20.583 OFFCURVE",
"481.204 62.932 CURVE"
);
}
);
width = 540.95146;
},
{
anchors = (
{
name = bottom;
position = "{309.563, 0}";
},
{
name = ogonek;
position = "{414.893, 10}";
},
{
name = top;
position = "{285, 512.165}";
}
);
layerId = "6790C309-8F5A-452B-8BE0-8B8CBBA8D07C";
paths = (
{
closed = 1;
nodes = (
"468.165 171.583 LINE",
"427.495 142.146 OFFCURVE",
"373.262 124.612 OFFCURVE",
"323.359 124.612 CURVE SMOOTH",
"239.117 124.612 OFFCURVE",
"202.476 165.087 OFFCURVE",
"202.476 271.262 CURVE SMOOTH",
"202.476 356.408 OFFCURVE",
"232.718 397.951 OFFCURVE",
"289.932 397.951 CURVE SMOOTH",
"341.913 397.951 OFFCURVE",
"369.553 363.175 OFFCURVE",
"370.485 291.126 CURVE",
"413.68 320.029 LINE",
"192.709 320.029 LINE",
"191.243 235.573 LINE",
"522.592 235.573 LINE",
"522.592 259.67 LINE SMOOTH",
"522.592 420.301 OFFCURVE",
"431.029 521.631 OFFCURVE",
"285 521.631 CURVE SMOOTH",
"135.903 521.631 OFFCURVE",
"31.039 411.699 OFFCURVE",
"31.039 255.699 CURVE SMOOTH",
"31.039 93.699 OFFCURVE",
"137.602 -8.233 OFFCURVE",
"314.495 -8.233 CURVE SMOOTH",
"385.262 -8.233 OFFCURVE",
"463.194 13.835 OFFCURVE",
"513.592 52.136 CURVE"
);
}
);
width = 553.09709;
},
{
anchors = (
{
name = bottom;
position = "{298.883, 0}";
},
{
name = ogonek;
position = "{394.505, 10}";
},
{
name = top;
position = "{285, 507.31}";
}
);
layerId = "A299C91D-11CD-42B0-B8D6-5EC4BEC07D9B";
paths = (
{
closed = 1;
nodes = (
"463.31 119.156 LINE",
"412.932 79.039 OFFCURVE",
"359.67 59.563 OFFCURVE",
"301.029 59.563 CURVE SMOOTH",
"188.631 59.563 OFFCURVE",
"129.66 127.223 OFFCURVE",
"129.66 257.67 CURVE SMOOTH",
"129.66 379.709 OFFCURVE",
"188.058 452.32 OFFCURVE",
"286.049 452.32 CURVE SMOOTH",
"379.777 452.32 OFFCURVE",
"429.747 387.447 OFFCURVE",
"426.796 269.767 CURVE",
"452.515 307.407 LINE",
"118.923 307.407 LINE",
"119.398 254.02 LINE",
"499.291 254.02 LINE",
"499.291 269.379 LINE SMOOTH",
"499.291 423.214 OFFCURVE",
"418.407 514.835 OFFCURVE",
"285 514.835 CURVE SMOOTH",
"144.641 514.835 OFFCURVE",
"47.544 408.786 OFFCURVE",
"47.544 252.786 CURVE SMOOTH",
"47.544 90.786 OFFCURVE",
"143.427 -7.262 OFFCURVE",
"299.932 -7.262 CURVE SMOOTH",
"371.67 -7.262 OFFCURVE",
"445.718 18.69 OFFCURVE",
"490.291 59.903 CURVE"
);
}
);
width = 544.35923;
}
);
leftKerningGroup = o;
rightKerningGroup = e;
unicode = 0065;
userData = {
anchors = (
);
b = {
};
com.typemytype.robofont.layerData = {
b = {
anchors = (
);
components = (
);
contours = (
);
lib = {
};
name = e;
unicodes = (
);
width = 1132;
};
};
components = (
);
contours = (
);
lib = {
};
name = e;
unicodes = (
);
width = 1132;
};
},
{
color = 3;
glyphname = eogonek;
lastChange = "2019-01-16 15:38:45 +0000";
layers = (
{
anchors = (
{
name = top;
position = "{285, 505.417}";
}
);
layerId = "46D6449F-D991-45BF-8D03-34744F3491AE";
paths = (
{
closed = 1;
nodes = (
"433.184 -196.184 OFFCURVE",
"461.485 -188.184 OFFCURVE",
"481.32 -172.951 CURVE",
"465.437 -136.913 LINE",
"443.204 -150.379 OFFCURVE",
"420.854 -157.728 OFFCURVE",
"402.738 -157.728 CURVE SMOOTH",
"359.272 -157.728 OFFCURVE",
"331.689 -129.796 OFFCURVE",
"331.689 -87.097 CURVE SMOOTH",
"331.689 -44.398 OFFCURVE",
"358.272 -12.583 OFFCURVE",
"432.252 28.816 CURVE SMOOTH",
"464.786 46.932 OFFCURVE",
"472.32 53.932 OFFCURVE",
"481.204 64.049 CURVE",
"461.417 98.709 LINE",
"407.252 54.427 OFFCURVE",
"354.369 34.194 OFFCURVE",
"292.32 34.194 CURVE SMOOTH",
"168.942 34.194 OFFCURVE",
"101.262 112.456 OFFCURVE",
"101.262 252.369 CURVE SMOOTH",
"101.262 390.379 OFFCURVE",
"170.641 473.524 OFFCURVE",
"284.534 473.524 CURVE SMOOTH",
"394.544 473.524 OFFCURVE",
"453.223 396.913 OFFCURVE",
"448.757 261.437 CURVE",
"467.66 302.485 LINE",
"90.146 302.485 LINE",
"91.379 261.214 LINE",
"490.204 261.214 LINE",
"490.204 273.165 LINE SMOOTH",
"490.204 424.35 OFFCURVE",
"413.485 512.184 OFFCURVE",
"285 512.184 CURVE SMOOTH",
"148.049 512.184 OFFCURVE",
"53.981 407.65 OFFCURVE",
"53.981 251.65 CURVE SMOOTH",
"53.981 89.65 OFFCURVE",
"145.699 -6.883 OFFCURVE",
"294.252 -6.883 CURVE SMOOTH",
"320.301 -6.883 OFFCURVE",
"335.184 -3.767 OFFCURVE",
"362.883 5.932 CURVE",
"350.631 13 LINE",
"309.631 -11.117 OFFCURVE",
"286.515 -48 OFFCURVE",
"286.515 -91.117 CURVE SMOOTH",
"286.515 -153.767 OFFCURVE",
"333.816 -196.184 OFFCURVE",
"401.767 -196.184 CURVE SMOOTH"
);
}
);
width = 540.95146;
},
{
anchors = (
{
name = top;
position = "{285, 512.165}";
}
);
layerId = "6790C309-8F5A-452B-8BE0-8B8CBBA8D07C";
paths = (
{
closed = 1;
nodes = (
"442.631 -205.631 OFFCURVE",
"479.029 -197.631 OFFCURVE",
"512.359 -185.097 CURVE",
"495.126 -103.175 LINE",
"475.592 -111.243 OFFCURVE",
"457.291 -114.544 OFFCURVE",
"440.524 -114.544 CURVE SMOOTH",
"402.456 -114.544 OFFCURVE",
"381.621 -97.408 OFFCURVE",
"381.621 -62.806 CURVE SMOOTH",
"381.621 -28.204 OFFCURVE",
"401.456 -5.835 OFFCURVE",
"452.495 19.369 CURVE SMOOTH",
"490.427 36.136 OFFCURVE",
"503.359 43.136 OFFCURVE",
"513.592 51.903 CURVE",
"468.165 171.583 LINE",
"427.495 142.146 OFFCURVE",
"373.262 124.612 OFFCURVE",
"323.359 124.612 CURVE SMOOTH",
"239.117 124.612 OFFCURVE",
"202.476 165.087 OFFCURVE",
"202.476 271.262 CURVE SMOOTH",
"202.476 351.243 OFFCURVE",
"232.718 397.951 OFFCURVE",
"289.932 397.951 CURVE SMOOTH",
"341.913 397.951 OFFCURVE",
"369.553 363.175 OFFCURVE",
"370.485 291.126 CURVE",
"413.68 320.029 LINE",
"192.709 320.029 LINE",
"191.243 235.573 LINE",
"522.592 235.573 LINE",
"522.592 259.67 LINE SMOOTH",
"522.592 420.301 OFFCURVE",
"431.029 521.631 OFFCURVE",
"285 521.631 CURVE SMOOTH",
"135.903 521.631 OFFCURVE",
"31.039 411.699 OFFCURVE",
"31.039 255.699 CURVE SMOOTH",
"31.039 93.699 OFFCURVE",
"137.602 -8.233 OFFCURVE",
"314.495 -8.233 CURVE SMOOTH",
"328.398 -8.233 OFFCURVE",
"344.631 -6.466 OFFCURVE",
"364.233 -4.864 CURVE",
"331.738 13 LINE",
"290.738 -9.767 OFFCURVE",
"268.971 -48 OFFCURVE",
"268.971 -89.767 CURVE SMOOTH",
"268.971 -156.466 OFFCURVE",
"324.369 -205.631 OFFCURVE",
"404.466 -205.631 CURVE SMOOTH"
);
}
);
width = 553.09709;
},
{
anchors = (
{
name = top;
position = "{285, 507.31}";
}
);
layerId = "A299C91D-11CD-42B0-B8D6-5EC4BEC07D9B";
paths = (
{
closed = 1;
nodes = (
"435.835 -198.835 OFFCURVE",
"466.407 -190.835 OFFCURVE",
"490.029 -176.359 CURVE",
"473.767 -127.447 LINE",
"452.291 -139.398 OFFCURVE",
"431.077 -145.612 OFFCURVE",
"413.34 -145.612 CURVE SMOOTH",
"371.388 -145.612 OFFCURVE",
"345.699 -120.709 OFFCURVE",
"345.699 -80.282 CURVE SMOOTH",
"345.699 -39.854 OFFCURVE",
"370.388 -10.69 OFFCURVE",
"437.932 26.165 CURVE SMOOTH",
"471.98 43.903 OFFCURVE",
"481.029 50.903 OFFCURVE",
"490.291 60.641 CURVE",
"463.31 119.156 LINE",
"412.932 79.039 OFFCURVE",
"359.67 59.563 OFFCURVE",
"301.029 59.563 CURVE SMOOTH",
"188.631 59.563 OFFCURVE",
"129.66 127.223 OFFCURVE",
"129.66 257.67 CURVE SMOOTH",
"129.66 379.398 OFFCURVE",
"188.058 452.32 OFFCURVE",
"286.049 452.32 CURVE SMOOTH",
"379.777 452.32 OFFCURVE",
"429.747 387.447 OFFCURVE",
"426.796 269.767 CURVE",
"452.515 307.407 LINE",
"118.923 307.407 LINE",
"119.398 254.02 LINE",
"499.291 254.02 LINE",
"499.291 269.379 LINE SMOOTH",
"499.291 423.214 OFFCURVE",
"418.407 514.835 OFFCURVE",
"285 514.835 CURVE SMOOTH",
"144.641 514.835 OFFCURVE",
"47.544 408.786 OFFCURVE",
"47.544 252.786 CURVE SMOOTH",
"47.544 90.786 OFFCURVE",
"143.427 -7.262 OFFCURVE",
"299.932 -7.262 CURVE SMOOTH",
"322.573 -7.262 OFFCURVE",
"337.835 -4.524 OFFCURVE",
"363.262 2.903 CURVE",
"345.33 13 LINE",
"304.33 -10.738 OFFCURVE",
"281.593 -48 OFFCURVE",
"281.593 -90.738 CURVE SMOOTH",
"281.593 -154.524 OFFCURVE",
"331.165 -198.835 OFFCURVE",
"402.524 -198.835 CURVE SMOOTH"
);
}
);
width = 544.35923;
}
);
leftKerningGroup = o;
rightKerningGroup = e;
unicode = 0119;
},
